<mxfile host="app.diagrams.net" modified="2024-05-19T17:40:11.347Z" agent="Mozilla/5.0 (Windows NT 10.0; Win64; x64) AppleWebKit/537.36 (KHTML, like Gecko) Chrome/125.0.0.0 Safari/537.36" etag="mQqBw8C4APuR2OEZyrH-" version="24.3.1" type="device">
  <diagram name="Page-1" id="7Lmh_Gtp8r3YysVN9k4C">
    <mxGraphModel dx="2634" dy="2375" grid="1" gridSize="10" guides="1" tooltips="1" connect="1" arrows="1" fold="1" page="1" pageScale="1" pageWidth="827" pageHeight="1169" math="0" shadow="0">
      <root>
        <mxCell id="0" />
        <mxCell id="1" parent="0" />
        <mxCell id="fEcaFnHh4Itc8m6EwF7S-1" value="BE Orchestrator" style="rounded=0;whiteSpace=wrap;html=1;" vertex="1" parent="1">
          <mxGeometry x="140" y="380" width="120" height="70" as="geometry" />
        </mxCell>
        <mxCell id="fEcaFnHh4Itc8m6EwF7S-3" value="" style="shape=image;imageAspect=0;aspect=fixed;verticalLabelPosition=bottom;verticalAlign=top;image=data:image/png,iVBORw0KGgoAAAANSUhEUgAAAioAAALHCAYAAACg6mnvAAAAAXNSR0IArs4c6QAAAARnQU1BAACxjwv8YQUAAAAJcEhZcwAADsMAAA7DAcdvqGQAAIuaSURBVHhe7d3rqxxVvvj/Or/nuel5pMEjSZ4EHRyS6IjogIEYdQ7iMImZoyBCBnNiRNDDeIkZJGj0Gx0VJOONCCF8E0/GiOHwjZcIDkSJZ7zhgOKDrxGP+M0jJ+PlD8hvv5f9aVcqVd3Ve3fvXb33+wVFV6+6rbr2qlXV6/NPpyYUkiRJLfT/dT4lSZJa558mOmtUJElS6/DQx0c/Df3TP/1T2mCSRsfzTFLgevDuu+/66EeSJLWXBRVJktRaFlQkSVJrWVCZonfeeSc9R4vurLPOKm677bbi73//e+VwuquvvjoNy/tD3fh0Vem95i/NJp5r0txkQWVINm/eXLz99tvFvffeW/znf/5ncdNNN3WG/CiG0+3cubOTWq88Ph39q1atSl15PoPOXxpXnmvS3GJBZUjOP//84vLLLy/uvvvudAF94403ii+++KIz9HTz5s3r9DXD+BdddFGa/9lnn506+kmrMuj8pXHiuSbNLRZURuCyyy5LnydOnEifeOaZZ4orrrgidQcPHuyk1hv1+NJs4LkmzX4WVEbg2LFj6fOcc85Jn6CKmPYh6LgT7GfU40uzgeeaNPtZUBmSL7/8Mr1s99xzzxX/63/9r2Lt2rXFkiVLOkN/Gk73t7/9rZNapBcBq9Lrxq8z6PjSuPJck+aYibsCNVC3qd5+++00LLpFixad2rx586lvvvmmcjjdxIU1DatK7zU+6M+/9xtfGiccv3U816S5hXPs3XffPWUT+g3xV0Q3lTRanmeSAtcDm9CXJEmtZkFFkiS1lgUVSZLUWhZUJElSa1lQGZL46+NMmenlB/6uOdm/bNK66HT+3XMqea3DPojYM+NuFNtnGDzXfjSV/eO51i6j2D6ziQWVIaGFyjvvvLPzbfrly3/11VfT29KPPvpo+j6dHnnkkdSVcVEhT3ySL/rJZ27r1q3Fn//859R///33j3wd8rxy4Z7qjw8XGlorDRdffHFah1GIbThZTdZ3KvtylDzXfjSV/eO51txcPtdag78nq79+m2rp0qWnnn322c636Zcvv9z+QxtEGxR8YtWqVafl8fjx42n4xx9/nL7Tv3PnztQ/HVjWVE8H2vTYsGFD6i+v77BNNb9Tmb7fvpyKJnnyXOut3/7xXBvMbD3XxgHrTjsq1qgMAaX7iZO/WLdu3Rmlb/rjTiXuXOh++9vfpjTk6YStD3znToFw9qibPl9+WV4iR4SxB5FnmXcsh5I/muanSj5/lrls2bI03a5du1JaINhb7s0330yRagn+xvi455570rbL58OyyTdVvnynH7RSyjDSyX+sF9spqofJF/OhY56RV5bBshDLZpvGMmN81G0zMOzmm2/ufDtdLCvu/GK7Ml++x3DU5T/Wke6tt95KaYh5RB7zeZGnWA+WzXpVrW+VfD7MO+bTb1+OkufaTya7fzzXftpudfn3XGsXCypD8Oc//7mYKN33PIg4AR5++OEUJ2TiTqZYsWJFOvE4uEkn7ZtvvknfOUkC8/yv//qv2ulRXj7jrly5MvX38vjjjxdXXXVVmt/vfve7FNitaX6auOWWW9IFkflM3IV2Un+0cOHClM+we/fulAf8WJD+MaYKsVRee+21tH6kE2J/z549KR+kHTp0KI3L9FxouAiT///9v/93+kH54IMPij/84Q9pnPDUU08Vy5cv73wr0jJYFmLZv/nNb1Le+X7rrbcW1113XUqv2maI6thrr702fX7//ffpM1/O559/Xhw4cKA4fPhwCmyXV+Gyv8hDbP9y/tnX//7v/56iBf/f//t/O1P1xjT/9m//lrYT+QXVy1Xr288g+3KUysd6Fc81zzXPtdnFgsoQcCJcf/31nW/VONk5YJ9//vni5z//ebeU/tVXX6VP0v75n/+5+Mc//lF89913KQ2rV6/uhpyvmh758imVc9Jdc8016Xsv27dvT+Myv8ceeyylNc1PE8ybizx5L+fn9ttvTxcG8sudB/1r1qzpDD3dggUL0kWHcfkM3FHxPaa/8cYbu/nnIkb8F+5M4kcGfGcYeeqFvDNv7mq4I2I7oGqbYe/evd07b+6IfvWrX53xg8qyyVNcYD/55JP0CbYPd7h1+Y+LNNGCmSf7oZ+YJub9/vvvp4vzZDTdl6PmuVat6f7xXPNcG0cWVKYoSupx4gROoPzuKE7gI0eOpBL3G2+8ke5IzjvvvJQed1XPPvtsN3R9rm768vK5wFJdGVFlw6effprGfe+99zopP568Tz75ZFouqGZsmp8muBv46KOPUt7379/fSf0R3xlOfuMulYtFFS5eDN+3b1+60whcYJgHd1t8clGP/LP9WS53VnXzrRJ3K8yPZXIX9Pbbb6d8omqbMQ0X2k2bNqU07uwYP7/Qg7yQp9hnF154YfrM1eU/ogOzX0l/6aWX0vdceR/n0/ADw8WtfJw2vTtrui9HyXOtXtP947n2E8+1MTJxcKiBuk3FS110YaI0nF62Y/ytW7emz4mDKg1jPL7T8ULUxAmY0hmPAGukT1wcal9yq5q+vHwwjC7QH9Mw/xjGC4GxXPIcy22anyr5sg8fPpzmE8HjmD5eCsvHY9kvvvhi6g/5smI7Mt7EBa07HWIY6xLy/DN+bOd8mci/s46x3+I768535sU8UbXNyDv9ufJLcCyHcWIZMb/yeKjLP9sjlks6/YH5853PfB9H3hiW78vy+lZhHjGfpvtyqnrlp3yse64Nvn9Ytuea59q4YN0NSjgAqiXHZVNFteDrr7+ePttoHPI4Fdyl8ffJiQtMuvuczes7zHUbp/MMnmszz3Nt9uJ6YFDCWYpnqlRJTvYZaRNcHHijPe9Ia4J8UZ3e5NnvuKJKeuKOaEbb+2jKfTl5nmszz3Nt9rNGpaFxu9Pj4Oe56SDPjKcLz15/+OGH9NLZbMZ68pJd0xcix9Gw9+W4nWfwXJt5nmuzU9SoWFBpaBwvoNK48TyTFKKg4qMfSZLUWhZUJElSa1lQGRH+M88zxek2U8udKtoeGDfjmGdJGjcWVKYof4s7f3v7iSeeOK3Bp+kSy6XAwl/ZRvlvhCq07lgltg8/7hEHI5BXmtEGjSgxfBT5pgAXf+9jmVMpaOR5Jq/keRQiv4Nqsn7EQMmP2RDHNPJ9EfuwX55GtT0iX+Vzbdw13a5V5440F1hQGRFatSy3TDgdYrmfffZZ+j7deaB1x154Y339+vXpb3aBVj9///vfp35ig9Aa5Sjyzb8yov0Btk8EC5uMPM/EQyHPbdJk/Z5++um+/5JgvVi/OlUFhjZuj3FTtV05Zzh35tK/PiRYUJki/pZIs9d00YwyF5m4o+QuKS46+V0Td0X00/GjzB0wiObJtKTHnWzMj/FIo4tpGT/ky83lywX9kSemj3nF8uLOjbQ8b3znLpzPOrylHWJdmAdNQtfhh43YIyyf2iDaQyivZyyTeUY+wfzJH2mRZ7rIM/lhGrp8O7AMlhXf8+kZF8yDvMc88zvZyHMZ47GNmI75RV65a455MZ98G/MZ887TmSZETUKo2s5ME03Jl9evCsPiOIj1J4/lZrtDHOMETQsEkMu3yyhVnWv5/mV/sU7RRb5Yt0iLfRvnShzPdHHM9DuWSGN4PGKtmn9dXviMNLY14830dpVaj78nq79BNhXNHudNHkc/n9H8MU00R7PVpNPMMk0n01xzoNllmnRmePQjnyfNNkd6vlw+o7lv+vNml/PpmS9NkSOaxs6bf2b+0QQ10+XNZ1eJ7cS65MtkvWKZzCPWnWXX5S3fFrFu+fh8J531z7cPeY51Jz+xLoyfTxv95emZlvwzTjSrzXJJQ1WeYxvSH9uI6WgGG6xvvj6Mx/zBtCwfbPtIJ9+xnPx4Qd12Znrml69fnchD5DPWP98/eR6aYvzYHoMa9JKU71+O09j2LJ9tgVhPxPnC93yfx7R8b3Is5fujav51ecmnY5qYXxNMx/yluYJzjib0rVEZASJn9qtS37hxY4pUyp0ZwbbmzZuXgnBFZEy6kydPdh/h8O5HRAelyp5w7Ex79OjRbnoslzsx7s6IcNoPNQN//OMf07wCeeCxAXkg1PqHH37YGVIUF1xwQaevN9Ylb0GRaKBh3bp1KTItd6I8QsnvJHMTPxjprpO71Lh7jUa1+M6dP+vINsq3z+LFi097obhfVTnTs61vuummtM48PiP/bEsi5W7ZsiUFTZs/f34aP89z3EHnjX3FNiI/l1xySepHvg2oxo9jhGknfsxSP9s+0ptU8Ze3M8fAoA2Psf7kM7Zfvo8jD7Ge/VRtj1GLPHKc7t69O+1DakrYlqg7X/Jjhii1RC6ezLFUNf+6vFSd901wrnDO1EU9lmYzCypDxgXlqquu6nwrioULFxbff/996o9P8NLrpZdemn5YrrzyyuLgwYOpCpgfRN6joOMCGFXcOS58O3bsSNPyA0s1dr5cLqa86xFV+FwMo/oa0U+Bhgssy2Fe9913X0qfuENM0VPJA1FJ6woSvRCtNH/ck/fzQ896UgghfHvVxZe8cbFnvVhXtmMgPy+88EK3YEYT2rwbE+v19ddfD/RDyfT8UMd2p/DGvmDZ4JMfnYceeih9z/NM3lhu/mPG8kF63QvVE3fY3ap9pqVQhjw9PsGPGz+kyPcl2/mtt97qfPvxUVielybK24/IsIF5kc56VolHR6Fqe0wXCmzbt2/v7sednQizVecL8vepOA/YxpM5lqrmX5eXqvO+Snm7cq5wznDuSHONBZUhO3ToULprCjfffHNxxx13pAsNd7/hhhtu6NZavPLKK6lwEHfSpNFxd1Z1keSHOsYBF9fycrn7jx8LCi7c5fEjxkU1fhTj7jDmtXnz5vSdi2rULjA+d5WDirDwLDPyGb766qv0o8APMYWruHvN5XkjDzm25TPPPJNCzoPpKUTEelDQePDBB9OwOmxrfowYn+nzbcqdLgVECiNsV9LYV4xTlWf6ab47sN/II9NRCKxCwYf8Mw4/QC+//PIZ6X/+859TGsgLhUbS+bGjQAO288qVK7vbmbxxzOTr1095++UFJNYrX9eyqncpyttjunD87927t7seHGOoOl9AfBiOLdIpFFPTV94WTY6lqvnX5aXqvK9StV2ZB+eONOd0HgWpj3HbVDz/5tl5G/GsnW62yN9RyPtng8kcR1PZBtN1nrX5/Kgz284bqR+uB76jMotRI8AddbkKeVh4HBL/RImuSXU/4/CogkcrswU1GnX/lGkDjoHyvmp6XLBe+TswTbR9e4yreMw3E4/VpJlkUMKG+GviuG2quKBN54uN/VB44rl/1UuJ44wf/nh0N5tMdr0mO904nmfTicdBPIrt9ThOmi24Hhg9eQBeQKXR8zyTFKKg4qMfSZLUWhZUJElSa1lQGYH4m2J8ltWlh3jhsRfeP+n3Ul28NNlvebwYy99bpdmofD7G37bpOO4JhBkija7892CmozG4eBG5PN86nl/S1FhQGVM0FFXXWFQdLrTliy9oK8IgcporaCzw17/+dWqIjbZpHnjggZROnCRePKcxNs6HaKcn0H4Nba/U8fySRsOCygjQAFT+ycWLOyruvPKakvzOjq7qIpdPSyNicTGkOW26aLKczxgvWlQtBzvj3za0hinNJeXz8e677y42bdqU+nN/+ctfumEn+MdSNHsPzjnCHBC9OJTn6/kljQj/+lF/U9lUBCSLBrDyIG9NApeRFoHLCEgWAQLzceqCGTZFfli+NNOm+5LEeRPBJssN1eUNwtHPOcU5N2hjdp5f0uRwPbDBt2lSF2iuLnBZjrS6AIGhVzDDfmYiiJw006iZpIaSoJOEIUAeTwoEjgS1oDwqmkzbJZ5f0tRZUJkGdYHm6gKX5SbuxvoGCGwazLDqGfpMBpGTZgLHO7GsiMNFYSXw2CZa1OWF2YinxI0CcXm4CeBx65133nnGeQTPL2k0bPCtoak0RMXFixfzuCOjeXFqRShQcAHbsmVL8e2336bxuGvj2TkXNYLLERyNAGdcKMO2bdtS7UyMQwGFiyF3blHbwt1bVTA88sHFmBqXHBfgmK80k6ajwTcKJ9RA8g+ewPkIzgXOS1DbWW5BmdoVbgyqzhXPL2m4osE3CyoNzeYWM72Qqi1m43nm+SVNThRUfPQjg8hJI+T5JU2NNSoNzeYaFUw2iJw0TLP1PPP8kgYXNSoWVBqa7QUVqQ08zySFKKj46EeSJLWWBRVJktRaFlQkSVJrWVCZBrxIR/sLEc0YtLkQ7TVMVdX8qzCceEDEAqqahiiyMXwUot2Kqoax1F++b2O/8ddXRIRe0tVb1bGfq0sfBto/in3WS7589u1k92ssq98yGR7bJb5H7DDO26lcE/L5DmpcrxVV25u2rkgf5fow/6plD0N+HE729yvOrUHzaEFlhtCIW9Nm7sGBkbei2U/dgUQU17r5PPXUUz2HT9Xnn3+ePlnvvBG7cUOBLppGn05XXHFFp+9M7DMj9LYfjTFG43K95PuafUsgxWEY5Ief44m8/vWvf03twMxE67rjfq3IPfzww2l7lhsRHJYo3DY5viYjPw4H/f2aKgsq04Dm7GnNMqIZUzJ97733UlPc9HPx4CCglMldDD+E4IJCGnGAaNmWAz0fl45xyvPHI488Uhw8eDD1V+mXp1h25ImLFD/ODAukkx/S4u6LLgpI9JN3PsEb3GAZLCvS8+nzAkDcgdDlywUlc7YDHXd8jBvjR75QtR4gL/n4kV43PssnjfWhQBdNo8e4dEyLGC/yRl75zvz4DCyfNMaP9eNiQ1q+j8G4iOXEfqsKqaDeqs6X2Bds948++iilYZBjk/0S4zKfOHb4HudBfjeZH8NMF/Mv72vGo0OeH7qqc43hcQ1pGuGZ4bFdeok8R97q8hPpjJu3IcM48YOab4vyuRTjlK8Vge+xvqjaT3EuxbnHsMg/52Wcr/l+45PvbL/8XKWf+eXjMp/8OpMvo6y8T+P6Q5evO/OI46lp/kN5WzHvmCfTsRymCywn0nstn+XFuHT0l3+/Ynq6yBefkRbbatLXLf6erP6GvanySK1EbyUyMoiyGlFb80it9DMO34n4SiRXxo3Ir030i/ya54lx86jNfM/zxnibN29O+cijNTMu6WDciA6N2IZMG/MpT8+0sU6kR9TZfD4gPxExmmmZdz6PXusBxo900iK9bvzIL+gnX3XRr/P1Zl0iHawTSI/8I7YB+c63B/OKdel3DDJe5HdcDfs8a4J9ke9f9gvbkn0wyLHJfo59xXhV5wHDY1nsq/wYYPo49vLtwHh05fzUnWv5MiaL6ckPnywz5p3nuS4/fF+0aFE3nWnjuGR+sY3yfHIuxTgxX9StC2mRp3I+Yj8xbZ7O+sT+K5/bkSf2aSyb8ZmWjv5Iy68PEc2e9JgHw6vynO/TuusPWD75aJr/kG+ruD6FWCe2TeSTcRmv6fLz8fJtVncdzMdn3FjfQbCdjJ7cEueee25x6NChVOrMa0EofVLypETNXd6aNWtSo1FEfCVG0MQFo5g/f35n7OE677zzUq0Myz569GhKiwiw3Clyl3TjjTem6j9K6RFZdvHixd07SVxwwQWdvmpMT2wUgsRR8j5y5EiKBo09e/YUf/zjH1OpvsqKFSvSZyw7Ps8///z0iar1CFVVsHXjE0Ay7gxoaZRt0Sv6daw3+yePuht3NL0iXufbU6PHvmD/hjiuBj022Z/RqBsRmfN4W3XnQSwL69evL3744YfOtzNN9VwbVDz64ZEtMchCvn2q8kP6JZdc0k1vki/OpajNYbp4TNxLzLfXfsrzx2dcL8lrIEp27DfO64kf29TP/njzzTdTRz/Yxzz2YDl5NPt83zd9tBPjvfXWW6fVZJHnEydOdPv75b/KggUL0npwvaIWJHDN5todxw3r23T5dequgxs3bkz54BzZtWtXMW/evJQ+GRZUWoAfxttvvz1Vo02UVDupRfHaa68VL7/8crrgMYwDhk/wycFB4MIqVLtR1TZZHHAsg2XnJx4FpxdeeKF4//3304lJ0EQuKrEsqpajQNME03NR44JIxw8AJw35Z/1ZPsu67777OlMMpm496tSNT0GRKNYM47EPmkS/rsM6UtCMaVlePIYYhqnu/7nkwgsvPO1xT/QPemxO3El2H1mUHx3U+fLLLzt9RfHSSy/1vJhP9VwD05L/YajLTzn9008/TZ9YuHBh8f3336f++ASF/2PHjqV+puMHsqm6/dQU+y22CT/gS5cuTf3r1q1L86KjH1yfq6LZ5/MYdPuy7vk2YttN9VrADS8FSq5XFBgC12yOWa7hkfepLr/uOvjEE08Ul156aVoejxt7vYrQjwWVGXLHHXekA4UDiXDzPO+j9EvpPvzsZz9L76ZQUqWjZEytCrUvfKdkHwdbWb93VPq59957U0mYPH311Ved1B9fqHrmmWdSvkDhicJS5JGT+sEHH0zD6nCycDFifKZnHWJ6St6cJFFIiPTNmzen74OqW486deOfddZZ3Ts2On6IuADs3bu3m8bdQ1Nx9xXTUnvT70dn69atKW9NLoTsfy5G6o/aD36c2LbsizDoscmNA+cxabzHlNdC1KEmgGONZRMNPeZdta8nc66V1b2jMhl1+Smn5+vAtY5rH+sctR6466670p0943OexQ1Yfq2oU7efmmK/xXWWmwduDsH5SMGKLs5NfoTjOkBBNGo28nn8+c9/TmlNse6vvPJKmpZ9zroPWgAt43eCgi/zpMCwaNGizpAi5ZNrOPsAk1l+/vtVdx284YYburVPzD+/CR+UTeg3NBNNe7ODKaEGfiy5sE0WBR3uNOJHUs3l+4K7Zi6GnKRtQr64K+XNfF6ku+aaa8ZuX8/EeTZTokp+WP/o0dy2dOP/dPra6/gL/9Lpa4brgbF+BjATF1B+CLlLAaV63k2JUvBkcGGkqpnnlBZWBsMPfzyPZl9Q3d/kUdJ0oZDCs2fez+GHj+/juI8tqEgKFlQGNBsuoDx/5SUpqkWnWrWodpkt+3YuFVSkYbJGRV5ApWngeSYpREHFl2klSVJrWVCRJEmtZUFFkiS1lgWVacA/MHjDn47+ccVfdPPPKlXryvjRRgUNOfEPmrmu1zbsp+4YYp5Tme9sxbHXtr+SS2rOgoomjYaYmrbCmEdipUXHQVtv1E+qoihH4SVvd0c/4tiLv/lLGj8WVKYBfxmloTU6+vmBpz2UuAOOH23ecA5RKwHGoRVEpqFGgnS+c6cYzXTzQxXfo/aC8WKaWAafsVzGi5gPsQw+qfHI70CZnjxHK7jxWdXKZXldq9BKYjQVzrIiv7HMyHfknXHoIs/kBYwf09KRXhf1NB+3qkanbruEPE8Mj3nEdiedZTCfWA6fsd3JW8yfPMU6MD1pgf4odOR5jnWK5ZIW80Y5cirHUmy3fNnML7Zz02NGkmYUf09Wf8PcVESSJAIpUSmJNhkRMfNl5JEniVQZ0SkZN6JTIqJiliNdMk5VpE0+8+ifVcvII2AyLhE3p4J5Mz8+iarKckH+IhIrIv/kKdL5znaJ9Yron3zP15d5Rj5ZFul00Z+Py3ixbULddgl5nsB8Gb+83VlH0sB2ZBiIMBrzjPyAcZkmxPSMk0egZfrYblXHYnk+jBPrw3Lz9WHZ5K2cd9ap6piZTsM8zwLbId82ksYD1wOjJ88QWgwdNAJyv2i8oD+G8VkVabNXNOFYBg2GTfyApTvq5557LrVkO1Xx6Ocvf/lLsW3btpTWK4Jwv8jIvSLJlqOe9oquGnptl1AX6TbPR10k1nJ02Hy/VSlHoCUQIjUdg4iWc0cRnXWcxHaoqkmT1H4WVGZAVL3zmUdA5pFIPBL47rvv0uew8UPMcvtFEyZ4GIWUiJJchbwO+niAZbKeTMePJwU1CjB0g0QQ7hVJthz1tEl01SbbpUmk21U1kVjzCKXkmbyDecQ6IPrJM49y4js/snHcDGoU0VnHCfuB7RhRryWNFwsqM6AuAjKRe3/xi18MfOc8iKbRhIkoS80DNQd1JhuJlSix//3f/90tAEWNSpMIwoG7/zxCK4WPiCTLPPKop4zbL7pqk+1SF+k2VxeJNY9QSk0ahTUwD/IX74pEwYY0Ck2RZ2pmOG4wSBRljCI66zih9ojtKWk82YR+Q3OxaW8eC1BYmUs/anV4yRQGkButUZxnvDRM4YzaNEnjwyb0VYs7de68b731VgspGntElV69enXnm6RxY41KQ3OxRkWabqOqUal7z0pSe1mjImlOsJAijTcLKpIkqbUsqEiSpNayoNJytAHBi62jaqwqb3gsmm4fFH97zT+lUaAdGY6xvN0ZSbOfBZWWO3jwYGrLZFSNVUXDY6gKdie1RbQvFK0XS5obLKhMEbUQeU0C/VEzQS0I3+miVdH46y9pXHjj7pDvNPjFZ2Dc559/PnXMi+8xP+ZBbUtdEL58OXzyHeXl8FY1osaGdMbNp8/zWbVO5WCFkiQNDX9PVn91m6ouqBwi+Bsi4F8EswOB3wg2B6aLcXJ5QDk+qwLnReA9OvqR5yMPjldeTr5eeX9dPqvWSRqWfpckAkPGcS1pduN6YFDCEaNZ9z/+8Y+pZiIQhI9m86mRePzxx1OwuhBBAevUBc4rB+FDXXA89FsO6vJZtU7SdLn99ttTzV3UEEqa/SyoTFFdUDkupK+99lqK10Jgv/vuuy+lr127tti3b19qzvvAgQMDPS6hgFIVOK8chA91wfGaqspn3TrlGMeXHTUqtDL71FNP1QaOlDT7WFCZorqgcnEhjfc5Nm/enL7v3LmzuOmmm1Ia4w8STr8ucB41JnkQPtQFx+slD3ZXlc+6dcpR4/PCCy90vknDRaF7/vz5nW+S5gKb0G/IJvSb4WXba665xtZANSn9zjMKyNu2bfP4kuYAm9DXSFhI0ajwbzYeKy5fvryTImkusEalIWtUpNHrdZ7x2AdG9JbmhqhRsaDSkAUVafQ8zySFKKj46EeSJLWWBRVJktRaFlQkSVJrWVCZBvxb4dFHH01dxAFqo2Hljb+QxjrXYRhttkS8IEmSqlhQUdeooifXtVb75JNPdiPiSpJUxYLKNDjnnHOKyy67LHX0g7eZqVWg9iFagwWf0fIr6fGXTManMTU6fvT5gY9xiKAM5kc63bJly7rjx3hRWKAWg++kMxzxSRp5oItxmF9My3daquUzz0dMB5rbj3UGrdUePHgw9UuSNBD+nqz+hr2pmF9EJz58+HCKCou6CMnl8RkGIhkTERmMG/MhkjLT8InNmzenqLN8JwJyns78kK9jkyjPzI/lMS/yEfNpgrwaBVdlwz7PJI0vrgdGT55hETvn2muvLb799tvUXxchGTH+ueeeWxw6dCjVZpRrKlasWJE+iT+Uf55//vnp87PPPitOnjzZjeNz5MiR4pNPPknDck2iPNMC7fXXX19s2bIlxRMyBoskadgsqMygeKzDoxsCCoICSlWE5BwFGcLdMx5RjgdB8+OXXHJJiopMR8TleESTaxLlOV6E5ZMgiA899FD6XsYjoap3VCRJ6seCygyiNoQaiwceeKC47777UlpdhOTczTffXNx5551pnDfeeKOT2gw1LBQ64r2SXbt2dd+b6Rc9uWzNmjWpZodxqH2pKszAd1QkSZNlE/oNDbtp77neVDgv/lKTYwBD5eb6eSHpJ1wPbEJfM2r//v2tbldGkjTzrFFpyDu94eL9nBMnTqTHTkbDVfA8kxSiRsWCSkNeQKXR8zyTFKKg4qMfSZLUWhZUJElSa1lQkSRJrWVBZYZELJ2IjyNJks5kQWWG0FDb+vXra1uflSRJFlQkSVKLWVCZQQQglCRJ9SyozACC+D3//PMpVo4kSapnQWUGEExww4YNxZtvvtlJkSRJVSyozJAFCxbURkeWJEk/sqAiSZJay4LKDLnwwguLt956KwXnkyRJ1QxK2NAogqXR2NvixYuLs88+u5MizW0GJZQUIiihBZWGvIBKo+d5JilEQcVHP5IkqbUsqEiSpNayoNIS77zzTvHoo4+mjv7pdvXVV5/2WYfhkdfpdNttt1VulzwvTddBkjQ+LKio0t///vdWRXZ++umni8svv7zzTZI0V1hQaYlzzjmnuOyyy1JHP3iR6P777081BBdffHH3r8wUIEgrpzM+tQukL1u2rHjuuedSK7j002w/KIDEtHRRGLnllltO+/z666+LK6+8MvXnGB55BcsMUSMElhfLYB1Qt2ymIZ95WhnDokaFebPeTLN///6UhvI6SJJmAf71o/5mYlOxzI8//jj179y5M3XRH+kvvvhiNz0ff+vWranD8ePHT61duzb1k/bss8+mftJXrVqV+icr3y55Hlne22+/nfrJ4zfffFO7bKbZsGFD6q8T82M+ixYtSp9gfrFMjT8vSZIC14N33333lDUqLXfRRRd1+n5C1OVHHnkkvbdx9OjRTuqPYnya6KfDkiVL0ic+/PDDYvfu3amGguk/+OCDzpDh4lHNa6+9lmo+yCNtxfRa9ooVKzp9vX322WfFJZdc0m175oILLkifkqTZyYLKGOJHnscfFAaqCjK9rF69uti+fXvx+uuvp27nzp2dIadr+o7KokWL0rj47rvv0ifI444dO4r333+/OHnyZHps03TZvSxfvrz4/PPPu8v89NNP02cZeY9xJEnjy4LKGLr33nu772gMGthw48aNxd69e1OtBl3UupTVvaNSRl5+8YtfpLzkeE8klgEKGE2X3Qs1KQ899FB3HnWFKWqcXnjhhc43SdK4smXahmwxc7zwAu8111zjP4XGjOeZpMD1wCb0B+AFdHrwiOjYsWOdbz/iH0aDFjiYj4WU8eN5JilYUBmQF1Bp9DzPJIUoqPiOiiRJai0LKpIkqbUsqEiSpNayoCJJklrLgkpLRBRguohpQ4yeXqqmqRLDo02TQZUbf2M+VcuL+U92OZIklVlQaTFaYB3UKFpkpdn6e+65p/NNkqTpY0GlJeqiJ4Pai2iJltqKqLGomoYWWQ8ePJj6QwyPqMLUsDAvOuYb0Y2RR2tmPNx5553Fe++9d1pNCVGLY7xXX301pRm9WJI0dLSjov5mYlPFMokavHTp0m7E4Dwy8WSUoxUTxZioy0Q0jojLYJlgWRF9GfRHFOTyMGkqvCRJClwPjJ48RnhfJSIGD0MerXj9+vXFDz/8kGLvTBRWUk1L1KbUMWqxJGk6WFCZZZq+o/Lll192+oripZdeKubNm5ceGVGAITIzAQSnwujFkqRhsKAyy1S9o1Ll5MmT3XdUrrrqquKiiy4q1qxZkwotvHvyxBNPFIsWLUrjEjOHQkf+jko/Ri+WJA2DsX4amk0xSOKxzt13350+R8HoxZoMY/1ICsb60UhZSJEkDYM1Kg15pyeNnueZpGCNiiRJaj0LKpIkqbUsqEiSpNayoNISTQMMDkO/YIe9RD4Rf1fu97dl21SRJE2WBZU5aDLBDpugMJJHWQ4ENCSwoSRJg7Kg0hJ1QQlpj4QuGlyLLgoEefptt92WGnADNR+kBfqjpob5gpqRCHTI/OiYnu+kRy0ILdWSThrBCEM5COHXX39dXHnllak/MC0BDQlsSH95mXm+8jzXra8kaY7h78nqbyY2FcskWCAIFhiBAAkeSCBB5OkELewVSDACGca61AUnxIsvvpjmzTwXLVrUDYjIsphuEPmyy8vMh+V5rltfzW5ekiQFrgcGJRwDNG2PDz/8sNi9e3eqXaDm5IMPPuimR4BAghYO+v5JHpyQefKYhmU8/vjjad48srnkkku6ARGHEYwwX2aduvWVJM0tFlTGxOrVq4vt27cXr7/+eup27tyZ0leuXJkeuYDHJfH+CUEG49EN8v46a9euLfbt25fmf+DAgfRIZ/ny5WmeMf2nn36aPqswzqCPaBYuXFh8//33qT8+Ube+zL/JukiSZgcLKmOCaMZ79+7tvrOxYMGClH7XXXcVe/bsSWlbtmzpBhKkJoZaEN4toUZi6dKlKb0XCgM33XRTtxZj8eLFaR4PPfRQd7m9CiJV76jgjjvuSIUe3lEpu/nmm9Nw3lv55JNPOqn162uwQ0maW2xCv6FxadqbH3VqIGYrgx3ObjahLynYhL7GkoUUSZpbrFFpyDs9afQ8zyQFa1QkSVLrWVCRJEmtZUFFkiS1lgUVSZLUWhZUWiKiEk82ejIvHU2XyCN/he4lYgRJkjRZFlQ0ZXUt0tIQ3ZNPPtn5JknS4CyotEQ5ejI//hFlmC4KAlFLQRqtx+ZoDI10hn/xxRcpLR+f4YEaGGpGSCc+0HPPPZeWR3+0IJvngXm8+uqrKT3y2CtqsiRJQ0E7KupvujcVkYSJMkzUYqIHHz58+IxIxkQYJsoxyF9EPiZCMR3jEU05xt+8eXOaD/LxmQ8dWFZEMGbcmH+e3hTjM53UlJckSYHrgdGTW4zWV6+//voUv2eiwFLMnz//jEjGO3bsSDUeISItB8Y/efJkN37PkSNHTounE+MTRydi6SxZsiR94txzzy0OHTqUlnHw4MFOajNRe5PPT5KkQVlQaal4/MLn7t27U2BAIhm/99573ejBFAZivCqMT8EmIhDzzgiPbZoiAODtt9+elkFk5TpV76hQiCI9HkFJkjQZFlRaas2aNak2g5qQe+65J70PQk3K008/ndLojh8/nsarw/hMF+Pv2rUrvVvSFJGN77zzzlSj8sYbb3RSz1T3jgrLP3HiROebJEmDM9ZPQ8YgGRyFo23bthlEUI15nkkKxvrRyK1cubLYv39/55skSYOzRqUh7/Qmh4bhrFFRU55nkoI1KpoWFlIkSVNhQUWSJLWWBRVJktRaFlQkSVJrWVBpsXKU4qqG1aYq5h2fVaoiOxMTqJ8Yd1Sa5F2SNN4sqIwRmsSn8bdRoiXZJq3Jfv75552+eldccUWnrxkKQr1a2pUkzT0WVFqsHKWYVmJpQp8aBCIZ59GT6SeNYfTTmiwRj+OHn9oYhkUXNTMx7/h88803i61bt6b+UI7sDP42BgoXeYRlviNi/cSy6CKKM+PnYQD4Tvfdd991h0U+Y3rQz7rxiXLeJUmzEO2oqL82bCoiKucRjPPIyKtWrUqfDH/22WdTf0RbBtGRI52IxjH+ZMX2IEozUZ5Dvp3yfpYX0ZqJyBzRmsvrg7q85uum2clLkqTA9cDoyWPu97//fYpqTK3J+vXrO6lFccEFF6RPYu0QlBAffvhhCm4YtRIffPBBSh+GFStWdPrqsTweW7H8xx9/POUnRC0JgRfRK6+xbpKkucGCyhhbt25d8dhjj6XghfQHggSCRyg8KsLq1auL7du3dyMp79y5M6WXNX1HZVBEX963b19a9oEDB9LjGvK3cOHCFGiRdB77oGleJUmznwWVMUIrr/H+Bqgxueqqq4pvv/22WLJkSUrD0aNH048+41EIwMaNG4u9e/emNLoFCxak9LKqd1Qmi/nwXgrvmFDYuOmmm7q1JIsXL075JwJ05ImOQlLTvEqSZj9j/TTU1hgk/Oj/8pe/7NZG8MM+LhGL+fvysWPHirvvvjt950VcCiWbNm1K3zX3GOtHUjDWzywQNRBRSBk3y5cvLz766KNuzcmXX3552iMsSZKsUWnIOz1p9DzPJAVrVCRJUutZUJEkSa1lQUWSJLWWBZWWoNE2XiiNpuUlSZIFldaIf+4QeFCSJP3IgookSWotCyotQnPykiTpJxZUWuT2229PMXBocl6SJFlQaZX9+/cXTz31VHHRRRd1UiRJmtssqLQIzeHPnz+/802SJFlQkSRJrWVBpSWIJEwbKgTqkyRJPzIoYUOjDpbGYx8sWbIkfUpzkUEJJYUISmhBpSEvoNLoeZ5JClFQ8dGPJElqLQsqkiSptSyoSJKk1rKgMkMuvvjiFDFZkiTVs6AyQ5588sliz549nW+SJKmKBRVJktRaFlRmyLx58zp9kiSpjgWVGRKBB++///70KUmSzmRBZYbQEi1N5u/YsSN9pwl9SZJ0OgsqM+TEiRPF2Wef3flWFNddd52FFUmSSiyotAA1K1dddZUBCSVJKrGgMkP2799frF69OvV/9913xcMPP3xaDYskSSoMStjUsIOl8Zjn8ssv73yTBIMSSgoGJZxhFlIkSerPgookSWotCyqSJKm1LKjMkL/97W8pMCGfkiSpmgWVGfLGG28U69ev77ZQK0mSzmRBRZIktZYFlRl03nnndfokSVIVCyoz4D//8z+L559/vlizZk0nRZIkVbGgMgN++9vfFhs2bCjefPPNTookSapiQWWGLFiwoPjqq6863yRJUhULKpIkqbUsqMyQCy+8sHjrrbeKL774opMiSZLKDErY0CiCpdHY2+LFi42aLHUYlFBSiKCEFlQa8gIqjZ7nmaQQBRUf/UiSpNayoCJJklrLgookSWotCyot8c477xSPPvpo6uifbldfffVpn3UYHnkdtqnMl39P9fsH1bJlyzp9p8u3+SjXT5I0OAsqqvT3v/89/StpXBw8eDB1vXz++eedPknSuLCg0hLnnHNOcdlll6WOfvDG8/3335/u8i+++OJujQEFCNLK6YxPTQDp1B4899xzqbl++okvBAogMS1dFEZuueWW0z6//vrr4sorr0z9OYZHXpEvk7zE/Ph+2223pU+wHgynoz+QL9LI5/79+zupP9VsgM+YTzn/DGOZxE6iy+ddRl5D5IflfvTRR53UM9dPkjTD+Huy+puJTcUyP/7449S/c+fO1EV/pL/44ovd9Hz8rVu3pg7Hjx8/tXbt2tRP2rPPPpv6SV+1alXqn6x8mYcPHz61YcOG1M/yYjlvv/12d/nYvHlzyvc333xzatGiRekTjB/rwvhMh3x68h/jMN3SpUtTP2mRXif2IfnM80OeY1maWTNxnklqJ64H77777ilrVFruoosu6vT95LzzziseeeSRVGNx9OjRTuqPYnxiCdFhyZIl6RMffvhhsXv37lQbwfQffPBBZ8jkxTKvvfba4ttvv039uOCCC9LnsWPHitWrV6d+nH/++SnO0WeffVZccskl3QbvYvxeyH/UdjDdZB7nfPLJJ6flZ8WKFZ0+SVLbWFAZQxQweGTy9NNPVxZkeuEHevv27cXrr7+eup07d3aGnG6Qd1Ti0dOrr75aLFy4MPXnCBeQP1758ssvU2Fr+fLlqaDBsvDpp5+mTzCf77//PvXHJ1auXJkKPmC6uhdkeynnJ+/PxaMnSdLMsaAyhu69997u+xWDRmDeuHFjsXfv3u47HlHrUlb3jkoVXmJlXg888EBx3333dVJ/Qk3L0qVLu++oLFq0KOWdGpGHHnqom5e8YHTzzTcXd9xxRxqPGpBw1113pRhJjH/TTTel6bFu3bq+76iEPD/Mp851111nYUWSZphN6DfEi5huqjPN1u1Cbc2WLVuKP/3pT8ZimkaeZ5IC1wNj/QzAC2i1Nm4XHouVa5qoccnf1eknHmcNMo2mzvNMUrCgMiAvoNLoeZ5JClFQ8R0VSZLUWhZUJElSa1lQkSRJrWVBRZIktZYFlZagvQ5i5uSRfPs1ZlY1TZUY3qvNkF7Kjb8xn6rlxfwnuxxJksosqLTYZJqHp0ARLb0OC03d33PPPZ1vkiRNHwsqLVEXPRnUXkRLtNRWRI1F1TTEAKKl2FwMj8jI1LAwLzrmm7fmSj/zJ53xcOeddxbvvffeaTUlRDqO8Wg6H+UIzJIkTRntqKi/mdhUsUwi+xIlOKIM55GFJ4MowxHlGERQJgIy0ZQj4jIiMnEevRj010VGlqbCS5KkwPXA6MljhPdVhtmUex4xeP369cUPP/yQ4v5MFFZSTUvUptRpEulYkqSpsqAyyzR9R4UIxuGll14q5s2blx4ZUYChCXqCF07FKN6VkSTNPRZUZpmqd1SqnDx5svuOylVXXVVcdNFFxZo1a1KhhXdPnnjiiRTlGJdffnkqdOTvqPRDPl544YXON0mSJsdYPw3Nphgk8Vjn7rvvTp+jwEu511xzTSrkSE0Z60dSMNaPRspCiiRpGKxRacg7PWn0PM8kBWtUJElS61lQkSRJrWVBRZIktZYFlZZoGmBwGPoFO+wl8on4u3K/vy3bpookabIsqMxBkwl22ASFkTzKciCgIYENJUkalAWVlqgLSkh7JHTR4Fp0USDI02+77bbUgBuo+SAt0B81NcwX1IxEoEPmR8f0fCc9akFoqZZ00ghGGMpBCL/++uviyiuvTP2BaQloSGBD+svLzPOV57lufSVJcwx/T1Z/M7GpWCbBAkGwwAgESPBAAgkiTydoYa9AghHIMNalLjghXnzxxTRv5rlo0aJuQESWxXSDyJddXmY+LM9z3fpqdvOSJClwPTAo4RigaXt8+OGHxe7du1PtAjUnH3zwQTc9AgQStHDQ90/y4ITMk8c0LOPxxx9P8+aRzSWXXNINiDiMYIT5MuvUra8kaW6xoDImVq9eXWzfvr14/fXXU7dz586UvnLlyvTIBTwuifdPCDIYj26Q99dZu3ZtsW/fvjT/AwcOpEc6y5cvT/OM6T/99NP0WYVxBn1Es3DhwuL7779P/fGJuvVl/k3WRZI0O1hQGRNEM967d2/3nY0FCxak9LvuuqvYs2dPStuyZUs3kCA1MdSC8G4JNRJLly5N6b1QGLjpppu6tRiLFy9O83jooYe6y+1VEKl6RwV33HFHKvTwjkrZzTffnIbz3sonn3zSSa1fX4MdStLcYhP6DY1L0978qFMDMVsZ7HB2swl9ScEm9DWWLKRI0txijUpD3ulJo+d5JilYoyJJklrPgookSWotCyqSJKm1LKhIkqTWsqDSEhGVeLLRk3npaLpEHvkrdC8RI0iSpMmyoKIpq2uRlobonnzyyc43SZIGZ0GlJcrRk/nxjyjDdFEQiFoK0mg9NkdjaKQz/Isvvkhp+fgMD9TAUDNCOvGBnnvuubQ8+qMF2TwPzOPVV19N6ZHHXlGTJUkaCtpRUX/TvamIJEyUYaIWEz348OHDZ0QyJsIwUY5B/iLyMRGK6RiPaMox/ubNm9N8kI/PfOjAsiKCMePG/PP0phif6aSmvCRJClwPjJ7cYrS+ev3116f4PRMFlmL+/PlnRDLesWNHqvEIEWk5MP7Jkye78XuOHDlyWjydGJ84OhFLZ8mSJekT5557bnHo0KG0jIMHD3ZSm4nam3x+kiQNyoJKS8XjFz53796dAgMSyfi9997rRg+mMBDjVWF8CjYRgZh3Rnhs0xQBAG+//fa0DCIr16l6R4VCFOnxCEqSpMmwoNJSa9asSbUZ1ITcc8896X0QalKefvrplEZ3/PjxNF4dxme6GH/Xrl3p3ZKmiGx85513phqVN954o5N6prp3VFj+iRMnOt8kSRqcsX4aMgbJ4Cgcbdu2zSCCaszzTFIw1o9GbuXKlcX+/fs73yRJGpw1Kg15pzc5NAxnjYqa8jyTFKxR0bSwkCJJmgoLKpIkqbUsqEiSpNayoCJJklrLgkqLlaMUVzWsNlUx7/isUhXZmZhA/cS4o9Ik75Kk8WZBZYzQJD6Nv40SLck2aU32888/7/TVu+KKKzp9zVAQ6tXSriRp7rGg0mLlKMW0EksT+tQgEMk4j55MP2kMo5/WZIl4HD/81MYwLLqomYl5x+ebb75ZbN26NfWHcmRn8LcxULjIIyzzHRHrJ5ZFF1GcGT8PA8B3uu+++647LPIZ04N+1o1PlPMuSZqFaEdF/bVhUxFROY9gnEdGXrVqVfpk+LPPPpv6I9oyiI4c6UQ0jvEnK7YHUZqJ8hzy7ZT3s7yI1kxE5ojWXF4f1OU1XzfNTl6SJAWuB0ZPHnO///3vU1Rjak3Wr1/fSS2KCy64IH0Sa4eghPjwww9TcMOolfjggw9S+jCsWLGi01eP5fHYiuU//vjjKT8hakkIvIheeY11kyTNDRZUxti6deuKxx57LAUvpD8QJBA8QuFREVavXl1s3769G0l5586dKb2s6TsqgyL68r59+9KyDxw4kB7XkL+FCxemQIuk89gHTfMqSZr9LKiMEVp5jfc3QI3JVVddVXz77bfFkiVLUhqOHj2afvQZj0IANm7cWOzduzel0S1YsCCll1W9ozJZzIf3UnjHhMLGTTfd1K0lWbx4cco/EaAjT3QUkprmVZI0+xnrp6G2xiDhR/+Xv/xltzaCH/ZxiVjM35ePHTtW3H333ek7L+JSKNm0aVP6rrnHWD+SgrF+ZoGogYhCyrhZvnx58dFHH3VrTr788svTHmFJkmSNSkPe6Umj53kmKVijIkmSWs+CiiRJai0LKpIkqbUsqLQEjbbxQmk0LS9JkiyotEb8c4fAg5Ik6UcWVCRJUmtZUGkRmpOXJEk/saDSIrfffnuKgUOT85IkyYJKq+zfv7946qmniosuuqiTIknS3GZBpUVoDn/+/Pmdb5IkyYKKJElqLQsqLUEkYdpQIVCfJEn6kUEJGxp1sDQe+2DJkiXpU5qLDEooKURQQgsqDXkBlUbP80xSiIKKj34kSVJrWVCRJEmtZUFFkiS1lgWVGXLxxReniMmSJKmeBZUZ8uSTTxZ79uzpfJMkSVUsqEiSpNayoDJD5s2b1+mTJEl1LKjMkAg8eP/996dPSZJ0JgsqM4SWaGkyf8eOHZ0USZJUZkFlhpw4caI4++yzO98kSVIVCyqSJKm1LKjMkP379xerV6/ufJMkSVUMStjQsIOlvfPOO8Xll1/e+SYJBiWUFAxKOMMspEiS1J8FFUmS1FoWVCRJUmtZUJkGBB8kCOGjjz7aSZEkSU1YUJkGv/3tb1MQQkmSNBgLKpIkqbUsqEiSpNayoCJJklrLgsoM+Nvf/pYCEkqSpN4sqMyARx55pHjhhRc63yRJUh0LKjNg6dKlxWWXXdb5JkmS6lhQmQbE9SEIYbjmmmtsQl+SpAYMStjQVIKlffHFF8WJEyeKc845p1iyZEknVVKZQQklhQhKaEGlIS+g0uh5nkkKUVDx0Y8kSWotCyqSJKm1LKhIkqTWsqAyDYiefPXVV9vImyRJA7KgMg2InozPPvssfUqSpGYsqEiSpNayoDJNFi5c2OmTJElNWVCZJrfffntxyy23pICEkiSpGQsq04Qm9J966qnioosu6qRIkqR+LKhME5rRnz9/fuebJElqwoKKJElqLQsq04DoybShsnz58k6KJElqwqCEDU0lWBqPfWDkZKk3gxJKChGU0IJKQ15ApdHzPJMUoqDiox9JktRaFlQkSVJrWVCRJEmtZUFlBC6++OIUMVmSJE2NBZURePLJJ4s9e/Z0vkmSpMmyoCJJklrLgsoIzJs3r9MnSZKmwoLKCETgwfvvvz99SpKkybGgMgK0REuT+Tt27OikSJKkybCgMgInTpwozj777M43SZI0WRZUJElSa1lQGYH9+/cXq1ev7nyTJEmT9U8TnRHAJElS6xCk1OjJDRnVVRo9zzNJwejJkiSp9SyoSJKk1rKgMgbeeeed1C6LpNHyXJPap7agwrOhq6++utsNIxow88Gjjz6auqka1nym6m9/+1vx29/+Nm2z2G6kgQtfpOfDyXc5na6M+VxxxRXd/mXLllWON6jIF595/1TFekmj4Ln2E881zRU9a1Ref/31bsfFQWfi7us3v/lNcfz48eLw4cOpI+3KK6887c5s8+bNxdtvv526nTt3FuvWrUv9pCOGlT333HPFhg0bUgNyb7zxRlqOLxtqLvJck+amgR79cDHgDiW6uJPh8+KLL05pFGjiopGnl2s+PvroozQuw/OYOPQzPukxTXm5VXcjt91221BqfQb15ptvpgva9u3bi2uvvTZ1FOz+67/+qzPGmQhauGTJkuLyyy8vzj///JRGP10Z63TzzTenbXHPPfektLiLYlvRT8f6B6Y566yzUjrbiyb9wXaLu8Rdu3altBxpDGOc2Lf5NMwztjH7JO5sSa+Ka8SFn2ExL2kqPNc81zRHTdwxVGLQ2rVrux22bt166tlnn039ExeMU6tWrUr9fH788cep/8UXX0zjgfSJO5fUz/CYz8RdzqmJO5fUj5ieeca0WLp0afokjWnwzTffdNNJo5u4U0rLHaW6TcXy82H5NmOdWH+G512sC8rT5ybuGE8tWrSo8+30cVlf+lkG24Tx2DdsQ9JjP5GP2NZsN/oZn23KeOQv8sj8GcY0sW8ZL/YJnwwD25xlsnyWFXmJPJK/GC41xbFTp3yuxHlG57nmuabZh+P73XffPdX40Q8+/PDDYvfu3enOgbuKDz74IKXzyR0I6Y8//ngaL9LjziUiCocVK1Z0+opi/fr1xQ8//FAsWLAg3TFx95DXwDC/yy67LPVTLfv555+nfrz11lvpLoZpZsJ5552XPl999dX0SYu03MFRdcw6hYmLCle91N19992d1N727t1bu15fffVV+vz5z39e/PM//3Pxj3/8o/juu+9SnCH8+7//e7oDIx/ffvttSmPbst3Zhtdcc01Ky7GNGcY6xL5lnxw4cCDtWz4D2/ySSy5J+3XTpk1pvfJ9vG3btuKqq646Y79Lk+W55rmmuWmgRz+cVFS7RuGFCwImSv7Fvn37Uhon2C233JLSJ+4UulWR5SpJHv2El156KVXRHjx4MJ3cVHlu3LixM7QoVq5cWRw7diz1Uw1K9WggTywvr46dTmvWrCkm7p6KBx54IF1AuQBxYZm4wymWL1/eGasovvzyy1S1S9ekepb1ZFtyYaoSF+2Ju6hi4s6smLjTSss+55xzUjrfuaBN3G119wf5ZLuTP5r5L2Mbs1wKf+w7UACduDNM+zfSwA8EBUbWhf3FhTpfr5dffrk4cuRIqpKWhsFzzXNNc9TECVapahBVlVRnUiVJRzUkqHKMNDqqNyN94oRLaXlVJlWWzIeO4VHdSVVqPj79iCrS6KjqBPOhA2lUkY5Kj02V1pN1YRw68kgaqqqjGR7IP2llrA/Vx7nyuGwjqnxJY1vFMmNa0vmM7RXV23RsK4bn1dGxDkwT82IZkRb7HnEsMIz5xT7M88hy6We5UhNx7NTxXPNc09zBMc2jH5vQb4i7mJncVEs3/k+nbzwdf+FfOn1SvZk+z+C5JrUD1wOa0Leg0lAbLqDSbOd5JilYUBnQTF9AvcvTXNCGgornmtQOFlQG5J2eNHqeZ5JCFFQG+tePJEnSdLKgMiL89ZC/JkqSpMmzoDJFtNVA43R09IcnnniieO+991I/DTjRTVXMg+UMY35184m0fsug7Zqq5rylmVJ3Po67putF+yqEH2nSfow0LiyojAgNMNHSZVxUonXfcUTNUFXt0DPPPFPs2LGj803SdKoqsNA6Li1920qtZhMLKlNE65S0Upm3VMkFhLsa3HnnnalmJWonqIGIQI150DG+Rxd3Q3k6tRd8D/STFsNjGPOMNLqQL7eqBUumi9Z9o3XN+CQY3NatW1O/1GZV5yMv5HH809Wda/l5E7WEcR7XnWdxPuXp9Mf4DI/m/qvmj/y8ZByQpxiXmx3mXbVe1113nTUnmhv414/6G2RT0RIlLVCCz2hhklYjaWEy0AIlrU7S0mS08hut84J0Wp8E4zE+mGdMi3z6fP6RD5abt9DJ/FlO5I1WLSfTqm/kRxqWUVySmGfe+mvVucZ5EOcs5wPnVt15FudipOfnD/OJ+cf5har5110POOfjvGeayHsTTMf8pdmAc5eWaa1RGYH333+/Moz8J598kgKQxd3SyZMni88++6w22GM5GGMe44h+0kDQM4KkYeJil+7CuFOLxzUsl5hIgfwRPwTcrRHU7MEHH0zfm+Iu8NZbb+18k9otHoXUnWtPP/108dprr6Xj+ujRo91zq+o845zN0xcvXnzao9ELLrig0/eTqvnXXQ+Ic0aAQsbdtWtXioPWBDUyzz//fIqJJM0mFlSGjIsFkUyrUOiYuIPqBnXk4kU1bl2wR4Ixfvrpp6mfAkUeNZr+qG7mAsiFjWpgLsTkgXdHFi5cmIZfeOGFKfhZ4AIYF1YumAQ1u+mmm7rzK6t6R4V8clGUxknduUahhXOGQjwFhnj/Iz/n4jwjAGJ+/n399dfdgn+dqvnXXQ94Ef/SSy9N41555ZUpWGuV8jsq3KAwPx7VSrOJBZUhO3To0GmRn3NRyxJ3UNxZcYFjfMLMRzoXQ9x1113FK6+8ktK2bNmSosQG+v/whz+kYRRO1q1b171rJI0LY7j22mtToYcCCsMoSOUXVqbjgl1XWKl6R4UCDqHspXFSd67xPlakIaIxc55xLpEe5xnH/kMPPdQdf8+ePX1rJKvmX3c9uOGGG1IkZdI4/9euXZvGK6t6R4X1+eqrrzrfpNnBlmkbssXMM7lNNGxtOqaosaBAQm3HuODvy7j77rvTpzTObJlWU7Zq1aruPxUkzbx4zFt+VCuNM2tUGrL24Ew8JuL5vG02aFg8z6aOx0G84Bsv+0rjKmpULKg05AVUGj3PM0khCio++pEkSa1lQUWSJLWWBRVJktRaFlRGINpKiM9B5I2r8fdII6ZKU1M+H3kJnH46zpuIx4NIK59PVekxv/iswz/jmE7S5FhQmWYUOnr9pZdWKOtaogQXyXKjbEZMlZp74YUXil//+tepfZQDBw4UDzzwQEonWCcNrtEi7JNPPln87ne/65lexnlZdbNAg3BMJ2lyLKiMQDn6MHF3aN6ajlghfHJB4y6LuzG+x0WOZunpmKYqYuojjzzSsyAj6XTl85HG0DZt2pT6c3/5y1+KG2+8MfXTamzEAapLL8+Xv+rT5L2kIePvyepvKpsqIqgiIg4TtTWiohLtlMisIPop3SAY34ipmg2m+5JE9GKiGCOPcIyqyMfIz+cmGJ9IzZIGw/XA6MnTKOKF0CQ3uCuLeB6PP/54iiMyGTxGMmKqNBhqMKnJvP7661MsLEQQz8AjVdSlN0HNKPLYWpIGY0FlxLggcqEjMirPxLk4YuIuq9i3b1/3OXlUH/dTfkeF+RkxVWqO84cAnDfffHP3fASPbfbv35/6eXmdEBGoSy+Lx7c5IiaTbpP20uTZMm1DU2kxk3dR8uasKbT88MMPqUYlbNu2LT3/5oJGdGMKH1zkyriwcuHMn7EbiEyzxXS0TMs5RI3msmXLOilFN/AgNZxxI7B79+7TIpJXpecopHBunjx5spPyI6aN81tSc9EyrQWVhiZ7AeUO7NixY91CBIUKQrFXvcw3WRZUNFtMR0FlullQkSYnCio++hmx5cuXFx999FG6WNF9+eWXxbp16zpDh8OIqVJ7rVy5svvoSNLgrFFpqO13elQ7GzFV42421qiAmlVrVKTBRI2KBZWGZusFVGoTzzNJIQoqPvqRJEmtZUFFkiS1lgWVacDzaf6ZQ0c/yu2hTEXV/KswnL9K00hc1TQEZ4vhUxHzBi8Q98pTU8Oaz2zRK3glx1a8vK0zlbdXWV36MLDPmuyXfPmcj+RpMmJZ/ZbJ8Ngu+fdck7wPut1oEI95ltufqZLniUcCZeSP61c0sjcVsZ5xnEzVsOYTev1+TPZ4ie07zHwOiwWVGUIbKp999lnnW38cmHnjVP3UHcgER6ubz1NPPdVzuM406H4Zll7BK2njI9oFUbvQQm2TfXPFFVd0+n5s92VYTQ9wTWhSKKjSJO95vpt4+OGH0zyHEVCV84HgrFXtT802vX4/hnm8tIUFlWlQDi5Iife9994r7rzzztTPxYODixItdwQRdp4LCmk0v0/EVk7qfFw6xplM8MJ+eWK+5IVlsLwo9NSlMw3ppJX/isl30hnOeKhbZ9Jj3ejKd2gxvHyx5Q6LOwGG0ZAXEW+ZP/39lsl0eXrcUdSNX7VfwJ0c4zEslkn+SWPcGBbLI2+xHnXblfWKu06Gc9fIuP2CV6pe1faKfce2pzmBEMc12z+/U499Qhf7urwPo8aL7xFCg+OBT8RxQMd0Mf/4ZDzmyXhxTOb5oYvjhP5YBsPjWG0aOJHhsV3q5HknH5GHunyHOGfpyFtsr7rx6c/Hj+3YC9Pk50S+zHz+fMb2y8+zPD22deB4KO8jpiON8Ulvev0C+ym2Qcj3aywDVec/4+bX6rjGkB++1x0v+XxjnnSMgybHwIzhXz/qb9ibKg90RlC0CCpI8LIIekawwRgnAg/ynUBq33zzTRo3Aqo1kc+vSp6nuqCJVenkZdGiRekTzz77bDewIvPkO2I81K0z84tpGT+CODKcafiM5efYP5HOPCK/+bx7bWe2aYh9Pch+Ydx8HuSb/DNe9IPtx7hguljXuu2drxfjxvh5f53I7ziZiUtSHFeB/ch+i+Mv9t3mzZu7+450jgnE8c0+jOOC8RgfzDvGYXjdcZcfA/l2iH1dzg/HSb9lTBbTx7qEfL75cPIRearaf+VjNd92dePn50JMmy+z33I4f2J7sCy2LerOs3zfMTzWk/lV7SP2L9MjvzYwv8hD7C9E3thfMV0o79f8OGM9I78xD+Tbgs98+hiv13zzfRDbqY1Yf4MStsS5555bHDp0KJWI81oQSraUcimBU6on8CBtMRBIbcuWLamZ/fnz53fGHq66oIlV6VRBXnLJJd02XC644IL0GeI7wxkPdevM/KJEz/iff/556gePplavXl1bTRzptPxLhzwYXN0ysWLFik7fTwbZL5988knaNnGXQjPqUTVLzUlsGz5jn9HuTegVpHIY1eKqx77juApxLLD/2I/EBWK/HDlyJI2LPXv2FH/84x/T3WpgH0ZbKQQ6JFRGKJ8TIT/ueGxBaI065Cc/ljh+8tqGumWMAuv22muvpfU/evRoN09VaIwyv0tnHU6cONH5dqbzzjsv1QhzfjHvyeD8IdQB+435sG9Qd57l+658vlXto8lcv6JRTqbJ9TrO0OT8z4+LMOjx22YWVFqAk/L2229PVXATJeVOapEuBC+//HK6KDCMAzGq6fjkRIxozGVUZUa15mSQj6qgiVXptL7LCRnL+/TTT9NniO8Mp8oSdetMK56EHADjcwIGmiGnZd/YBoOqW2adQfYLFycKjmwXOoYN8himbnsPAxfHJtXncxUtO+ePe6Kf45qCdexTLu7sZ84tjgH28fvvv1/cd999afyJu+1uVT+PAviB7IfjObz00kvFvHnzOt/OVD7PeIwzaFRmpo3HIFPBuvEuCOvPj2HVI47AOZ1fE1iHXucG8+a8YvtOtpBOwXP79u3dfbdz586UXneese9iu5S3T35sxD6azPWLPMUNTq7uOJuqQY/fHOPEcdYGFlRmyB133JEOWg50orjyvJGSdh5C/mc/+1l6B4LSMB3PHbl7pyTPd+4M6n7QOJHKtQaD4MSOkjgnVtz9V6XzQ02BKfJZPtH5zroxjJMDdet81113pTsPxmU55YIY03OXxXYbVN0y6wyyX+JuLNLI4yA/InXbuw5hGOJ5fD9E1i5fHPUTaj+WLl2a7i7Z/oHjmvMr9umuXbvSD2z8eEb65s2b03duHDheSKP2r0k8L37kOb5YNsFIY95bt25Nafm5VD7P+OF58MEHO0ObqXtHpUqsC135fMu3C/hRRFW+OadfeeWVNC7DWIde58a9996bxmO7fPXVV53Un66ZzDuWU2fjxo3F3r17u3mMGta684x9F+f0n//855SWK++jyV6/GP+Xv/zlaedj3XHWS/77UWfQ4zfH78cLL7zQ+TbzbJm2IV5qmu5NxUFESTicddZZ6cI2WfygUqK2Ke+pGfZ+GZXIJ3f3VPmOwz8BZuI8mynxwqPBRNU23ABdc801M/5bwfXAlmlbLi8NUxKP2oip4B84vapp1d8o9ssw8ZgnfgTBOzH+GEpqqg2FlJw1Kg3Nhjs9fsB4iY3qv0GfbWt88GyZF+l4lj7ZZ/wzZS7VqEjqLWpULKg05AVUGj3PM0khCio++pEkSa1lQUWSJLWWBRVJktRaFlSmAf+y4V8YdOP8jxv+5ZJ/VqlaV8anDQI+aQCpX9sf/RqlyhtRGrVYF5D/qv1Heq9t0lTMg2UMY3518yEt9tNcFOueH6PDwnE72Yayysd97Lt+xwJtcjRpT0caVxZUNGn9ChQ5ojLTpsdf//rX1CJkr+n4xwqN2dXJm6WeafFDl7erormL45bjdzL6Hfd1LQw/88wzcyJisOYuCyrTgL8D09AaHf38wNP+BndKdPGjzRvOoXwnz10T01CbQDrfqaWIFg75wYzvUXvBeDFNLIPPWC7jxYUvlsEnd2d5i4dMT55pPwTxWdXKZXldqyxatKjbVDjLivzGMmnxkab2SUOeN8R2Ik+kRce6kZbXuDBPtkPVuLl8n5CfiIbaTzmvVetTt+w8nfXje6A/1pkuhjF/vrOMOD6QL5fI0WXkhfmB/Rf7aS6qOkbrtl+k09GPONfycxhs4zyqbd1+j/OSNOYT+7F8LJXPN1oYpkVWac7h78nqb5ibimiXROQkqiURLPNImWFnKVJmRLhkXCJ4BqJgohxBk3FivnkEUj7rIpNWRRtlXKJuTgXzZn58Ej05ooeSvzwyaeSfdWHckOcNsZ2IVFqVZ/IbkUWZlmF14wbyUhUNtbwfYr4hz2vd+tQtm/SYN+PV7cuYPtYjxPgsN/IA5s+4kTfWa6r7cLrMxCWp3/YLbEO2ZXn/MA5p5f66/c4+z4+TWOfy8pqK40CabTg3jJ48Q2jxb9AIyBEZlXGJ4RDy2gP6YxifVVF6e0UmjWXQGNzExS/dAXJ3eeONN6b0qYhHP3/5y19ScEHQrDtRS+OOk2bo66rNqyLD1kVIJb+0wBu1RaxP3bihV2TlpurWp27Z5UirdfuSViK/++67FK9k4gcv5TGvTWG5efRfAo1Fg37c1bO9B40JM5fUbT+Cy+Xp559/fjf2TL5/6vQ65qqidU8GNTK33npr55s0O1lQmQHxSIBPLmQRuIpHIlHFzw/TKHDBZLk0+96r1VKCblFI4aJd15QyeS0/QumHZbKeTMePNAU1CjB05KnucVEVfkSqIqSSX/JNUK2oNq8bN9RFQx1E3frULTuPKsu2zN+9yaPkEumUQgoFKH7gyCNB1wLRfwmEFvjxikIaP6ZEeiZAWsxPp6vbfuWoykQ6pqDfVL9jblDkKfZrYL4Ep5RmMwsqM6AuAjJRQ3/xi1+kO+ZRqYtMWkZE2SNHjhTr16/vpJxpkEisOSKQ/vd//3e3ABQ1EBFxmHR+VEnrpS5CKoiEykuGsS17jYu6aKgRpZjCQR69tUrd+tQtO48qS+0aBbhA/x/+8Ic0jDtz8sFxQ5h50p544onu+OwrCj3sV4axfaNGBRQO+ZG0sFKtbvvlUZXp2N79zs08qm2/Y66s33Ff9Y4KBVFq2aTZzCb0G5qLTXtTvU1hJf/R0+mWbvyfTt94OP7Cv3T62skm9AfnNtNsxbFtrJ8BzKWLATUG1EhQm2LUXU0nf3QHR23Pf/zHf4y0JlaaCRZUBuQFVFWsURkuz7PB8biIx7DjFilb6seCyoC8gEqj53kmKURBxZdpJUlSa1lQkSRJrWVBRZLmGN5rKbfJIrWVBZUR4C182lGQNB5o6ZcYPnVtmEwFz9lBwWCy888be5vKfALt8BBXiOtU3srxVLENmV9szzrRXozXSTVhQWUEaC5+z549nW+S9GMoB1qSnQxaJY7QDlOZT6B9JP7OTDfqJgho7qDc0GCEyvAv1WrCgoqkOS8iKUcr0fyw8iPKXT81pBFNm5qC+IEnvRxRmRAVTENX/nHOa2yiRiG6qH3gRz3SmB+1J6TROjIdy6ubT16TG/mM9LzWJPKKqP0A08a8Yr3q5h/ziGXQoSoyNeEpJhs/S4IFlRGYN29ep0/SOKD5emoq+OHFX//61xQ4lJqLAwcOFE899VRKD/xgE0+KmokIqfCPf/wjBX9kGprk7/XjzKMXYgEx7r59+7oFJMI3EO6AdBpxYx60j0LgQbodO3ak8QLxrGI+5IcAlPGICJFOqI5AwM6qQKPUAjM90/zsZz9LhZRe82d9//SnP6VhoPDCNmRbxvYE22rTpk2pPxfDpX4sqIxANLwUdyWSxkuvaNp55GNab/7hhx9Sf1XE6zrlyNkRkLJXdPMqBFOM+YA8nDhxIvXXRWimwBFxqXIE0SQAJjUlLJt89Zp/kwjSVSjYUTAbRlR2zQ0WVEaAOw7uRsp3P5LGQ69o2kRRDgSJjBrUPPp1RLyuQ43LsWPHUj/XCn700TS6ecgjcIM89IpAzrwJuliFZXPNoiBz8uTJVEMy6PyrlN9RYb2ooaJmR2rCgsoIcMcxmTsNSe1QF00b/IiTTs0DP/pRoCC6cryjEhGvQcTjeCckEDmb2grGJar1Qw89lNLroptHFO9yLW0egZvpmE+vRyrUEhHVuQq1HPn7JsuXLx94/lWq3lGZP3/+aY+opF5sQr+hQZr25k6EEzqe3Upqpu1N6MeLp+V/yozrOV+3PqPmNVJN2IT+CFGlyQtoktRWPAailqb8aGs68PiIx0EUWKR+rFFpaNAalaqX1ST11vYaFQ1PPPrx3z+qEzUqFlQa8gIqjZ7nmaQQBRUf/UiSpNayoCJJklrLgsoU8UIaf93L2wmQNP44r3nfLG9+vimqrKcL+SOf8bfiOlyryn+TlsaBBZUpiia3I8iWJM0kbpqiWf8cTeQTMFUaNxZUJKkCDaBFkD1+/LkpodaCLgoCfFJLQRrD80bMaJyNdIZHenn8qImlBoaaEdJppfa5555Lw+mnJgR5HphHBEqMAIARL+jrr78urrzyytQvzQr860f99dpUGzZsOPX22293vkmarLZekji/Oc+/+eabU8ePHz91+PDhlL5q1aruuU/a5s2bUz/r8fHHH6f+nTt3pg6MH+kvvvjiqa1bt6b+fHzSIp1lrV27NvUzf6ZBnt4U4zOdNC44L959991T1qgMATFBuJupqm6VNP5oF4loylu2bCkmCiypCXh88MEH3TaTrr322hSjJ1TF6mF8IhlTK/L444+npvZDjE+MoIgTlLcx0itQYj/R9L5tlmgcWVAZAlqiJchWkyBiksZPPH7hc/fu3an5d6xatarbuiqPYoj10wutwO7bty81HX/gwIHu45omegVKzFW9o0KwQdKNr6NxZEFlCDj54w5L0uyzZs2aVJtBTQg1IlHAoNBC8ELSuVnZtGlTSq+zc+fOFISQ8SnULF68uDOkv16BEnN176gQKJWAqdK4sWXahnq1mMlFZ9u2bTabL02RLdOOjtcpjRtbph0Sqn2pUiUkuiS11cqVK9NjamncWKPSUN2dnoG1pOGxRmW0DJiqcRI1KhZUGvICKo2e55mkEAUVH/1IkqTWsqAiSVMQf0+WNBoWVCRpCo4dO9bpkzQKFlQkqYFylGJepKdNk+eff/602DtNMT7T0YAb82X+sQxJP7GgIkmTQDP2NMJ26623ppZm77jjjs6QZmggjmjGFHaqWGCRfmRBRZIaKEcpJh7P//k//6f47rvvUquvn3/+eUqnViSiHNOUPTUmETE5Yu6Q9t5776WWZumPKM2xDFx33XXGD5Mm+PfkhvzbpDR643aeUSjh0c+iRYuK7du3p8CEpH300UepAEJjkL/4xS+Kv/71r6kwQ7P5//qv/5rGs6VYqTf/nixJU3T33XenRz8EGOTRTzQAuWLFivT52WefFSdPnuzG9zly5EjxySefpGGSmrGgIkmTQMEj3iOhZWpqVX744Yf0PRBa45JLLknvsNDt2bMnPd5pwndUpB9ZUJGkSSASMu+YxL9+1q9fX1x00UWdoT/icQ/vtFCoodu1a1f3HZR+fEdF+pHvqDTkOyrS6I3jecY7KTwCkjRcvqMiSUPQ9FGOpMmxoCJJU+C/dqTRsqAiSZJay4KKJElqLQsqkiSptSyoSJqVaBU2GmCbq8b5783sO/ahZEFF0lioizAcQf0ijk544oknUjyd2YbCR5MfcKIzP/fcc51vzcT2bYMNGzakOErkZ9myZd22aOimKj+G+AvsMFTNp257sj695Ps48jqM9R5XFlQkjS0u6NFc/Ycffpg+A83V10UmHmf33HNPapq/HwImbtq0qfNtvFCbsnTp0tTiLyJCdXTjLgJY1mm6j+cKCyqSxkI5wjB3mdQYvPXWW927VgIBgmG0Fos8ejFBAQM1MKTT5bUx3BkzP8bnzpdlUOChP+bPcNLoytP3mi/fmS/D4rFUnr9+4zNuHnWZu27ywDh08aiH9Pfffz+1lMt4MTyfP/2x3LzmhYCKpDEsrw3Ix6/aDmwfxsnzHLUCeR7oQoxLF/PEwYMHi+uvv77zrRrjR36YT6jKJyKdvLKOudjfDI9tyGfkjfSq/ZUfTyGm61XrFbUv+TLIF9Mw/3wfx/EeUbvnJFqmVX9uKmn0Bj3Pnn322VNvv/126l588cVO6qlTmzdvTmnffPPNqUWLFqVPbN26NY3HsLVr16Y0MH5MTx4+/vjj1M/4dDh+/Hh3mp07d57asGFD6seqVavSNE3ny/R05Gvp0qXd/DH+4cOHU3/V+GD+LAd8kg+mJ38xLcusGp90xmW8PJ/kn+mZJl+v2B+Mn6dHnvPx+c74+brEcvNp83Tmw3LBvgzkJ+bDMhiP/NLFOlRtt7p8lteXcSIP+XbOp2e5kR7bk3lVHU+I+bCcGM40dGWxXfPh5CeWxzwif3MZ2+ndd989ZY2KpLHE3eZjjz1WHDt2rHjooYeKo0ePdu96qU2gITaqzwkKSMwd7NixI925Ms3q1atTGs4///ziq6++6nwrujF7FixYkDrEY4gQj5xAnB8CEjadb+gXXbk8fhnrSM3Dli1b0jsd8+fPT+mHDh0q1q1bl/qffvrp4rXXXku1AGwjtgXLyPPJ9or1y9crMP4HH3zQvfsnz/FoIsaPbRyfrHuYKDCk7U6tRuwjEKTxj3/8Y8pboJaB7zEf5I9+mE/ddqvLZ3l9y+sY2/naa68tvv3229R/3nnnFY888kiqNWG7oe54Cjyy2bZt22l572Xjxo3p+GJ9iQM1b968zhDlLKhIGkv8QEzceac4O/wIPfjgg+nHlgLMVVddlcYhejHV6FENzw8lwy+88MLTqv+//PLL9MM0CKYJL730UvqRGXS+U4muDNYlPnfv3p0KbBQEjh8/3i148EPLDyqFEX64eSxGPnlkFvihzAsQZeSJglDkk8JP0+CKFDx4f4g8ko+FCxd20ylAMS/ydt9996V0HkP967/+a+qvU7fd6vJZ3i/lRz/kBbyAHPlju5Fn5hEFmbrjKezbty/tg5hfP7zwfemll6b1v/LKK9MjL53JgoqksXXWWWelT3504y6W2gTuVEEaPzRxh80P+Jo1a9KdM3f5/EDTLVq06LQ74yb40WcapqdgxI/ZoPMlf4NGV77jjjvSNPxAsi6sL9NyN0/6m2++WfzHf/xHZ+zitPmDH1vyuXLlypRH0sl/ucYoF2ECYj7UMPQaPxc/8kyXv9ORp9Nt3rw5fedHm/z1Urfd6vKZ7xfSy954442U/sADD3QLTPfee28an/0XtWJ1x1NgOIUV9kUUVoiuHeNTsMndcMMNaVyGvfLKK8XatWtTer6PVRg9uSlefnJTSaM1LudZvGRq1GRpdLgeGD1ZkiS1mjUqDVmjIo2e55mkYI2KJElqPQsqkiSptSyoSJKk1rKgIkkl/LWUv6Y2bQ9D0uhYUJGkEtr4oLVZ2teQNLMsqEiSpNayoCJJFSLGj6SZZUFFkioQ1I/mz23GXJpZFlQkqQIxcwhwN2gMIEnDZUFFkioQiM7HP9LMs6AiSZJay4KKJJV88cUXxVtvvVVcdtllnRRJM8WghA0ZLE0avbacZ3//+9+Lr7/+OrWnImlmRFBCCyoNWVCRRs/zTFKIgoqPfiRJUmtZUJEkSa1lQUWSJLWWBRVJc979999f3HbbbZ1vktrEl2kb8iU/afRm8jzzHJfaxZdpJUlS61lQkaQJixYt6vRJahMLKpI04d577y0uvvjizjdJbeE7Kg35/FoavZk8z5YtW1b89a9/Lc4+++xOiqSZ5DsqkpQ5fvy4hRSphSyoSJKk1rKgImnO+8///M9i7dq1nW+S2sSCiqQ5b/ny5cW+ffs63yS1iS/TNuTLtNLoeZ5JCr5MK0mSWs+CiiRJai0LKpLmFF6cvfrqq4u///3vnRRJbWZBRdKc8tvf/jZ9fvbZZ+lTUrtZUJEkSa1lQUXSnLNw4cJOn6S2s6Aiac65/fbbi1tuuaX429/+1kmR1FYWVCTNOfv37y+eeuqp4qKLLuqkSGorCyqS5pwvvviimD9/fuebpDazoCJJklrLgoqkOeWdd95JbagQ30dS+xnrpyFjkEijNx3nGY99sGTJkvQpqZ0i1o8FlYYsqEij53kmKURBxUc/kiSptSyoSJKk1rKgIkmSWsuCiqRZ7eKLL04RkyWNJwsqkma1J598stizZ0/nm6RxY0FFkiS1lgUVSbPavHnzOn2SxpEFFUmzWgQevP/++9OnpPFiQUXSrEZLtDSZv2PHjk6KpHFiQUXSrHbixIni7LPP7nyTNG4sqEiSpNayoCJpVtu/f3+xevXqzjdJ48aghA0ZLE0avVGcZ++8805x+eWXd75JGhcGJZQ0J1hIkcabBRVJktRaFlQkSVJrWVCRJEmtZUFF0qxBlOSrr746NfAmaXawoCJp1vjtb3+bPj/77LP0KWn8WVCRJEmtZUFF0qyycOHCTp+k2cCCiqRZ5fbbby9uueWW4m9/+1snRdI4s6AiaVahyfynnnqquOiiizopksaZBRVJs8oXX3xRzJ8/v/NN0rizoCJJklrLgoqkWYMAhLShsnz58k6KpHFn9OSGjJ4sjd5UzzMe+2DJkiXpU9L4iujJFlQasqAijZ7nmaQQBRUf/UiSpNayoDLm4pm8pNHyXJNmhgWVKeLiRfVUdMuWLUuB0cKrr75aXHzxxd3ht912W/dixyffYxjj0UjVo48+2k3LuzLGveKKKzrffsQ8CcrG+ORtqpgXXbl/qsgf6yk15bk2OeTPc03jzILKkGzevLl4++23i6uuuqr4t3/7t/RSHxevX/3qV8XSpUvTsBdffLEb3RVvvvlm8cwzz6R0huPKK68s1q1bl74zT9Afw3PPPfdcsWHDhuLss8/upPwYjO2NN95I419++eWdVGn28FyT5hYLKkNy/vnnp4vVjTfemL6fOHEitZCJP/3pT2kYkV2ffvrp4oMPPkh3aNEo1aFDh4rvv/++eP/994uTJ0+mfywwPvME/VUXQi7EN998c+fbj3eccdfHJ99ZDnee3FXxGXd++d3gWWedlS7EIe48uev8/PPPO6k/4nvctd5///2d1J+moWO+cSfLOMyfdNY/0gPfyRfTS014rnmuaY7hXz/qr25TTdxNpWETd2Spn0++Hz9+/NTatWtTl4vx+cTEHd6pVatWpbRFixad2rlzZ0oH/XXLPXz4cBq/rDz/iTvMUxN3gqmf+cU05JNh33zzTXeajz/+OOUnpmcdGD/WgU+mIZ3lMx6fTMcwPplfTB/z4pNh9D/77LNpXvRv3bo1rTt5kcBxUSeOU881zzXNDRy777777ikLKg2xwarEhSc6LjZcLBAXUi4oIS4oXEy4CMVFjn4ucgyjH70unoxbddGJ/MR86S934GJXTmea8jIZL794Rj8Yj/HJLxdBuphv1bxypHMh5pNtIaHueEEc29F5rnmuaXbjmKWg4qOfIZm4UHCVSNXJVLsiqqa3bNmSqoGpPqbadeIikwKm8dycamPSqb6m2rYJqnAPHDhQbNq0qZNSb+IClZ6tk7eJC1rKJ6jyZtjEhb2YuPil9HPOOac477zz0nDyS/fee++l74HqaN4J4MVFXHjhhcXBgwdTFfvrr79ebNu2LaUj5sW4VIuXq71vvfXW9G7Ab37zmzOqqaU6nmuea5pjJk4qNVC3qbibYdjExaeTcjqqa7n7YRw67sziro9PvnNnyDDueuIOEcyzarmMw7hVIj98gjuoWD7LoQoYLDvuKunoj3zFnRqfcecW6Xxn2QyPebGMPI3PWD7fY/3yZfCd9eM786STOC7qeK55rmlu4dilRsWWaRviBbVx2FRLN/5Pp2/8HH/hXzp9mqvG5TyD55o0WlwPbEJ/AON0AZXGleeZpGBBZUDjcgH1Lk/jbJwKKp5r0mhZUBmQd3rS6HmeSQpRUPFfP5IkqbUsqEiSpNayoDIitFVAGwiSJGnyLKhMEQ01EZmUjv7wxBNPdBtwIh4H3VTFPFjOMOZXN59I67cMGtTKY5BIM63ufBx3TdeLxt4iMrQ0W1hQGZEjR46kVjPjokJLkuOKmqGq2iGi0e7YsaPzTdJ0qiqwEM15/fr1qTVeabawoDJFNIV92WWXpY5+cAHhrgZ33nlnqlmJ2glqIBjGd5rzBo+J+B5d3A3l6dRe5E1f009aDI9hzDPS6EK+3Lxp7RBNjuOWW2457ZPmx7du3Zr6pTarOh/55wDHP13duZafN1FLGOdx3XkW51OeTn+Mz/Bo/r5q/sjPS8YBeYpxIwpy1Xpdd9111pxobuDvyepvkE1FU93RrDWf0Sw2TXzTtHWgKWyatabp64h0GkHHQHo0F8540ZQ384xpkU+fzz/ywXIjD2D+LCfyRjPhjDuoyI80LKO4JDHPCMZXd65xHsQ5y/nAuVV3nsW5GOn5+cN8Yv5xfqFq/nXXA875OO+ZJvLeBNMxf2k24NylCX1rVEbg/fffLy6//PLOt5988sknKaBY3C0RVO2zzz4rPvzww2L37t0pjbsxxgHp3EHh7LPPLpYtW5b6QT9puOaaa4rvvvsu9U9c7NJdGHdq8biG5a5evTr1g/wRKA3crRHc7MEHH0zfm+IukEBn0jiIRyF159rTTz9dvPbaa+m4Pnr0aPfcqjrPOGfz9MWLF5/2aPSCCy7o9P2kav5114ONGzcWCxYsSOPu2rWrmDdvXmcuvVEj8/zzzxdr1qzppEizgwWVIeNicdVVV3W+nY5Cx8QdVHpfhY6LF9W4FCK2b9/eTZ+4K0rjr1y5svj0009TPwUKoqkG+qO6mQsgFzaqgbkQkwfeHVm4cGEaTtTVt956K/WDC2BcWLlgvvzyy8VNN93UnV9Z1Tsq5JOLojRO6s41Ci2cMxTiKTDE+x/5ORfn2fLly087/77++utuwb9O1fzrrge8iH/ppZemca+88soUMblK+R0VblCYH49qpdnEgsqQHTp0KN0RVYlalriD4s6KCxzj7927t5vOxRB33XVX8corr6Q0wtcvWrQopYP+P/zhD2kYhZN169Z17xpJ48IYrr322lTooYDCMApS+YWV6bhg1xVWqt5RoYBDyHppnNSda7yPFWmgMALOM84l0uM849h/6KGHuuPv2bOnb41k1fzrrgc33HBDcc8996Q0zv+1a9em8cqq3lFhfb766qvON2l2sAn9hmza+0xuEw1bm44paiwokFDbMS74+zLuvvvu9CmNM5vQ15StWrWq+08FSTMvHvOWH9VK48walYasPTgTj4l4Pm+bDRoWz7Op43EQL/jGy77SuIoaFQsqDXkBlUbP80xSiIKKj34kSVJrWVCRJEmtZUFlBOIviPE5LDx7jr8P848Eg5RJ/ZXPR84h+uk4N6KZe0Ra+ZxhGv6mHP+qQXm+dXjhnPlJmhwLKmOEthVoubJOXpAJBimTTvfCCy8Uv/71r9Pfjg8cOFA88MADKZ0YWLRjQkNrTz75ZPG73/0upXNeURjJ2zGqwrlXdUNAOyvMT9LkWFAZgXJQP+7CaDWSjjurqqBkeToXPMbl4kjHxY+7MoIbEuSQ/qogZY888khtK5bSXFU+H2ljZNOmTak/95e//KW48cYbUz+NsUXz+hTyKbzQhH6uPF/+AUdLspKGy4LKCFDIyD8DBQwueEeOHEmFDx7Z0NolaXT/+Mc/0jhRa7Jv377UrPb/+3//L83rkksuSXdm9HPnx8WULlqZZdqqC/B5553X6ZPmnrrzEbS4TJP6+Pbbb9NnqGsRNpTnS4GG5vGrxM2EpMFZUJkmK1as6PQV6VHMDz/8UBw7duy0YIHnn39+av6awsf111+fms0ndsf8+fM7YwyGgotByqQzRa0l5xkhJhCxsQKPTacqaknzkBWSBmNBZZp8+eWXnb6ieOmll1JEVFqR/OijjzqpP45D7QcFDPBJpFea8W6i/I4KF2KDlEmn4xwhrtXNN998Wi0Lj23279+f+qntpOXlQVS9o0IgQtJtKVaaPAsq04QqYS6KvItCUECqibmTW7p0afcdFV7WYxxqQAhuyPspvEAbz8DvuOOO1B8FmbKqd1QMUiadjppKoh8/9dRT3ffAwGNTChSci7wLxk3CIOreUaGF2BMnTnS+SRqULdM2NJUWM2cyUNhMLlsa1GxsmZaC0LZt27rRkiU1Y8u0c4RByqSZtXLlyu4jJUmDs0aloXG+0+O5uUHKNA5mY40KeOfFGhVpMFGjYkGlodl6AZXaxPNMUoiCio9+JElSa1lQkSRJrWVBRZIktZYFlWlQFem43DjbVFTNvwrDaSOCdliqpiGKbAyfipg3+Gtmrzw1Naz5zBb8iyv+yVXelxxbefsgOl15e5XVpQ8D+6zJfsmXz/lIniYjltVvmQyP7RLfuRbwSZfHJ5usyAPLif6pGNZ8Au9DTFa+X8sN/03mWj/M9ZoNLKjMkH6RkMs42PNWNPupOzkiVlAVGsDqNVxnGnS/DAsN+9UFoKQxQSIDq31oSr/Jvrniiis6fT+2MD2sdpDKP6K9cC0gr3S0sKt6+X7lus71PQx6rdeZLKhMg3KkY+6Q8kjIXDy4GFGK5i6Gmg1wQSHttttuSyHnH3744dPGpWOcyURS7pcn5ht3VCwvCj116UxDOmnlNiP4TjrDGQ9160x6rBtd+c42hpcvttwNcTfIsGXLlqWQ/cyf/n7LZLo8Pe4q68av2i+ISNgMi2WSf9IYN4bF8shbrEfddmW9mG/kgTs3xiWGEx3Dqva/6lVtr9h3bPs8rEUc12z/vFYh9gld7OvyPowaL76z//nMawHiOKBjuph/fDIe82S8OCbz/NDFcUJ/LIPhcaw2jfDM8NguvcR2Yjmx3qhKj3M18hZ5Bf2RX7oYxrSRRhfy9Wa6MoaX09l2MZ84p8q1MPTn1xi2M2ksi+nBd+bNPDhnGYfvjBPLzOfLNZRrKd/JV/laT3p0sYw8nXnG9lAHf09Wf8PeVGvXrj319ttvp/7Dhw+fevHFF1P/8ePH0zDs3LmzOw79jMP3DRs2nPrmm2/SuEzbVD6/KnmeVq1aderjjz9O/Sx369atqb8qnbwsWrQofeLZZ59NywLz5DtiPNStM/OLaRl/6dKlqZ/hTMNnLD/H/ol05hH5zefdazuzTUPs60H2C+Pm8yDf5J/xoh9sP8YF08W61m3vfL0YN8bP++tEfsfJTFyS4rgK7Ef2Wxx/se82b97c3Xekc0wgjm/2YRwXjMf4YN4xDsPrjrv8GMi3Q+zrcn44TvotY7KYnvzwSUe+6o7xuvS6c7l8TjBe5D2fD+sW+yG/vjA+6x7rmW+HXGw3MC7rUN429JOG/FzL14lxIn+ks11Cvk4x317LyNeV4yfmVbet5jr2ybvvvnvKGpUWOPfcc1NsH0rseS0Idzfc6VDC5i6PGEDDiqzczwcffJCqLCnhP/7448WHH35Ym0615iWXXNJtUO6CCy5InyG+M5zxULfOzC/u6hifmCyBR1NEm+bRRpVIJ74RHfKotXXLRB7dOgyyXz755JO0beKuiNhOUd3LXVhsGz5jn9EIX6jb3qhbXw0H+y6PYh7HAvuP/UgAQ/bLkSNH0rjYs2dP8cc//jHdVQf2YTTqRhyvp59+OvWjfE6EqqjqdchPfixx/EStDeqWMVn5ox+OwbpjvC69fC6T95CvxzXXXFN89913qX/iBzqdb9TQxLoxr/z6wmMoxgE1D4QnePDBB9P33MaNG9N1gH20a9euFAi2nzjX2H/ffvtt6kdsW87dyAfydWqCbUIMKbYT1w+2W6TXbSv56KcVeExz++23p6rBidJ3J7UoXnvtteLll19OFzyGcQDzCT57RVamSnEq1YfkY9++fekideDAgW7VcVX68uXLU4Eilvfpp5+mzxDfGU41KOrWmebGjx07lvoZPz9huSARYTq2waDqlllnkP3CRYaCY1zYGTbIY5i67T0MXPDzHzSdrhzFPPo5rvmBjH1K4YT9zLnFMcA+fv/994v77rsvjT9xd9x9jMCjl3gs0EtVVPU65fOMxzh5QbwJpo3HDYOqO8br0jmX83M/v+nI14NtSYGCfPGDzTlFYWThwoVpOOvNdSPGpxAT1wDOPc5FCpMxPDzxxBPFpZdemvYRj7u42WD75uOVp4ltw/6L5Q8TBeLt27d3t9XOnTtTeq9tJQsqMyaPhEy4eZ5hcpfwxhtvdMYoip/97GfpHYi4U+HZaF1k5bJ+76j0wwkUd5JccOPuvyqdiwUFpshn+ULId9aNYVzEULfOd911V4pNxLgsp1wQY/qjR492L1SDqFtmnUH2S9xJRxp5HORHpG5711m3bl33HZV+3nzzzUY/mnNVHsWc7R84rjm/Yp9yV84PcNx1R/rmzZvTd24cOF5Io/aPaMz9VEVVx9atW1Nafi6VzzMKTlU1Cb3UvaPSRN0xXpfOufzKK6+kNGqAiQ4f6P/DH/6QhlE44XjOt2t+vLLenPcx/+PHj6frYGC6OH/ygscNN9zQraUkH9wMMC7zY9uyDPZ7jvOc8R944IFuAXRQbA/ywXyQX+up5dm7d293XaLmt9e2UmET+k3NRNPeHLSUusNZZ52VLmyTxQ8qdz9xYdHkDHu/jErkk7tDqufHIYL2TJxnM4XzEUY2l6pxPbAJ/ZbL7+a464raiKngHzj5W+4a3Cj2yzDxmCd+BMFzdX8MJY0ra1Qamg13evyAnThxIlVfD/psW+ODamdeQOR5fFSnj4u5VKMiqbeoUbGg0pAXUGn0PM8khSio+OhHkiS1lgUVSZLUWhZUJElSa1lQmQb8y4Z/YdCN8z9u+JdL/lmlal2JuxNtVJTbhqgS008W7SPEsllWuVGnUeKFZdaxSfsmvcR2BNttGMdN1XxiOfn+0uSxjXudH+C5O9je/caNfTaV80EadxZUNGkUAPoVOvDYY4+l1iFp04NWGWmEaZT4u3C0FcOy+AfMdKGRPZpCN9rs3BMFvbyNHUlTZ0FlGkQz03T08wNP+xtx9xU/9nGnhbjLBeNQS8A0NClPOt+jdUVwkYzvUXvBeDFNLIPPWC7jRdPqsQw+8yaqwfTkOVrBjc+qVi7L6woaQ2N+zINWQONCzrLi4l6+u6QZc/Ke1040XceYL8vMI5eGmE++DwLjxbxjuXyP7cQ0sc1ZHt8D3/OoxnyPeTFe1OzUpceySZuuCNRV+6ut8vWN/KPuvClv59iHdelV+75umQyPtNgfHGcRNbd8PEdaHZYb+eCT7+Bci30kzVn8PVn9DXNTEUmTyJxEySSCJhE5kS9jZxb5c23D6J30R4RRxon55lF6+YwIoXl6vow8qifjVkUmHQTzIzoo88zzxTIjqmgecZQ8sX0C00Tk0ybrmM837w/l+cQ4EbU00llv5s92iW3DuLFtSGO5OfIQ+Yh8g/HYBqhKZ5l5hFjmXbVvYjyQt1g+25jxUBeJleFMw2csv216nWfso0HOG7Zz7HvGjeO4Kj22U2z/2Pd1y2RcviP2DePGPsj7QX8sM/Kbj5MfH1XHlTQXca4YPXmG8Fhi0AjITaJ30h/D+KyK0nveeeelOEDUChCTIxfLoDG4iQtxunvk/ZIbb7wxpU8Gd6REhOVRCI9/iIfyq1/9qjO0Xl1U2Sbr2EQ+n8AjImp/IuZORMslrgj5psbi17/+dYrJQj9pecyRsrqIyFXp5Qix5Ui48Z3ho4xA3WaDnjds53gEmEczrkqv2/d1y6yKnjwV7EOCUaLfcSXNNRZUZkBUFfPJRSkC7xGIih92RNjzYaOAwnK5OPf6sSIgH4UUChdxUS8jr1EVXofHQwTwC3mBguik33//feqPz5BHs+0XVXZY6qLlRiu+BBPjB4RgZ/RTmCsXdnITd8tjFYG6yf6cSYOeN6tqohlXpdft+6plso2qoifn+kXprUJBiEdKFH56HVfSXGNBZQbwY1cVAfnee+8tfvGLX6S7q1FhGVwIWcZXX33VST0Td5rcVVKbUadJJFYKQ8yDH0vWl+7w4cNpGIUhIouSF+5ey0gnr3lU2UHlkUv74ceBcSOfES0XFLa4E6fQQl7o5067l51jFoGa/fnzn/+88619Bj1vKFhURTOuSq/b91XLjGMxxt3ciZ6cYxzmyfHLPqZQG7Z2IiNzA0ABJt6HIbLuww8/PKUaTGk2sgn9huZi094ULiisGBdobuAlTn5EmxTqRqXXebZ04/90+uaG4y/8S6dPmpu4HhjrZwBzqaDC3Ts1CNSEGHV37mC/R+3OTJmLNwSgcMj7Svx9n9pMSRZUBjZXL6DSdOp1nlmjIs0tFlQGZEFFGj3PM0khCiq+TCtJklrLgookSWotCyrTgDYbomnvXs1oTzdenszbd6CaLf5yyd8ny3+R7YfpemF4bIs65IfxZvKfJ5pdOJY9nqTxZUFlDqNdiHLAvmjwin/90ODbKJULSoj8lNvEkCbrySefTA24SRpPFlSmQVXgN2ovaOiJLmoRoouajDydRqO4MwS1EqQF+qOmhjtHxiMtGpJiPtFYGB3zZ7yqgH25888/P30yfswzr2kp5y8KHYzTJMAaLavmTb9LknQG/vWj/oa9qZhfBIYjGFkENiPQGUHTkKfnweXqAp4NGlgtpgvkiTQ6At9F/vLxmD7yQf6qgt9NJcAay4ngcZp7RnFJ4jjmGJY0XrgeGJRwhkVT3ASRo1nvqJmgefZIz4PR5TFbqgwaWK1KPPohD7/5zW9SGs2zR7wfWqmdKKyk/nLwu8gftTeTCbBGTQ21LjYhrmGK8yxqGCWNFwsqLUA0W1qkjEICsWBAcDnir4DHKhEFty7g2SCB1fpZsGBB+uTRDUHc4nEP3yNuCfnLg+XlUXqbBFhjnvl68INC7JX9+/d3UqSp45jlOCOCt6TxY4NvDQ27Iap8flxEqe349ttv0/df//rXKVAa6dSOgEjD1GQQrRXUmDCcggC1KETRpdaDwki8OMg0BDmj0JHPn1oLaj2IHEvQPgoufCdPaztReCl0/P73v0/5oEDBy7UUOFgmhR0KFb3yFwWat99+uzb6MsskqGEEiwPv2pAfClqae4Z9nsFjShpPXA9smXYAo7iADorCybhcbCmoEPU4r2Vpwh+Vuc2CiqQQBRUf/WjoqNXh0Q+PcQbFv4KoqYl/MUlTxaNEHq9KGk/WqDTUhhqVuYLaGPDiruaWUdWo1D1+lNReUaNiQaUhCyrS6HmeSQpRUPHRjyRJai0LKpIkqbUsqEiSpNayoDJD+Ktx/llWlz4MtH7b7181vNAaL7XyOdn8sJwmkaNjeCyH/rPOOit9jy4anZusyAuYX6/8NDXIfPLl1yk3gtfPIOvAuOR3NuMfZ6zjINtQUrtZUJmDnn766b7/giBYYAQM5N83w2yDoumPcd7KLl00hT6bVUW07uWKK67o9Ak0IohBtqGkdrOgMkNoHTb/5MebVma5G8zvuvlBJy26qFXgM9K4OMcPfzRbT/pzzz2X0pgf48T0fMadOG9VM5w0pmM43fPPP5865pffief5Yfxonp9x+B7LifGrIkdXRU2O4bE96pC3WL98vclHpOcxXSKdcctN8/Od9Hw9mF+sA+m03ovycqO2KcR2Ybxc3fIZj/FjOcyPcfOI1nV5CbGesdw8j3yW8wLmSY1aLLvf9pOkGcffk9XfqDcVEZMjQnEe7bUusjJRiyNyMdMxDVGR8yixjMs0jEf05JBHQ2a9Ikoy08d45fnHfPN0EDGZZTAO/RG5OV/GZDAtEZyZD11EY2adIr8RpbkuajTfmUeksx0j78wzj0zNeGC6iPbMesV65/uHcSLCM8Nju0e+Qq/l85mvR56vfDlVecnlx2U+LeOzTXIMy7dTHFt8r9p+M2EY5xnHcGwHSeOL64HRk1uEaMXxOCZ/xFEXWXnjxo0phg93wbt27UqBComUnLfASdydaDRtxYoV6bNKLO/aa6/txgOq89Zbb3UjJoOIySdOnOj21wUgnIz80U8ElGP9eTzC9nj88cfT9qmLGk0684g8RSTqkEemZjyce+65xaFDh1JNRl7rk+8fthOPzwIt8LLdy4+mei3/vPPOSzVL7NOjR492Uk9Xl5c6dVGuc/k+uuaaa4rvvvuudvuNK+JeUTNXVaMkafxYUGmJiTv27oU1v8DWRVZ+4okniksvvTQVRgjsxw/ZhRdemAoSgUJM+RFFlRiHRwsEF+wlj5gMYvnEI52mWL945DCotWvXFvv27Uvb4sCBA+kHqS5qNOnkL5aV5xt55GceuYDCAz90PAphWYH9E4/L2E4UMMK2bduKL7/8Mk2T67V8pmd8Cjx1797U5aVOfgyxT5d2olzn8vy89tprqbBbt/3GFY/YKDzOhXeapLnAgkpLUGtChGLuaP/85z93Un+sOdm7d29Kp+OHBTfccEO3ZuGVV15JP2Tc6VOQiHcNCArYpBl6CjmM/8ADDxT33XdfSlu3bl33HZXcXXfdlZbH+CyHYG+DNnVf9Y5KUxTU4s6fH/vFixenGgIKLKTRUcNE4Yl08hfp5Ttsvsc7IFFDcvPNN6d3REinhiKwf0hnXH4E84jPYHpqRvLCSq/l33vvvWn7sZyvvvqqk1qkaNasC/Opy0tu69ataT7MOz+GiLX08ssvd8b6yaJFi4o//OEPaRxqo9jPddtvXFFImz9/fuebpHFnE/oNzdamvW2yXG0yjOORwha1XMb3kcabTehLmnV4PMejLR5nSZodrFFpyJoHafSmep7F+1aDPo6U1D5Ro2JBpSELKtLoeZ5JClFQ8dGPJElqLQsqkiSptSyoSJKk1rKgMk2IpxMNhuVI6xdRN5ePz98w809JkmYbCyqSJKm1LKgMAa23UqtBC6F57Qjp0froRx991EntHVGXdObFsGjqvG58WhPNPyVJmm0sqExRtNtAjBTi7tDsPIgHQxPlpOXNqlP4oOl3xic9j0dC8+c0g86w66+/PsXz6TU+BZf8U5Kk2caCyhQRe4cotRQW8tqUciTjiF7cK6JuXWTguvElSZrtLKhMEcH1KIRQ20EAwUAk4/xxT/T3iqhbFxm4VwTgwGOjGEeSpNnCgsoUrVmzpnjppZdSLQiPaohOCyIZE2Y/3jkJvSLq1kUG7hUBOBCR+IUXXuh8kyRpdrAJ/Yba3rQ3L+5ec801RozVWLMJfUnBJvRnGQspkqTZyILKLGEhRZI0G1lQkSRJrWVBRZIktZYFFUmS1FoWVGYIfzXOP0eF9l0GCXpYFvmLYIh0VcEVAy31Rmu9kiRNlQWVWY4Wc+++++7Ot+GqamSOBvDoJEkaBgsqM6QcUJCaCgoV0agbNSHRWBxtpIRIZ1wahYvaEsaLmg4+oyYkakHAf9KZV8wvgiYyLvMFBQ++0zH/KIicc845xWWXXZY6+kEjc3mhhHwT64gulpEvM88X6I88162vJGlus6AyQyKQYHwGms+nRdpt27alfrp//OMfKcghhYZI54c9D1DY1A033FDs2LEjzY8YRQRNZH7Ml/nTui4xikh78MEH07KxZMmS9BdoOvpBHjZt2pT6QX5uvfXW1LGMEMusk69Xvr6SJFlQaZE8cOHJkye7zekfOXIkBTkkfdmyZVMKUBiFG+ZHEETmT8fymD+BEKk1ActheVPVr0BVt76SJFlQaSECERIxOWoY9uzZkwoPEaAw5AEKFy5cWHz//fepPz57YX4bNmzoLuPpp59Oj3RWrlzZnS81HfnyyqreUell3rx5p40f/XXry/C62EaSpLnBgkoLUZPBuytR27Fr165UiIgAhfEuR/4jfvPNNxd33HFHepTUpDYiWrKNZRw9ejQ90rnrrruKV155JaVt2bKlG2SxSvkdFaxbt+60d1Ry1KywDuSf918I2oi69f3666+Ln//852kcSdLcZFDChtoYLI0XUY8dOzayf/XMNP7mvHXr1u6Lvpr9DEooKRiUUK33ww8/FH/605863yRJc5E1Kg15pyeNnueZpGCNiiRJaj0LKpIkqbUsqEiSpNayoCJJklrLgsoMob2Q/HNYptpIWt6IG39/jlhBEZOnCtPQNoqNs0mShs2CyixDc/T33HNP59vgmJZ51KkqsLzxxhvF+vXrJxV7SJKkXiyozJBy9OSolaCGhdZlaeysnJ7XWvCd1l0jPYL43XnnncV7773Xrampi0rM3774HtOzPMZlWuZBf1XE5Ouuu86aE0nS9KEdFfU36k21atWqU2+//XbqP3z48KnNmzen/rVr13bTjx8/fmrp0qWpn/Rnn3029TOc7+X+b775Jo3PJ5gn8wbr8/HHH6f+nTt3pg758ppi2hdffLHzTZo8L0mSAteDd99995Q1Ki1BJOOIv3PttdemIIHgsUqkE4tnorCS+tEvenK/qMTDeFRDzQuxfdasWdNJkSRpeCyotMSqVau673/wGIfHOiA9HrXweCYC+TVRF5V4KsrvqPCYiijMb775ZidFkqThsaDSErt3707vhlDz8dRTTxWbNm3qpv/ud79L6RQIXn755ZReh9oX/rXD+HVRiXshAjPT1AUCrHpHZcGCBcVXX33V+SZJ0vAY66chY5DU4+/LmK1RnDV9PM8kBWP9aGguvPDC4q233ur+U0mSpGGxRqUh7/R643HQ4sWL0+MmabI8zySFqFGxoNKQF1Bp9DzPJIUoqPjoR5IktZYFFc0YW7iVJPVjQaUlmgYAnIyYL2ifZTLzLwc7nOx8AvP7zW9+k/qXLVuWPoeFv2Lnn3VYhzysgCSpfSyozDG0eBst3Q6iHOxwsvMJNBD3+9//PvV//vnn6XNU6iJKP/PMM8WOHTs63yRJbWRBpSWqAgDS6Fo01pbXDvCCETUkpFUFKqS1WNKrGm1jnKgJYXgELIyWcJEHK4yamHKww7r50FEwAPksBz4MtJIbze4zHpiOvMd8Yr3q5k8/+eaT4RGYsRzw8euvvy6uvPLK1C9JGjP860f9zcSm2rBhQ6fvx4CCESyQvERAQYIMxnh5oEICES5atCj1VwUdjOERsHDr1q0psCCBD+kPEQQxD3aIfD554EPmEQEV83zmeWAZ+bxi2zI/1oV5MQ7r1mv++fqW89dErJvaw0uSpMD1wKCELUdcH2oYqJUoN6YWAQUJYPjtt9+mfkSgQtozIc5PHR7lMDzaPeERCMuiOXwCH9IftSm9MB/eMYn50JZKnteqwIc89onajhyPkq6//vpiy5YtKVzA/Pnz+86/X2DGOtTA3HrrrZ1vkqS2sqDSUjz2+PDDD9NjDwoRCxcu7Az5UfxY87gjH8ZjDvB4hEc1dQhYyPB4jEJhiGUdPHiwWLFiRerfuHFjGtYL8+Edk5gPyyfKcy+PPfZYZbRllhmfxDh66KGHJjX/MqYtv6NCkEaiPkuS2s2CSktFTUS8h1FGgYJhDzzwQHHfffd1Uovi6NGj3fc8eOEV69atSz/KURAANRQMZzw6alEoPNC99NJLKe2JJ54oFi1alMbPgx3mmA8FipgP7548+OCDnaFnosBw1VVXdWtIciz70KFDaT68uEuty6Dzr1L1jgrzZZ0lSe1my7QNtanFzLq88EO+bdu2Kf0bZybM1LZt0z7Vj9wnkgLXA1um1YzjXZHNmzd3vk2vVatWnVbLJElqH/4X6u2LJElqnXfffbf4/wG9rLFDx49ougAAAABJRU5ErkJggg==;clipPath=inset(52% 0% 0% 0%);" vertex="1" parent="1">
          <mxGeometry x="500" y="-210" width="812.5" height="500" as="geometry" />
        </mxCell>
        <mxCell id="fEcaFnHh4Itc8m6EwF7S-4" value="" style="shape=image;imageAspect=0;aspect=fixed;verticalLabelPosition=bottom;verticalAlign=top;image=data:image/png,iVBORw0KGgoAAAANSUhEUgAAAikAAALBCAYAAACdhDHxAAAAAXNSR0IArs4c6QAAAARnQU1BAACxjwv8YQUAAAAJcEhZcwAADsMAAA7DAcdvqGQAAI5XSURBVHhe7f1vyBxVnvD/1/6eJya6j2aCK4n3g6CDQ4yOzOqAARPNDN4Oa4yrX0SImDsaBB38FzOIaHQyjhGC46hECAHj+A/dm1VHhQxECTv+Q0HJg03EDd55cjv+mdwL+2Ahv+t97E97Uqnqrr6u7uuqvvr9gqKrT9efU9VVp0+dqj6fvzs+pVBff/d3f1e4q6TR8jyTFCgP/n+dcUmSpFaxkiJJklrJSookSWolKykt9tvf/rZ45513iksvvbST0hzzMswW8khee63zr3/9a5ruj3/8YydFkqR6VlI0Eh9//HGqlOQOHjyYXq+++ur0KklSL1ZSWuynP/1p8YMf/KC4/vrr03taIGiJYLjnnntSGhg/77zzUvqTTz7ZSS2KDz/8MKXxWd7CkU8frRp8TuWB4cwzz0zTMMT8UeHI88AQyCN5Jc946KGHihdffDGNS5I0LfwFWf21YVetWbPm+Ntvv53Gn3322eNffvnl8VdffTWlh5UrVx4/fPjw8e3btx9fv359J/X7/DN9nr5s2bK0nHx63jM9r9i0aVN3vfm8eXoTTMs8Uh2LJEmB8sCWlDHy+OOPF6+//npq2di/f39x2mmnFZ988kmxatWqzhRF8d577xVLly5N4ytWrEivOaZ///33uy0hX331Vfc2TEzPcvPXM844I71iqlKTWltoZfnss886qf1x+4fWlmuuuaaTIklSb1ZSxshNN91UbNu2LVVEqFzwoOrZZ59d7Nu3rzNFkSowvSoP3I5Zv3598ac//SkNVHy4TdMEFY0PPvgg3fIhH4sWLep8crLyMynnnHNOsXPnzmLv3r2dFEmSerOSMkZoicifBVm+fHmxdu3a4txzz+0+Y7J69epuS0qVCy+8ML3GcmiR6TV9jooGmI8KUy9Vz6QsXLhwoNYXSdJks1v8huyue+Zo+XnggQdSC45UxfNMUrBbfM0qbitxC4jKiiRJ/diS0pBXeMMRt3ua3mLSZPE8kxQoD6ykNGThKY2e55mkQHng7R5JktRKVlLmCZ/zkCTNN1ZS5okDBw50xiRJmh+spIwZ+ijJow0Tq4e03/zmN6nvknJQv36iv5QYz18lSZpLVlLG3K5du1K/I3fddVexePHi4q233up80l/cIqrrt4R/4tj5miRprlhJGTPlaMNff/11t7JBV/XE1QFPRUckY1pXosWEgS7rceuttxbvvvtut+Ukoi3HKxWeLVu2pHFJkmabf0FuqK1/jaTCQRf0b775Zqqg3H///SkwIPn96KOPUlf2VFROP/30YuPGjallhNg9xP+hcmMPsGoT/4IsKVAeWElpqO2FZzyj8vnnn6eggXl+aSmhNSWiGr/xxhvpMyspahsrKZIC5YG3e8YYlYy4VQMiIhMduWzVqlXFfffdlyojDNu3b+980pvPpEiS5pKVlDFGROOIgPzUU08VO3fuLO6+++7Op9/bsGFDsWfPnu4zKaecckrnk958JkWSNJe83dPQONzuueOOOzrvpPHk7R5Jwds980j820eSpPnClpSGvMKTRs/zTFKwJUWSJLWWlRRJktRKVlJmGf2VTPrfeqPH23HEdzdofCRJ0vRYSZkh+irhnzUM0T09ont6envN7dixI3VFP99Q8Wjy4/3aa6+loIiDiP3bBvTW++2336b8nHnmmd2/def91UxXfgxxL3YYqpYTeR1GniVplKykjAA/2CtWrEjjH3zwQXoN0X39fHPnnXcWBw8e7Lyr96//+q+pe/5xRCvKsmXLiqVLl6b3N954Y7eDPHvtlaThs5IyQxHsj4FxroRpKdi3b1/36v+Pf/xjeuUzOl4DaYxzNXvTTTelNNDyQjpD3grDFTHLY3qu4FkHlR3GY/l8ThpDef5ey+U9y+WzuBWV56/f9ExL6xABCxmnRYU8MA1D3N4hnZhBxBNiuvg8Xz7jsd68xeXDDz9MaXwW+xX59FX7gf3DNHmeo8UnzwNDiGkZYpl48cUXiyuuuKLzrhrTR35YTqjKJyKdvLKNufi++Tz2Ia+RN9Krvq/8eAoxH9teDiQpSa3FX5DV3yC76oknnjj+9ttvp+HZZ5/tpB4/vmnTppT25ZdfHl+8eHF6xZYtW9J0fLZmzZqUBqaP+Vn/Rx99lMaZngGHDx/uzrN9+/bj69evT+NYuXJlmqfpcpmfgXwtW7asmz+mf/XVV9N41fRg+awHvJIP5id/MS/rrJqedKZlujyf5J/5mSffrvgumD5Pjzzn0/Oe6fNtifXm8+bpLIf1gu8ykJ9YDutgOvLLENtQtd/q8lneXqaJPOT7OZ+f9UZ67E+WVXU8IZbDeuLzNovvVpIoD2xJGTKuaB9++OHiwIEDKXjf/v37u1e7tCLQlT23Rc4///xuwL9t27alK2nmIc5OOOOMM4ojR4503hWpBQJ0ax9d28ethxC3mbBu3bri2LFjjZcbyB8xgK699tp09c0tqk8++aTz6cnTl7GNtDjcfPPN6RmOhQsXpvRXXnmluPLKK9M4QRBff/31dPXPPmJfsI48n+yv2L58uwLTv//++92WBfIct5xi+tjH8cq2h6nKQtrvtGbEd4Tdu3cXv/vd71LeAi0RvI/lIL/dw3Lq9ltdPsvbW97G2M9r164tvvnmmzRONGuiXtNawn5D3fEUuBW3devWE/IuSePASsqQ8eMwdcWduqjnB+j+++9PP7RUXlavXp2mWb58ebo9Ercd+JHkcwIE5k3+RDTmR2kQzBNeeOGFYsGCBQMvl/zxoxc/wPxoD9KjbdzO4HXXrl2pskYl4PDhw91KBz+y/JhSEeFHm1th5JPbZCG/nVGFPFEJinxS8eGWWxNUOnheiDySj0WLFnXTqTyxLPIWsZC49fSLX/wijdep2291+Sx/L+XbPeQFPGwc+WO/kWeWEZWYuuMpPPPMM+k7iOVJ0riwkjICp556anrlBzeuXmlFINAfSONHJq6s+fG+5JJL0hUzV/f8ODMsXrz4hCviJvjBZx7mp1LED9mgyyV/PK8Q+Xvsscf6/vjfcsstaR5+HNkWtpd5uYonnWCFv/rVrzpTf/c8RCwf/NCSzwiYSDr5L7cU5WixQSyHloVe0+fiB5758mc48nSGTZs2pfdUWMhfL3X7rS6f+fdCetkbb7yR0u+9995uZemuu+5K0/P9RWtY3fEU+JyKCt+FFRVJ48Ru8RvigdG276p4oNRAgxpX43CeSZodlAe2pEiSpFayJaUhr/Ck0fM8kxRsSZEkSa1lJUWSJLWSlRRJktRKVlJajP4uqro4lyRpEvjgbENz9UCfDxJqkni8Swo+OCtJklrLSkrL0TusJEmTyEpKy0U36JIkTRqfSWloru6Vn3nmmcVf/vKXFH9Fmu98JkVSoDywktLQXBWeFtqaJB7vkgLlgbd7JElSK1lJabE//vGPxZo1azrvJEmaLN7uaWgumqE//vjjYsmSJT6Poonh7R5JgfLASkpDFp7S6HmeSQqUB97ukSRJrWQlRZIktZKVFEmS1EpWUlqCf/JceumlxV//+tdOiiRJk81KSktcffXV6fXgwYPpVZKkSWclRZIktZKVlBZZtGhRZ0ySJFlJaZHNmzcX119/ferETZKkSWclpUX27t1b7Ny5szjnnHM6KZIkTS4rKS3y2WefFQsXLuy8kyRpsllJkSRJrWQlpSXeeeed1EfK8uXLOymSJE02Aww2NOrAZ9zqwdKlS9OrNIkMMCgpUB5YSWnIwlMaPc8zSYHywNs9kiSplaykSJKkVrKSIkmSWslKyhw577zzUuRjSZJUzUrKHHn00UeL3bt3d95JkqQyKymSJKmVrKTMkQULFnTGJElSFSspcySCCN5zzz3pVZIknchKyhyhh1m6wd+2bVsnRZIk5aykzJGjR48Wp512WuedJEkqs5IiSZJayUrKHNm7d2+xatWqzjtJklRmgMGGhh347J133ikuvPDCzjtJMMCgpEB5YCWlIQtPafQ8zyQFygNv90iSpFaykiJJklrJSsosIJDgpZdemvpFkSRJzVhJmQVXX311ej148GB6lSRJ/VlJkSRJrWQlZZYsWrSoMyZJkpqwkjJLNm/eXFx//fXFxx9/3EmRJEm9WEmZJfQwu3Pnzm70Y0mS1JuVlFlC1OOFCxd23kmSpH6spEiSpFaykjILiNNDHynLly/vpEiSpH6M3dPQTGKKcKsHS5cuTa+Sqhm7R1KgPLCS0pCFpzR6nmeSAuWBt3skSVIrWUmRJEmtZCVFkiS1kpWUETjvvPNS5GNJkjR9VlJG4NFHHy12797deSdJkqbDSookSWolKykjsGDBgs6YJEmaLispIxBBBO+55570KkmSBmclZQToYZZu8Ldt29ZJkSRJg7KSMgJHjx4tTjvttM47SZI0HVZSJElSK1lJGYG9e/cWq1at6ryTJEnTYYDBhgYJfPbOO+8UF154YeedpKYMMCgpUB5YSWnIwlMaPc8zSYHywNs9kiSplaykSJKkVrKSIkmSWslKygwR7fjSSy9NnbdJkqThsZIyQ1dffXV6PXjwYHqVJEnDYSVFkiS1kpWUIVi0aFFnTJIkDYuVlCHYvHlzcf311xcff/xxJ0WSJM2UlZQhoBv8nTt3Fuecc04nRZIkzZSVlCH47LPPioULF3beSZKkYbCSIkmSWslKygwRTJA+UpYvX95JkSRJw2CAwYbqAp9xqwdLly5Nr5KmzwCDkgLlgZWUhiw8pdHzPJMUKA+83SNJklrJSsoE4dbUfOzLJZ4LmhRs66Rt87iZr+damO/bV4XttS+s2WclZYb4sUj3zTrDqaeeWtx0003dH5Dy5wwEJEQ+HuqmZ6hK77X8si1bthTPP/98ylssj/lniuX89re/PWl8pposi0Ljoosu6rwrivPOOy/NBz4788wzu+9nIvYzr/n4TLF9g+bviy++SNvMa1kcKzHO8RjPTY272O8xjMO5liMYKXmum2cQ+XEznWOoTmx/P/n23XPPPWn9cT7E+2GUA3l+muatienk76GHHkpDWRwXvMZ38dprr3U+1UxZSRmSTZs2FW+//XZx1113pcLo2muv7XzynficYfv27Z3UeuXpGRhfuXJlGsrL6bd8fqiee+654qqrrkrBEN9444007YUXXtiZYjw9+eSTxfr164vTTjstFRLvv/9+2i6wjYcPH553zzjQaSDb1K/zwGeeeab4+uuvixdffLGTMj+M07mW2717d3H++ecXf/rTnzop46m8fQ8++GDaD1GWxPs77rgjvZ8vONYYemGbOWbo3FPDYSVlSM4444x0knKQUnjyA1l3BbtgwYLOWDNMzw8Sy+fHmIHxuh+pquW/9dZb6eQ5duxYt+WBV37Y8xYHXuOKKG9x4QqQCgHYrkiPKNC5ffv2pekZ4qTO52HgaiswzrSxvPJtDN6TL66ay1j+dddd13n3Pa5o7rzzzjTOchFXeAz5slhGrJ88xvfGfoj98thjj6W0HGl8xjTRDJzPk28/28C2RXq+/YH9y2f9mpRZB8uJ74lt4T2tSIcOHUpp4DiZj8blXMvn4bginwyMo+54rEuP44OBc6wsji+WH+dQzEN6fpzyGq2OpFf9+LI8pimfj1XbF1geOPc4BwctW1B3PIP3ke/8HIp5GPLtZ5rY/kHLljKWG99dr7Jhvp53c2bqikwN1O2qqaup9NnUlUMn5fs0XmM8H2JaxtesWZPGQ6/pwfT5PP2mD1OFyvEnnngijef5w7Jly46vX78+jTPv4sWL0/jUFWP67Msvv+zO89FHH3XTDx8+fPzVV189YZ2Msyzm2bJlS3rP+LPPPttNj3lAOuO8smzGI5+MswzyzjrLWE7kFbFc1gHyVF4P6+Bz5mM9bEO+TvZt7IvYL/m2sB9iX7B8PmMe8gimY4jx+K7IP+tk/awr8hJ5JH/xeT/59xfbxTjbwjLy44P3kZ9xwLbUyfd7yPdFjOdDflzm+wW9pgfT5/P0mz7k51ouX17d8djvOGV9cczxHqQxTv7iGIjvnOlYJshX5Jdjm89YTxybiDySxvSsqyzfPj5n3Zx7IfKJQcuWXsczr+Vyh1fmi22J/DB/LItXPmM88s04+4htqSpbqsS+QV3ZANJZrmaO/WpLyggcOHAgvf7gBz9Ir5g6QSlR0tCkGXSY03M1w22QSy65pJNyoqmTPjXfclXAFRC3CMDVKZ/9/d//fbf1hZYY0rmKoG+YtWvXpvTcihUr0tXEZZddlt5ze4mwAeSBpvl77703pePIkSPplascrszI/8aNG1MayBfz5Wlhz549aT5wZfPzn/+8e+unLNbz4x//OG0P2/jtt98WR48eTen/63/9r7T9XOl+8803KY1tL29L7qc//Wn6bNWqVSmPOOWUU1KeueLiNbDPaOpnG9kWtjO/Et26dWuxevXqyqvTXmK7uNrn+2AdOVoaaH4fxvMBbTRu51qoOx77Haf5MVeWHwMffPBBSiNCO8cWxyPHc2CcZXC8Pf7448VXX33V+eS71oo//OEPxQ033HDSuVTePvI49YNd/OQnP0nvywYtW/odz+Vy55NPPkmtWbSIkN/81l8sazplSz+9ygYCzrLcaHXRzFhJGZLPP/88/VDSbPmb3/ymmKpxp5MpxOcMnOiBk6sqvW76Or2mf/7559OPd56fHIUMn3MST10NpEIYTM9nU1cL6aQknR8D0inIKGjyZtrw4Ycfpu16/fXX03t64+Ue7dRVUbofv27dupSO008/Pb3yoBn5pmk2X+aNN96YngH4p3/6p7TMwDiFTBQwrIP85RWDXKxn6ooqbc/UFVUq8OPHjfds/9RVV4poDbadbWE7CSJZxg8k+aDpferKKaVRELMveR4k0hD7jG2kaZ1CO/+eXnrppeLNN9+s3J+9xHbFd//uu++m9+Gpp55K+bnyyis7KeNvnM+1UHc89jtOOeY4Hl944YX0Pkd++Ixj4Nxzz03vOR8496iIcG6FOLbJf9wSCVQEOA+ouPfbvldffTWVDVyIVBm0bOl3PEe5Ew+mnn322emZKyoFlC1UyEIsa9CypYleZQPv+Ty2VTM0dfCogbpdRRMfn8VA8yTNh1MnX+XnDNFkWJXea3ownr/vNz2mTphuky9iHl5BUyjNk6SR/2gqZhumCpjuchknbapQScskLZo6p07INA/jrJ/lMMR6eY009g/TBZZBer4OxHJ5T/7yJlSWRx5y5e1i3rr1sCy2G7Es0vN9RVNyOc8sO9YT+4Z5YlmxP0jj8/gu8n3J8mIf53lkvYznTedVytvJOnjPK9uVf/+kx3czDmJfVIntjiG+lzheyp8zxL6oSu81PRjP3/ebHvnxU1ZeXt3xWJcex0ocW4xHOtOz7MgT+4QhT2NZcSzk53yeZ6ZjAPuW5XK+h6rtYxn5MZa/z9fDsuK4z88HBsbjeyznOfIT78kDn8eyWEeexmucG/m+zNfBe/LIe5bJ0A/rj7zUlQ3Ip9PMsF/tcbYhrnzdVe2xbMN/dMaqHX76Hzpjk43jdqowbnQbow08z9rN866/uM0z7v/iagPKAyspDVl4th9Ntv/jf/yP1NT63nvvdVLHW9WzJE0rHPxjgWcLpq7w0j3+ceB5Nn74UeY2DLcsB32mqo24zRTPOgVuuTU5h7iV+8///M9jdWHQZlZSBmDh2S5e0fXHfXgeKuz3fESbeJ61m+ddbzyjwgPA86Gy1gZWUgZg4SmNnueZpEB54L97JElSK1lJkSRJrWQlZUR4iJP7k+Os3EeCJEmzyUrKDPEkOP/AYGA87Nixo9sREU+/D6P3wVgG6xnG8noth0oWnRyBJ9aJlwEqXozncTOmK9Yd+2+mBlkOHVZVie+RChrbGRW1yGu//c4/aoaxbzQ9defjuGu6XeXjVhp3VlJGhN5D6Y45CpRx+888QcRuv/32NE701kcffTSN07sjPcZu27YtvR9X/GWyF57OZzvpJr8KlbWqljL+8jvu+0bjoaqywvHKceu/SzRfWEmZIbpy5j/0edfVFB7R8nDrrbemFpW4Aucqm894n0fI5X0McRWUp3OFzvvAOGnxeXzGMiONIeTrrep6nfnySKBUTMrxR8gX3awzsLy6fMfVHGl55NE8nSvCHF1MMy2f5y0RjDM96TFPeb1VhTXbEvu3Ck+Nh9g3rJ98VImu8uOVStyWLVvSuNqj6nzku+Y77nXM5udNHH9xHtedZ3Es5+mMx/R8Ht23Vy0fceyRHscreYpp4/yp2q7LL7+8m39p3uIvyOpvkF1FN8nRRTKveVfKdM0c6MqZbpnpujmic9IFdXTRTHp0L810TA+WGfMinz9ffuSD9ebdNLN81hN5o5trpg18lk/PeHSNTX4iT3X55jW68mbZTAfSY7/weayD5eX5jvlZZsyL2P66/RJ5Y1vquiYP8X2W9w35iDyybbGepiIvmp5RFEksM47HumOWYyC+d44djiveV51nccxFen7+sJxYfpxfqFp+XXkQxzGYJ/LeBPP1O/alccG5a0vKCNDbaVXvhETsjOiYDEQeJTAXEUt37dqV0rgKYxqQzpUTiLaZP0fBeEQoJQonkVIxVdClqy+u0OJ2BOvNo6aSv+jgi6s0gnLdf//96T1oJYgWg7jqq+oQrC7fvBJoj/RHHnmkG5GV9Ngv5eZoIooGmqvpEImIwlM/JGl78paX8n7Jb90Q7I/tZp4myvsmzwdB+Wg16tUik+OKmKBlap843uqOWQLwERCT73D//v3dc6vqPOOczdOXLFlywq2/s846qzP2varl15UHGzZsSMc+0z722GOpQ74mOE45XvtFYJbGiZWUIaOgIOR+FX5Yp66c0vMpDBRcNN3yI3nfffd106euhtL0RDL99NNP0ziVifzHmPFoYqbwo1Cj6ZdCmDzwXARh2kGkUH68A4VfFKoUlnRnTYjzWN7DDz/cLehYDulVz1/U5XvqqjFFASaNKKxR4Zm6au02T5ebqfPbLER4pWDm+RcqDWwPBXdgv0S31eQtr7yRJ9bHD1AT7Jt83fk4lTW+r6oKD/ujvE/YXn4k1F51xyzHC8c6FXgqC3ELMT/n4jwj4nZ+/n3xxRd9e/WtWn5decBD9xdccEGa9uKLL07nQZXybU6OU5bHcSvNF1ZShuyVV1454Qc1F60IceXEFRWFG9Pv2bOnm05BiNtuu614+eWXU9rNN99cLF68OKWD8V//+tfpMyomXPXH1SJp+Y/02rVr0w87lRM+oxKVF6rMR2FNRYWCj8/jKhGMHz16tPPue3X5jmVFPrjSBFewN9xwQ0p//vnnU1qOQpY8sn7yREWJCgvTU3DH9rNfqHSRznoeeOCBlB5Yzs9+9rNGFRX2Da1PsW9yR44c6W5TWdUzKewnWn7UXnXHLBXbSAMVEXDMcRyRHucZ3zPHXEzP81t5S2SVquXXlQdXXXVVtyWS859Kf5WqZ1LYHo5bad7o3PpRH5O8q+J++v+d2gf/fehQSvvPBx9M73mdr++f+//+v4GfSfGUmpk27b/8mZJxwfE66DErtRXlgSVqQ5P848MDgzwY+J/bth3/dvXq4//1L/+SftD/386dY/H6L//zf57w2nS+6y66qPuwY1M8iOmDi9NnJWVm4kFwHgqWxp2VlAFMciUF8WN97Kab0g94rxaI+fD+/27dOtC/KgL/zpjOfPrOpJ9nw8DxF/88ksYZ5YFRkBsyOqs0ep5nkoJRkCVJUmtZSZEkSa1kJWUE4m+G8VpWlx4ikFgvVf10lLEM/lLcb330Q8JfcKX5qHw+0r8J4wwc99F1PSKNofz33uiTJ/onKS+3jueXNH1WUsYUHTzVdfJUh0K2XPAiDyAozXdPP/108ctf/jJ1oEZng/fee29KJ6YV/ZTQiRrnA3365PK+eqp4fknDZyVlBKKH1Xil4OJKiiuuvIUkv6JjqCrg8nnppCwKwjzQH6oClUUwssgHPWPSg6U0Scrn4x133FFs3Lgxjef+/Oc/F9dcc00ap6O16DIfnHN01EfIhlBerueXNAL8u0f9zWRX1QXWqwt2lnfIRFr8pZX+N5gH+TR1gcqasl8FtcVsF0mcN5w/4DzI+8XJ+0hhPIL/Ddp3jueXND2UB7akzIK6wHp1wc5ypFUF68vVBSprolcAQWm+okWSlskrrrgihUZAxLoKb7zxRnql9ZPbQ3moiKY8v6SZsZIyC+oC69UFO8tNXYVVBuvL1QUqK6u6Z94rgKA0H3G8E/PpuuuuSxWVwK2avXv3pnEejuW8BRcJEUOLW6y33nrrSecRPL+k4bMzt4Zm0skUBRcP4XElRqA/WkOoTFB4ETjwm2++SdNxtca9cgo0guwRxIxAZBSSYevWralVJqahckJByBVbtLJw1UZFpYx8UBDT0pKj8I3lSnNpNjpzo2JCy2MePZvzEZwLnJeglTNv+QStKlwUVJ0rnl/ScFEeWElpaD73hGkhqraYj+eZ55c0PZQH3u5Rat2JZm5Jw+X5JU2fLSkNzeeWFHAP3is9zbX5ep55fkmDozywktLQfK+kSG3geSYpUB54u0eSJLWSlRRJktRKVlIkSVIrWUmZBTw0R/8KEZUY9KkQ/THMVNXyq/A58X2I7VM1D9Fg4/OZiGWDv1/2ylNTw1rOfEE/OdFBWPm75NhifzHoZOX9VVaXPgx8Z02+l3z9nI/kaTpiXf3WyeexX+J9xAJjiJ5zZyLywHpifCYGXU6/aeOY6CU/75oa5fE0Kk1+C/L91W/fxT6YzvduJWWO0EFb067rwQ9P3jtmP3WVIKKx1i1n586dPT/XyQb9XoalVxRsOiCLzsnULnS02OS7ueiiizpj33U+R1DEYaBM4JhtgrKAvDLQYaSmF31+HLXpt8BKyiygi3p6qYyoxNRO33333dS9NuMUHBwM1DKpvVKLRVwRE9eHHmsffPDBE6ZlYJry8vHQQw/1PJn65YnlxpUU64sKT10685BOWrlPCN6TntfM67aZ9Ng2hvIVSHxeLmh5CpzaOp/Rkyhh91k+4/3WyXx5elwR1E1f9b2gKhI1+SeNaeOzWB95i+2o269sF8uNPHAVx7R5FOyq71/1qvZXfHfs+w8//DClIY5r9n/emhDfCUN81+XvMK64ec/3z2t+NRnHAQPzxfLjlelYJtPFMZnnhyGOE8ZjHXwex2rTSM18Hvull9hPrCe2G1Xpca5G3iKvYDzyyxCfMW+kMYR8u5mvjM/L6b3WX7cdIZ+Xge+hfN4hz1ekIZZfPp5Cvp0xX7mlgfEo/+q2P98OyjxU5R28Rhr5YjoGxvNpWVf+W5Aff6BMqsNxl+ePcdLiXKsK69IXf0FWf8PeVXnEVaKwEuEYREuN6Kt5xFXGmYb3RG4lIivTRgTXJvpFcM3zVBd9uSqdvCxevLgbeZnIzqwLLDMiPcd0qNtmlhfzMj0RncHnzMNrrD/H9xPpLCPymy+7137Oo0jHdz3I98K0+TIiEjXT5VGp2X9MC+aLba3b3/l2MW1Mn4/XifyOk7kokuK4CnyPfG9x/MV3t2nTpu53RzrHBOL45juM44LpmB4sO6bh87rjLj8G8v0Q33U5Pxwn/dYxXcxPfnhlIF91x3hdet25XD4nmC7yni+HbYvvIS9fmJ5tj+3M90Oubv11+Y39jDxPfM/sC+TTxDIjX3F8MOT7n3WR1xyfRxr5ZxmxPSGm4bOq7S+vhzyS1yZ5Z7l8p7ySP5bNtCwTef7y+RDHZp6ej+f7JNY9XazLlpQW+OEPf1i88sorqUabt35Q+6TmSW2U2vgll1ySOoQicisxf6YOrmLhwoWdqYerLvpyVTq3rc4///xulNizzjorvYZ4z+dMh7ptZnlxNcf0hw4dSuOgCZKgjOV4KiHSTznllDQgjz5bt06sWLGiM/a9Qb6XXpGoaTGJfcNrfGdLlixJr6jb36jbXg0H3x3HVYhjge+P75FghHwvb775ZpoWu3fvLn73u9+lq9jAdxgdthFZOY+fVT4nQn7crVu3rjh27Fjn3cnIT34scfzkz0fUrWO68ts9HIN1x3hdevlcJu8h347LLrus+Pbbb9P41A9cOt9oIYhtY1l5+cKtJ6YBLQGEHLj//vvT+1zd+nudq4F5+0WoZ56q44Oh6njKcWy8/vrr6fjZv39/d9uq1G1/eT3vvfdeKu/q8r5hw4ZULrLOxx57rFiwYMFIfk9uv/32VF7SCsMxPVNWUlqAWzObN29OX+pUDbaTWqSD+KWXXkoHNJ9xkPIKXjkQCUJYhWY7TuDpIh9V0Zer0gmCSGUi1vfpp5+m1xDv+ZxmRNRtM12IHzhwII0zfV6wURh9/vnn3X0wqLp11hnke6Ew5CSPQp3PBrn1Ure/h4HCPv8x04nOPvvsE5rkY5zjmh+H+E6pmPA9c25xDPAd88Nw9913p+mnrhq7zfPlZu86HM/hhRdeSD8cdcrnGbdu8kp4E8wbzf+DqjvG69I5l/NzP7/gyLeDfcmPJ/niB5Zzih/iRYsWpc/ZbsqNmJ4KTJQBnHuci1QU4vNQt/4m52qTCPV1x0fd8ZTj2GAbOX6o6HDc8N3n2xDjddvPevbt25fSQOWD87wu7zt27CguuOCCtE5u+UVFArzW/Z7w3UQlsryPq1x55ZXFww8/nC7wGJ8pKylz5JZbbkk/RBwchIzn/h+14zfeeKMzRVH86Ec/Ss88RI2f+4JctfPl854r77ofs37PpPTDgR1XCJxQcdVflU5BwcEd+SwXgrxn2/iMAgF123zbbbelE49pWU/5pGF+rjzi5BpE3TrrDPK9xBV0pJHHQX5A6vZ3HU7+/N54L2+99VajH8xJRasHV/Bxbz9wXHN+xXfK1Sc/ZtGyFembNm1K7ynkOV5Io9WPiOb98APF8cW6iWoey96yZUtKy8+l8nnGj2JVC0Ivdc+kNFF3jNelcy6//PLLKY0r9cWLF6fpwPivf/3r9BkVE47nfL/mxyvbzXkfyz98+HAqBwPzxfmT/4jWrb8uv3FOUbbQ6rBnz57uNNEym593dcdH3fGUy+cDFRG2g2UyH9vPMlC3/ayHilish+OH7ajL+1VXXdVtrWW/cGHU5PeEabhwYhoqOlTGke+vfJz8khei+w9SBtaxW/yG5qK7bg4KasLh1FNPTYXadPFjSk0/TlJNz7C/l1GJfHJVT9PwsP4hMkpzcZ7NlXgYcRy+Fw3Xsg3/0RmbDIef/ofO2GAoD6ykNDQXhSe1Uq6WQNMn9w656pouCkWal6+55horKjMw7O9l2GjypRWNFikqKTQlj8v3bSVFGm9cHCG/kJsuKykDmA+FJz9eR48eTU2Sw2iGUzvR5M3Ddtzjjib0cTFJlRRNLltSmrGSMgALT2n0PM8kBcoDH5yVJEmtZCVFkiS1kpUUSZLUSlZSZgH/ruBJfobo7GkcxVPb8VqlaluZPv7LT+ds9AHQr1OgWEYvg3ZSxl9xyQf/zpmJ2EawTcP4TquWE/uw1/5Wf8P4ziXNDSspmjYqGk17r4wutun18YwzzkgdL80Uf7MdpMM6ozxPJr7z+Mu4pPFiJWUW8JdfOlFjYJwfd34ouUJmiB96nmQOeUsC09D6wDy0RJDO++iZEFxxx/totWC6mCfWwWusl+miJSLWwWve7TSYnzxHb4TxWtV7ZXlbq9AvBN08s26WG/lhqKr0VE3DQA+H0fsjeI1tL1858z6P7Mn8MS37iHXEdJGe9+Ya6Uw7kyjP5fWWW4JiW5ku9mFVL5CSNBH4C7L6G+auqos8ma9jexZVcs2a7yOcMm0eWZKIk2CZjOfRJ2O5RMyMZfGaR9utWkceOZNpqyKMDoJlR0TNEGlNInY2mYZtZZ+GfF+EPB8sI98PrIPp8/kiqinv8yik5KVqv8V0YD6WC/LMdGC9kQemiX3L57znNfI1iUZRJLE/Y/9LGh+UB7akzAF6/xw08mREOGVaYiOEPAAf4/EZr1XRdk8//fQU14dWE2JW5GIddPRG3Aiu5p988snUQ+2w0apBK0GTaKNNpmkS2TTHtFXRnJkvYuhEVNNyFNJytNl4z+dMh7oIyqw3en8tR8rtF+VZ0xP7M28ZkzQerKTMgbglwGseeZIAWHHbIaJODhs/8qyXH8deP4YE16OCQsTMui7VySsVmUFxG4ofcypDTaKNNpmGWyP9Ipvmpq6sK6M5V0U1JT2P2jqTKM8re0TK7RXlebr7Wt89YM3+I+qspPFiJWUO1EWevOuuu4qf/OQn6ep7VFhHPFtx5MiRTurJuMqnJWHdunWdlJMNElE1osPS2sMPMRUE9Is2yg92k4ikUZGKafpFIaaiU446TEsI30UsI6Kakj6sKM/9IuUyP3kvV1TY1z/+8Y877zQIQkFEK5ik8WK3+A1NYnfdVCioqBjnZ+7RGkD4/qpWlvlkFOcZLVdUMmkdkzQ+7BZflWgZoLXlxhtvtILSEseOHSt+//vfd95pEPz7iluGksaPLSkNTWJLijTbRtWSUvdclaT2ojywktKQlRRp9DzPJAXKA2/3SJKkVrKSIkmSWslKyizgnnh0cx99ZLTRsPLG32tjm+vwWd6NvDQMHE8cf9GnjaTxZiVFXRdddFFnbLj4t1DVj4bB/jRscTz16m1Y0viwkjIL6BCsHHSPB4JoTeCqjxaF6CCMV9IiPQLQMT2dljHwgx+dhzFNBK9jeaQz0MdJTB/TRUWBq03ek87niFfSyEP8DZn3LC/m5T2dn/Ga5yPmAx2ixTaD3lcHiVYsSVLCv3vU37B3FcuLQHJ5cDwC1+WB7yKQXXn6quB1TBvLIdgd8+TB8ghsx/uqIHrIt7EqAB9YVwTUY3msj2WRj1hOE+Q1Au1JYRjnGcekx5Y0/igPbEmZQxE7hy7ov/nmmzTeKwBgTF8XvA4rVqxIr9ENeLyeccYZ6bUuiF5ZVQC+EAH1phMoURo1YibRmhcte5LGl5WUORS3crhds2jRojTeJABgXfC6JuqC6JVVBeAri4deec0DJZbxY1H1TIo0CvQwS1ykXgE0JY0HKylziFYQWiruvffe4u67705pTQIA1gWva6IuiB6IDcO6qVRUBeArqwuUWOYzKZpNVP5t1ZPmB3ucbWjYPWFOes+aPORLC47dlSs3jPOCSvPWrVs9tqQxR3lgS4rmDM3ybe43RuOH44lbi9zWlDT+bElpaNJbPoaNJvmjR4+mW01GWlaY6XkWz3l5TEnjj/LASkpDVlKk0fM8kxQoD7zdI0mSWslKiiRJaiUrKZIkqZWspMyRiI1jr5iSJFWzkjJH6IRt3bp19oopSVINKymSJKmVrKTMIYIJSpKkalZS5gAB+Z566qkU+0aSJFWzkjIHCAy4fv364q233uqkSJKkMispc+SUU06pjXIsSZKspEiSpJaykjJHzj777GLfvn3dgGiSJOlEBhhsaBSBz+jIbcmSJcVpp53WSZEmmwEGJQXKAyspDVl4SqPneSYpUB54u0eSJLWSlRRJktRKVlJa4p133il++9vfpoHx2XbppZee8FqHzyOv4MFfAiXec8896f1MxLpjP8zUIMs588wzO2MnYv74PsrbLkkaLSspqvTXv/61UYTmF198MQVK3LZtWydlPB06dKgzJklqCyspLfGDH/yg+OlPf5oGxsFDQ7RQcAVPa0X8XZnKA2nldKbnKp90WgaefPLJ1Lst43TFDyofMS9DVESuv/76E16/+OKL4uKLL07jOT6PvDIv3fszkM+6ZfNKPkkjP0xXTi+3Tnz44Ydp2nIrTb4/Yp7yeqtaom666abuPqjCvgusg+WzfvIR8m2XJM0C/t2j/uZiV7HOjz76KI1v3749DTEe6c8++2w3PZ9+y5YtacDhw4ePr1mzJo2T9sQTT6Rx0leuXJnGpyvPV92yec3zG/ki/e23307jfB55ZHnr169P44j5WWbMi2XLlqVX0iIPX375ZTc98rZp06a03l7i+3311Ve7+QD5iDxq9CySJAXKA1tSWu6cc87pjH2P6MkPPfRQah3Yv39/J/U7MT3d7jNg6dKl6RUffPBBsWvXrtTiwPzvv/9+55OZq1s2r3feeWdKf+SRR9J0kX7hhRem8fJ2rlixojNWpNtJx44dS9szVVFJLRx5ywvLi9YN+pzJb91Eh3nM08Qnn3xSrFq1qvPuxHxIkmaXlZQxFLcuHn/88cpKTC/8AN93333Fn/70pzRs376988mJmj6Tkqtb9po1a4pnnnkmpT333HPdW0orV6484ZZQLr/N8sILLxQLFixIz79QaWDbN2zY0Pm0KM4999ziwIEDaZx85w/BkifWxz5rgp6A83Xn47m5eLhZkiaNlZQxdNddd3WfmRg0SCE/7nv27Ok+vxGtLWV1z6T0UrdsKivXXnttSqOyQC+7oNXlhhtuSOnPP/98SsvFMymrV69OlbFLLrkkVViYfseOHcXixYvTdLfddltqMSGd9TzwwAMpPbCcn/3sZ40qKmvXri2WLVuW1svy6lx++eVWVCRp1Dq3ftSHu+pk/3dqn/z3oUNp/D8ffDC953W+vv+vF15I4zz3wrMqvGq4PM8kBcoDS4SGLDxP9p/bth3/dvXq4//1L/+SftD/386dY/H6L//zf57w2nS+//73f0/bzQO8DBo+zzNJwUrKACw8qx276ab0A96rBWI+vddoeZ5JCpQHBhhsyMBn0uh5nkkKlAc+OCtJklrJSookSWolKymSJKmVrKS0RETXZYj+N+oi84aqearE5736/eil3LEby6laXyx/uuuRJClnJaXFphOZl8pEBPAbloMHD6Zu7SVJmk1WUlqiLgoyaLWIHmZppYiWiqp5iOlD9/G5+Dy6o6dlhWVFj679ogzfeuutxbvvvntCC8nevXu707322mspLZYfr5IkzQh/QVZ/c7GrYp1E4SWyb/RwSpTemUTmJTLwIFGGWVceGZjxiHZc/kyaCYskSYHywJaUMcHzKUT4HZZBogxXOeusszpjkiSNhpWUeabpMymff/55Z6x/lOHpGMWzMZKkyWIlZZ6peialyldffdV9JqVflOELL7wwVTjyZ1L6IR9PP/10550kSYOzW/yG5lN33XEr54477kivo8ADuJdddlmq4EhN2S2+pGC3+BoZKyiSpJmyJaUhr/Ck0fM8kxRsSZEkSa1lJUWSJLWSlRRJktRKVlIkSVIrWUlpiaYRjYehX3TlXiKfiH5T+vWfYsdukqTpsJIygaYTXbkJKiJUSMqIoEwkZUmSBmElpSXqoiDTKRpD9PgaQ1QG8vSbbrop9SALWjxIC4xHCw3LBS0iEVmZ5TEwP+9Jj9YPusknnTSiH4dy1OMvvviiuPjii9N4YF4iKBNJmfHyOvN85Xmu215J0gShnxT1Nxe7inUSnRhEJ47Iw0QrJnIx8nSiJPeKXByRk2Nb6qIh49lnn03LZpmLFy/uRmBmXcw3iHzd5XXmn+V5rttezW8WSZIC5YEtKS1HTB188MEHxa5du1KrAi0m77//fjc9IhITJXnQ503yaMgsk1szrOORRx5Jy+Y2zfnnn9+NwDyM6Mf5OuvUba8kaXJYSRkTq1atKu67777iT3/6Uxq2b9+e0s8999x0mwXcIonnTYhqHLdrkI/XWbNmTfHMM8+k5T/33HPpNs7y5cvTMmP+Tz/9NL1WYZpBb8ssWrSo+Nvf/pbG4xV128vym2yLJGn8WUkZExs2bCj27NnTfUbjlFNOSem33XZbsXv37pR28803dyMX0wJD6wfPktASsWzZspTeCxWBa6+9ttt6sWTJkrSMBx54oLveXpWQqmdScMstt6QKD8+klF133XXpc55T+eSTTzqp9dtrdGVJmhzG7mloXGKK8INOy8N8ZXTl+c3YPZKCsXs0dqygSNLksCWlIa/wpNHzPJMUbEmRJEmtZSVFkiS1kpUUSZLUSlZSWiIC9003wCD37mZL5JF/EvUS3elLkjQdVlI0Y3WduNF/y6OPPtp5J0nSYKyktEQ5wCA//BGIjyEqAdE6QRodruXoQ4R0Pv/ss89SWj49nwdaXmgRIZ2u9J988sm0Psaj07U8DyzjtddeS+mRx16BBSVJmjH+gqz+ZntXEWyPQHwE9iPA3quvvnpSsD+C8BEIEOQvggMSxI+B6Qg4GNNv2rQpLQf59CyHAawrgvwxbSw/T2+K6ZlPasoiSVKgPLAlpaXosOyKK65IXd1PVVaKhQsXnhTsb9u2bamlI0QwwsD0X331Vber+zfffPOErudjerqcj27nly5dml7xwx/+sHjllVfSOl588cVOajPRapMvT5KkQVhJaam45cIr0YCJn0Owv3fffbcbYI+KQExXhemp1ESQPp4R4VZNU8TJ2bx5c1oHwQfrVD2TQgWK9LjtJEnSoKyktNQll1ySWjFoAbnzzjvT8x+0oDz++OMpjeHw4cNpujpMz3wx/WOPPZaeJWmK4H+33nprakl54403Oqknq3smhfUfPXq0806SpMHYLX5Ddtc9OCpGW7duNdaOGvM8kxTsFl8jde655xZ79+7tvJMkaTC2pDTkFd700OmbLSlqyvNMUqA8sJLSkIWnNHqeZ5IC5YG3eyRJUitZSZEkSa1kJUWSJLWSlZQWK0cbruo0baZi2fFapSpCMzF++olpR6VJ3iVJ48tKyhihm3s6dhsleoht0kvsoUOHOmP1Lrroos5YM1SCevWgK0maLFZSWqwcbZjeX+kWn5YDIhLnUZAZJ43PGKeXWCIXx48+rTB8FkO0yMSy4/Wtt94qtmzZksZDOUIzeOoaVCzySMm8R8TuiXUxRDRmps+79uc9w7ffftv9LPIZ84Nxto1XlPMuSZpn+Auy+mvDriIych6JOI9wvHLlyvTK50888UQaj6jJIMpxpBOZOKafrtgfRFsmWnPI91M+zvoi6jKRlSPqcnl7UJfXfNs0P1kkSQqUB7akjLHbb789RSemtWTdunWd1KI466yz0iuxcwgwiA8++CAFKozWiPfffz+lD8OKFSs6Y/VYH7eqWP8jjzyS8hOidYQgiuiV19g2SdL8ZyVljF155ZXFww8/nAIRMh4I+Adum3B7CKtWrSruu+++bkTk7du3p/Syps+kDIooys8880xa93PPPZdu0ZC/RYsWpaCJpHOrB03zKkma36ykjBG6l4/nNUBLyerVq4tvvvmmWLp0aUrD/v370w8+01EBwIYNG4o9e/akNIZTTjklpZdVPZMyXSyH51B4poSKxrXXXtttHVmyZEnKP5GcI08MVJCa5lWSNL/ZLX5Dbe2umx/8n/3sZ91WCH7UxyXyMH9RPnDgQHHHHXek9zx0S4Vk48aN6b0mj93iSwp2iz/mouUhKijjZvny5cWHH37YbTH5/PPPT7htJUmabLakNOQVnjR6nmeSgi0pkiSptaykSJKkVrKSIkmSWslKiiRJaiUrKS1Br7H8wyVi2kiSNOmspLRE/I2YSMeSJMlKiiRJaikrKS1CHBtJkvQdKyktsnnz5hR4j1g3kiRNOispLbJ3795i586dxTnnnNNJkSRpcllJaRHi8CxcuLDzTpKkyWYlRZIktZKVlJZ45513Uh8pRAaWJElGQW5s1NFZudWDpUuXpldpEhkFWVKgPLCS0pCFpzR6nmeSAuWBt3skSVIrWUmRJEmtZCVljpx33nkpqKAkSapmJWWOPProo8Xu3bs77yRJUpmVFEmS1EpWUubIggULOmOSJKmKlZQ5EvF57rnnnvQqSZJOZCVljtB5Gz3Mbtu2rZMiSZJyVlLmyNGjR4vTTjut806SJJVZSZEkSa1kJWWO7N27t1i1alXnnSRJKjN2T0PDjilC1OMLL7yw804SjN0jKVAeWElpyMJTGj3PM0mB8sDbPZIkqZWspEiSpFaykiJJklrJSsosINoxUY9/+9vfdlIkSVI/VlJmwdVXX52iHkuSpOaspEiSpFaykiJJklrJSookSWolKymSJKmVrKRIkqRWspIiSZJayUrKLCCYIFGPJUlScwYYbGgmgc8+++yz4ujRo8UPfvCDYunSpZ1USWUGGJQUKA+spDRk4SmNnueZpEB54O0eSZLUSlZSJElSK1lJGQGCCRJUUJIkTZ+VlBEgmODu3bs77yRJ0nRYSZEkSa1kJWUEFixY0BmTJEnTZSVlBM4555z0es8996RXSZI0OCspI0DnbX/961+Lbdu2dVIkSdKgrKSMAL3LnnbaaZ13kiRpOqykSJKkVrKSMgIEE1y1alXnnSRJmg5j9zQ0SEwRoh5feOGFnXeSmjJ2j6RAeWAlpSELT2n0PM8kBcoDb/dIkqRWspIiSZJayUqKJElqJSspM0S040svvTR13iZJkobHSsoMXX311en14MGD6VWSJA2HlRRJktRKVlKGYNGiRZ0xSZI0LFZShmDz5s3F9ddfX3z88cedFEmSNFNWUoaAbvB37txZnHPOOZ0USZI0U1ZShuCzzz4rFi5c2HknSZKGwUqKJElqJSspM0QwQfpIWb58eSdFkiQNw99NDUbzkiRJrWMU5IaMziqNnueZpGAUZEmS1FpWUiRJUivNeSWFB0/tBK23eDhX0mh5rkntMu1KCveKXnvttc677xANuB8KgUD/Ig888EDPTtDOPPPMzlh7Ucki0CD7hIH9EBUvtjfS889/+9vfnpTOUMZyLrroos47abJ5rkmTZdoPzkbl4S9/+Utx2mmnpXEKhD/96U9pvA6Fwzg+GFeXb666fvKTnxSLFy8u7rvvvpR27733FocPHy7+/d//PUVHpuDbtGlTcc0116TPFyxYkIajR4+m3mr/8Ic/FG+//Xb67MILL0yv4aabbiq++uqr4o9//GMnRZq/epUPnmvSZKE8mHZLCpUUWkGuvfbaTsr3KEyosDCcd9553ZP+nnvuSa9x9cMVDgOYhmn5jMIixBUPy+QKKpYZrTgsJ9bF5+Wm2ny5sf5heuutt1IhSaG5du3aNFBR+9//+393pjgZhebSpUtTIXnGGWekNMbLhSbI/3XXXZfG2Qb2O6/sl3w/sW2k5elsd4zzyme0XjEwzr5j+aeeemp6z/R8JrWR55o0gWhJmY41a9ak1/Xr1x9/4okn0nikbd++PQ1h2bJlx6cKlzSerzKm+/LLL49PXR2lV2zZsuX4s88+m8Zj+ldffbWbxrKq1jV1hXT8o48+SuNgeaw7ljt1hZWWMx11u4p155+RrxjIC3ni83yI/KI8f468sl8Cy2R7WGbMxzrYLzEe+5LvhIHpQRrj5fSVK1em75B5SWfZ0lypOxfguSZNFs61GT84+/vf/77YtWtXulII+/btK37605923n3X6kJzax2aac8///zubaNt27alVpHcD3/4w+KVV15J6S+++GIntSg2bNhQnHLKKenK5LHHHktXToHl0nxLaw9XRG+++WbxySefdD4djtNPPz29RsvOqlWr0pXbG2+8URw7diylYaqgo3RMwx133NFJ7W3Pnj0n7Qf2JVeBsX9Zx5EjR9L4j3/84+Lv//7vi6+//rr49ttvi0suuSRdeT755JPpCu7GG28s/vznP6dhqrBM83BVyjTM+/DDD6c0qY0816TJM+NKChWLRx99tLjhhhs6KUVx7rnnFp9++mnnXVEcOnSo+MEPftB5dzK6lH/33Xe7t2poTqVpNPfQQw8VmzdvTulTVzmd1KLYsWNHccEFFxTvvfdecfHFF59QgWG5VH5oEmbYvXv3CZWnYaBwmrpSSvfGKTxZPs24U1dTJ3SV//nnn6cH+xjyCl0d9sVzzz1XbNy4sZNSLwrvqSu0Yurqrpi6Skv5oACfunor7r777lRQst9YJpW1q666Ks1DpY3vj/lARU9qI881afIM5S/IXG2sW7eu864obrvttuLll19OrRe0cPDsCicxtmzZktLywoOKzuOPP56mZ+BqgwIpx73iW2+9NV3tcOUUKADuvPPONB/rzCswLPf666/vLpdCoVdlaTpYx0svvZQKz5///OfdfwdwBRUtQ+CBPT5jIL/9cP+dZfb651Ngn7BfqaRxdUfLVrQoUXnkau8f//Ef07JYJld6sVxaoS6//PI0HyhkpTbyXJMmj93iN8TDbnO5q5Zt+I/O2OgdfvofOmPS7Jrr8wyea1I7UB5YSWmoDYWnNN95nkkKVlIGMNeFp1d3mgRtqKR4rkntYCVlAF7hSaPneSYpUB4M5cFZSZKkYZt3LSn8a+jf/u3f0vhZZ51V2bPkdAx6hcffGuk/If7VJKk/W1IkhUYtKfzoM2H+l2F+gJv0P1CHvwPThwHoMGmY+HsylRP+7jesCkovbEd07x/bBPpvoe+X2VCXhzK+s/Lfv6X5pOm5MG48xzWp+lZS6EGRgF28BnpybdL/QBN09DZM9DBJ5aTce+RsoxOnucxDVUFGBY7+bJr0ByGp3TzHNQn6VlLoyZWO1ngNdKpGKwEtIqClJURtH9TmoyM1avdVAbViXnqSjWmj5YYWG37oY/7oDpv0mJYhTtY8nemj19ry9HGVka9zusEH6RyOHicZoqM48sP6wb7ItyH2DVgnaXxGXshn3rJER1CxDVQSGfJ9ynKZpyoPdBrl1ZQmTdW5QHnCucYwSFkQ5zEBA+Mz5gfTx7mbpzMe0/N5lFl1ZU25DIDnuJThmZQ6BNMi2B/yoH8ExiIAV8gXQzAuhhgnmBaYN9KZN4JrlbPAdAQCRF1QQfISyyLI17JOAK983SCd+ZiegF7gPYG+kOeD9bCsOn121QnIfyyX/BBULMRy2LY8nbyyftLYZwyMxzS8kvd8G1lH7N8mmC/2p9RGg5xnTbHMOE8GKQt4H+clYt4ocyI9L7NYTiyf+aPMqlp+XRngOS59h3O3Z0sKsW64bUGNnlfeD4I4F8Tc4cpi//79ndR6XBWwDlpuUBdU8IMPPkhXFKA77LhlVBfYkOnpvprtIC/vv/9++pz1vP766+lKhvzlXWvPBK1O+fMwK1as6Ix9jzge5COumAiEyG20K664onj++efTQLfZUwVpaoHilYdwewVU7IWrtKeeeuqkcAPSJIjbH4OWBZQhMX7ZZZelh+E5T/P0JUuWnNBKzDNxZVXLrysDPMel79VWUjjpaGbkB5fgfLzyvuqWDQG+ormTkzhQCHDicIL2u0fK/MS+eOaZZzop9UEFCWB44MCBNM58cYukLrAh0VKJQBqBBqeuNtLn5I+Iy2wbBUTVPd5BkdfVq1d33tWjMjV1FdXNE/uIvFLAUCGkMGWfsU+mruC6ARx7BVTMlbeFih7rI06JNKkGLQvyZ+aoZFB5IJgh6VHmffHFF33/xVe1/LoywHNc+l5tJYUTI34YA+9Jp5WAE5TaP+66667iJz/5STpJcqRzNUB6hDjHLbfckgL/5fdTb7755hSc69prr03L5ce+LqggAQxpNWE6pieAYaRXBTbkyoRQ7KQzUNAgDz6IPJLqdNHyw/r6iZaWWD9XV+SVK6xly5Z1Cz0qLURTjaujXgEVc1X3q9nu/HuQJs2gZQEXYFQwSOfC4corr0znKGVLTE/r7/3335+mr1O1/LoywHNc+t5Y95MSD6Hyj55R4+G7Md5VyWzuL2k62nSe0VJBZYRWjnHhOa75hPKg77972ipuO8WVkPo7++yzUwtU1S07SePPc1zzjbF7GpoPLSmgeZgH/eKhP6lN5st5Npc8xzVfUB5YSWnIwlMaPc8zSYHyYGxv90iSpPnNSookSWolKymSJKmVrKSMQPSFEK+D4Kn8eDKfv0Dyl0KGcsdNOR6Uo1+Ycp8Jkk4+H6OPJwbOm4ivg0grn09V6bG8eK1Dn0/MJ2lwVlJmGRUOCq06dJZX18MkKCCjp8tg5FOpuaeffrr45S9/mfo/oaPEe++9N6UTwJPO1Ojp9dFHH+12ZlmXXsZ5WXWhQGdvzCdpcFZSRoDeJfNXIp3Say4DYQN4pTDj6oqrMN5HAUfsDQbmqYp8SqiAXpUYSScqn490dLZx48Y0nvvzn/9cXHPNNWmc3mAjrk9denm5dI9PN/aShoi/IKu/meyqiIQKIp2C6KsR3ZSopURYRR4BtSkjn2q+mO0iiSjERCNGHqkYcd7WpTfF9ERcljQYygNbUmZJxP+IOENcjUV8jkceeSTFBZkObh0Z+VQaDC2XtGASdXzt2rUpbdGiRek1RLywuvQmaBFFxOKSNBgrKSNGYUghR4RT7oFTMGLq6ipFfI774tFk3E/5mRSWZ+RTqTnOHwKTEsA0zkdwq2bv3r1pnAfVV65cmcbr0svilm2OyMek2029ND32ONvQTHrC5NmTvItqKizHjh1LLSlh69at6X43hdnq1atTxYMCroxClUIzv6duUDHNF7PR4yznEC2ZZ555Ziel6AYRpGUzLgJ27drVfRi9Lj1HBYVz86uvvuqkfId54/yW1BzlgZWUhqZbeHLldeDAgW4FggoFQRGrHtybLispmi9mo5Iy26ykSNNDeeDtnhFbvnx58eGHH6aCiuHzzz8vrrzyys6nw2HkU6m9zj333O7tIkmDsSWlobZf4dHUbORTjbv52JICWlRtSZEGQ3lgJaWh+Vp4Sm3ieSYpUB54u0eSJLWSlRRJktRKVlJmAfej+QcOA+Mo93cyE1XLr8Ln/B2aDuCazqPhyfdz7HcepgadfvGXWL+L0et37I/ynODh9vjOe8nXz/lKnqYj1tVvnXwe+yV/n2uS90H3G8c9yyz3L1MlzxO3AcZBue+c/G/vVeK4HFQcs/2+n3FkJWWO0EfKwYMHO+/640DPO57qp64SRKCzQZYzH3FC9wryOCoXXXRRZ+xk9Ilz4403dt5pvqLn2eiTpZf8WOF8HVb3AuUfzUE0yXuvY7zKgw8+mJY5X4OjUsbn/WEdOnSoM6amrKTMgnKgQH4g33333eLWW29N4xQcFETUgmnpiNDxFCak0aU+kVc5ofNpGZhmOoEIy/NQC2fd+bIDeYxgiNHNN+/jL8/MQx4RlamqfOaoKPA5A1cXLDeuqlh2VLBYdyyDIXAllU8feambnmljfb2CPIL3bE/kjbzynmljO8EyY37Wi9gu0viM92BakM56Y7837WlYw1N1vsR3yXdHlwGh6tgH46Tl3335eIpjkvccN7zmV7v5OcB8sfzyscJ0cRzl+WEoH7O88nmUIU2DIPJ57Jc6ed7z86wu34E8xrTkLfZX3fSM59PHfuyH6av2Qfl7IT98Fucyn1Oe5OUZaVXbmCMt1hXfT16OMj9lPGU90yFvAWL+yBeRtsvy/cYQ+6gqX/O6POHfPepv2LsqD1pGgLMIEEggsghgRuDAmCaCCPKeoGhffvllmjaCozWRL6+MdIIfslxE/nifp2/atCmt84knnkgDmJaAiSCtST7JC5+Dadi/+ToinzEN8nSmjwCNLIsBddPHPkW/II9MG9tGvmPbEPOSnq8r9lG+XciPm37HUK/vZ1IM+zxrgu8yPz74/vge+D6rjn2QHkED41jhOInvj+mYHvnxxOexrvKxkh+P+X6I47ucH47ZfuuYLuYvH4v5cvPPyUfkqer7i/yHfN/VTZ+flzFvvs6q+fi8ah/UnefkA8zD95B/j6jbRpD/WA5iWUyff0d5PhD5Lh9zrJNl5vuK5Uee+KxJvuYb9pctKS3wwx/+sHjllVdS7Ttv/aB2TM2YGj9XdwQRpK8FgqLdfPPNqev8hQsXdqaeOVoNyv2s0FxJN9/EOqHm/uabbxaffPJJygvdg3NF8stf/jJ15c84aU3zuWLFivQa64zXM844I71i6oRP+4UrhvIVVVUTca/p4yqrSZDHs846K72S73yfxD1l9gHzxxUN+yhu38V2aTzwXa5atarz7vvvr+7Yx+7du4vf/e536Uo4cDxEXygELST8RYjjqSw/VtatW5fCZdQhP/k5Sr9I+TFet45RYNtef/31tP379+8/qdzI0dFk3kLDNhw9erTz7mSnn356agnmfGXZg6jaB3XneZRZL7/8cvH73/++W56Rjl7bSK/hUxWHVNZEK0qoKkfLysfce++9d1IQSvJJnsg3+4LtwCD7fj6wktICnJCbN29OzXhTteROapEOxJdeeikdlHzGwcgreOUAjh/cMpoGoyl4Jugx9/zzz0/3jRkonClw4oTas2dPqpRcddVVaZxKwiD57IVt4ERlGTyzUY5GW1Y3PfthmEEewT6g8hX7hWXHrYNhoNlYs4Mem/NbPDFed+xznHFu8p3z43L33Xen6aeudLvfW347oRd6oA4vvPBCsWDBgs67k5EfnmmI85pbN4NGV2Ze8j9TbBvnGNtPRa7X8UqPu59++mnn3XfPZfQ6V1g25zD7dxjPqtSd57/4xS9SmcU+pMyi7OI9ZRl6bSMXk1QwyeeGDRs6qc1FL+GBCkf5oopKzH333dc9/rZv357S++17llNe1jizkjJHbrnllnSycJATjZV7l/x45mHgf/SjH6VnUeJqnRo7FQJaXXjP1UHdD2u/Z1Ka4uRlHZGHxx57rFvAkDdq95zkFCaM03qCpvnsJQooltGkwK+bnm3gqie2gYGTmJM+rpKZnivTpuKKOZbHFU2/H4wtW7akwqjJj8Tll19uRWWW0OrBDxTfDd9lqDv28+OMYdOmTek9lXHOY9J27tzZKD4XPzKc96ybK/hYdtWxQn6o7Md6qTTdf//9nU+bqXsmpUpsCwPlVC7fL6AChap833bbbam1gmn5jG3oda7cddddaTr2y5EjRzqp35eZLDvW00Tdec73TuvYz372s/SesosyLL6Dum0E5RuVSj7bsWNHsXjx4s4nJ6KciGdLcqybyhvbwGd89+wTQqY89dRT3coPlabIA6036JUvEBG/SXk5LuxxtiEeeJrtXcVBSA06nHrqqalQmy4qOVwJxg/spODHftRBHochvh8KHW6T0QTND9MkmYvzbK7EbQIDg2qYaMXjdtJ8OK4oD2xJabG8xsxVBc2fM0Wgs0m7QudHf9RBHmeKK6do/uXfR/yTa9IqKJJmjufo5lPF15aUhubDFR63OHhgjSbrfrcmNLtowuahSSpUk1w5maSWFEm9UR5YSWnIwlMaPc8zSYHywNs9kiSplaykSJKkVrKSIkmSWslKyizg3zT83ZBhnP9Zwz9j8tcqVdvK9NEfAL0xRryJOv06nIpeX2dDbAvI/1x8f7Eve+13NVd1jA4Lx210tjao8nEf33e/750+MfqdU9K4spKiaRuk90qiL9Pny1/+8pfU62Ov+cqRQ8uMJKq24riN8AiD6nfc1/Uk+oc//CH1QCrNR1ZSZgF/+aWTLgbG+XGn3xOukBjiB5snmUP5Cp6rJeahFYF03tM6ET0LckUY76PVgulinlgHr7FepotCL9bBK1dleQ+TzE+e6bcF8VrVe2V5W6vQO2N0/826Ir+xznLk0DxviP1EnkiLgW0jLW9pYZnsh6ppc/l3Qn7oEKmJ2McxX3xnTfJG53yxzURBZci/H5bLPLEvY79rZqqO0fw4zCPSRjpDtFbEuRbfOwP4LsvRzeNzhjjm6o6Z8nFfPt/oSZSeVqWJwl+Q1d8wdxURLIm6SfRKoltGZNV8HXk0TKJeRjRMpo1omFhWE32TaWK5eSRRXusijFZF3GTaiLQ6XSyb5fE6VUFJ6wX5Yz+EyH85cmieN8R+miqwK/NMfiNKKPPyWd20gbxEvvg81l/+HmK5gc/ybeiXN6ZlnzIwHvPyynT5+lhXfFeTYi6KJL77/Hjju+K7KB+HHFccI6Tn51p+XOTjdcdA3TFTXl9TUQZI8w3nhi0pc6BJhOCyflF5wXh8xmssN49J0yvCaKyDjt6mCr505cdV5TXXXJPSZyJu9/z5z38utm7dmtJ6RRIuq4puWhcllPzSs260ErE9ddOGukjUTVRFPa5bH9/7888/nwYC0039eKV88ko+iddBl/1cYRMrplfAOQ1HXURaQink6UTnjlgy+blWp9cxN6xI2RwnN954Y+edNP9YSZkD0cTPK4VYRAjmNghNxKBr9FGgsGS9/SKMEvSQCgoFdl2sH/Javm3SD+tkO5mP5nYqaRHlc9BIwnVRQskv+X766ae7TeV104a6SNTTVbc+ApMR1IwfMPYFQRppwucVBCu74IILUv65lTaMIJHqrS4ibTk6MuEUqOQ31e+YGxR5iop3YLkEpJPmKyspc6AuQjDRP3/yk5+kq/lRqYswWhYRQtetW9dJOdkgEVVzRPz8t3/7t27lh/3AEJGESY/7+b3URQkFP/o8UBj7ste0qItEnUclzaOw9lO3Pq6+aaViO8GxwIPEvIIw8RwTzEPk2GFUmNRbXUTaPDoyA5XrfudmHt283zFX1u+4r3omheOJVjhpvrJb/IYmsbtumrSpqMQPqk62bMN/dMZG5/DT/9AZm//sFn9w7jPNVxzbVlIamqSCgJYCWiJoRTGMvGaTP7iDo5XnV7/61UhbYKW5YCVlABaeqmJLynB5ng2OW0Tceu31jJk0jqykDMDCUxo9zzNJgfLAB2clSVIrWUmRJEmtZCVFkiYMz7GU+1yR2shKyiygzwT6PqBgkNQ+xM8ZVaRp7quDSsF0l5935DaT5QQ6DSROEGVTxA4ahqYRpqM/GNYv9WIlZRbEXwOnGx1V0vijvyF6iJ0Oeh6O3odnspxA/0eUSwyj7maALg3KF2hRFvq3afVjJUXSxCtHmuZHlR9QrvbphySiYtNCED/upJcjIxN2gnkYyj/MeUtNtCTEEK0O/KBHGsuj1YQ0ej1mYH11y2H6aJmIfEZ63loSeUW0eiBafBliu+qWH8uIdTCgKsI0IScM76Bp4y/I6m+mu4qopxEdVVK1thRJvaJi5xGMiWxMpOpyZOQ8AnJsUx7lmM9ZFpgnIhmTFpGv8yjlvMZ4vpw8HSyH/JJWFWkZeZTwfH6WGemsm3zVLb+8vfm8TTDtTKOra/7juLUlZZYQvK5p3BdJc6tXVOw8gjG9Mh87diyN55GRL7vssp5BQgkwSWsDmOfQoUNpvFeU8ioERozlgDwcPXo0jddFWq4LGkqAz9dffz21kLBu8tVr+U0iQVehDKQsHEZ0dc1/VlJmyd69e4udO3faK6Q0BnpFxSYacnjhhReKBQsWpPGoaIAf+14BBQloeODAgTTOLRV+8NE0SnlgOZ9++mnn3Xd56BVJnGUTQLEK6962bVuqxHz11Vfpls6gy69SfiaF7aIspEyU+rGSMku4t7xw4cLOO0ltVhcVG/yAxzMp/OBHZYIoyfFMCi0lRNAGkYvjGZBw2223pVYKpr322muLBx54IKXXRSmPaNzxrEhgOUTLjmdGWE6vgKC0DhGduQqtG/nzJcuXLx94+VWqnkmhLIx/K0m92C1+QzPtrpuTfOvWrZXNrJK+0/Zu8eMh0/I/Ymh14Ad8pv+6mW112zNq47q/NLvsFn+WcELS3MmViSS1Abd+aJ0p386aDdwyokykbJR6sSWloZlc4UWz5qDNpNKkaXtLiobHclH9UB5YSWnIwlMaPc8zSYHywNs9kiSplaykSJKkVrKSMgL8VS+6j5Y0nvhHHg925l3KN0Uz9Wwhf+Qz/jpchzKp/Fdoqe2spIzAo48+WuzevbvzTpJmD/+aqerZmjKJskkaJ1ZSJKkCnZtFwDx++PNgelEJ4JXWCdL4PO+gjI7XSOfzSC9PHz2x0vJCiwjp9D775JNPps8Zj1bZPA8sI4IeRjC/CI74xRdfFBdffHEal8Ye/+5Rf4PsKgKERQAwSc21tUgiIB4B+wioR4A9AhCCAIMRWI+0CJrHdkSgwDxIXwQkBEH8CDSIfHrSIj0PblgX9LAppmc+aVxwXtiSMgLRTXa5C2tJ44meoq+44ori5ptvLqYqK90QF++//363F+m1a9emmDuhKvYO0995552pNeSRRx5J3eeHmJ6YPxH3J+9DpFfQw36iLLJPEo0bKykjQNMuTbME65I0/uKWC6+7du3qxtpZuXJlt9dUbr8Qu6cXend95plnUnfwzz33XPcWTRO9gh7mqp5JoSwiPb8dJY0DKykjQCjz6YQwl9ROl1xySWrFoAWElpCoXFBhIRAh6UT23bhxY0qvs3379hRQkOmp0CxZsqTzSX+9gh7m6p5JoUyibJLGiT3ONjRIT5hcWRk8SxqcPc6ODhUjg5xqnNjj7Ijs3bu3WLVqVeedJM29c889N5VN0jixJaWhQVtSvFqRBmdLymhZNmmcUB5YSWnIwlMaPc8zSYHywNs9kiSplaykSNIMxF+QJQ2flRRJmoEDBw50xton+myaVOO+/VUxmCaNlRRJaqAcbZgfQPoseeqpp06IpdMU0zMfnbOxXJYf66gT645XMD2xfvgxZv4cveN+++23nXfzQ1VndXWms/08B9EGHB98ryBP5eMrPwaGieWWj0GO0fKxlSt/J1XH6XRZSZGkaaBrejpYu/HGG1OfSLfcckvnk2bo/I2oxFR0qvSqrOQ+/fTT4qyzzioOHjzYSfkOlahly5bNu67w2U461Otn3Lf/X//1X7udA7IdHF9z1SrEMXrHHXd03p2s6XcyHVZSJKmBcrRh4uvwQ8KVOr25Hjp0KKVzxUmhzlUkV5dchUbk44ihQ9q7776bepBlPKItxzpw+eWXn9RiEOuOV+Z9+eWXU/8nDJ9//nm3ckMlinhD/LCx7hjic5Yd+eI11hX5ZyAKM3nOIzrHDyVX90xbnr/fciM9rszL+es3PfuMfUc62Acxbx4vLbYfkX8GpkeeT9ZDpSbk2xvp5eljP/Ce3oNjf5FP3jNtHiYhX2ZsC8skrbxMXt97771uPCeWSweh9FZchWVH3tg+5meecOqpp3a3m9YZhrp1VyG/keeq/V3+TsrH6YzwF2T1566SRm/czjOiG09d5aboxhEZmTQiJoOoyXzOK4iSHNMRlTgiKM9ErIv15lGOyRPrJaIynyHyg3z9zBfp5fzzneT5j3lIj8jNbFPM02S5iO+a/D3xxBNpnOnJN+qmZ9msI+TrI0p05DW2H+Qh9k2si89jvplEsGb9sUyWE/lHbDvrjumR75NYPnnJlx/piO1lf8S6Ii3f92DZbDdpLI+B8ZiGV/JTt+58f4Z82qr9zfvIzzDxXdiSIknTRBM4t3sIFkhzfFx1r1ixIr3SDP7VV1914/W8+eabxSeffJI+GwaubomszCvPxkR05Ljqp4WHSMu00CBv8SH+T3Tsxi2RqR+uNI7If8Qgi9czzjgjvYa40icC9DfffJPGmyw3R/6IgcT+oeWB7QlV05cRefr1119P27t///6U13z7sXv37uJ3v/tdSgvDjGDN7TYQHTvWiWjNoNWN/UCLRbRIYMOGDekz8vXYY48VCxYsSOnEibryyivTeO73v/992ldsX+B4Im/ki4HjjeOOVqTnn38+DXfffXdaP8cnr3wvdevup2p/j5KVFEmaBn4Q4tYJhf7ixYuLY8eOpfdh+fLlxfnnn5+eWWHgxzIqDP00eSaFStLUlXt6nbpC7j43QHP+L37xizROd/jxD6T8NgDzxY9dPL8xqKiU8VDnokWL0vigyyWEyH333dfdR1NX7J1PmqFiQ5Rnbo/wA81+y7efvPCjyo8r0/CDDfIZ+5j857dmqqyZQQRrKo9UuLhVQuUg7Nixo7jgggtSvggKyXR5RaKMCgHPMd1www2dlO9uQ/Ldx/5jO7llSFBMKsVUpqh0Mc+WLVu681atu4mq/T1KVlIkaRr4MeVefPy7Z926dSddgfOjwo9ZXOVyxRrPnPRT9UxKGT9o0dqQX9nzA0LrAG677bZi3759af206PBsA7gi5weLdH7kXnrppZQ+CH7YmP/ee+/t/vgPulx+tPfs2ZOmZ+DqvhdaP6hsMS3y/Qsqhvn2x3cS02zatCm9n80I1lQYXnjhhTQvlQMqtLjqqqu6rTM8W0RF6K233ip+9atfpc+rsP0cayFag1gGA60bVHA49qggRmWHPFC54hVV6w6xXxjiWZZQtb/L38lQdW79qA93lTR643iexb36SWOZODv+79R+/u9Dh9L4fz74YHrPa1vf/9cLL6TxYeAY8yhryBNSGr1xPM/KDxlOCsvE2fGf27Yd/3b16uP/9S//kioE/2/nzla//ve//3sn5zNnJWUAnpDS6HmeSSc7dtNNqQLQqwWjTe+HhfLAKMgNGZ1VGj3PM0mB8sAHZyVJUitZSZEkSa1kJUWSJLWSlRRJKqF/Evo+6ddPiaTRspIiSSV0AEaHWXTxLmnuWEmRJEmtZCVFkir0655d0uhZSZGkCkShJS5POXaJpNljJUWSKhDojQB5hNeXNDespEhShSNHjnjLR5pjVlIkSVIrWUmRpJLPPvus2LdvX/HTn/60kyJpLhhgsCEDn0mj15bz7K9//WvxxRdfpP5SJM0NygMrKQ1ZSZFGz/NMUqA88HaPJElqJSspkiSplaykSJp499xzT3HTTTd13klqC59Jach75dLozeV55jkutYvPpEiSpNaykiJJUxYvXtwZk9QWVlIkacpdd91VnHfeeZ13ktrAZ1Ia8n61NHpzeZ6deeaZxV/+8pfitNNO66RImkuUB1ZSGrKSIo3eXJ5nnuNSu3BOertHkiS1kpUUSRPvj3/8Y7FmzZrOO0lt4e2ehmwKlkZvrs6zjz/+uFiyZInPo0gtQnlgJaUhKynS6HmeSQqUB97ukSRJrWQlRZIktZKVFEmS1EpWUiRNFP7Jc+mllxZ//etfOymS2spKiqSJcvXVV6fXgwcPpldJ7WUlRZIktZKVFEkTZ9GiRZ0xSW1mJUXSxNm8eXNx/fXXp07cJLWXlRRJE2fv3r3Fzp07i3POOaeTIqmNrKRImjifffZZsXDhws47SW1lJUWSJLWSlRRJE+Wdd95JfaQsX768kyKprQww2JCBz6TRm43zjFs9WLp0aXqV1E6UB1ZSGrKSIo2e55mkQHng7R5JktRKVlIkSVIrWUmRNK+dd955KaigpPFjJUXSvPboo48Wu3fv7ryTNE6spEiSpFaykiJpXluwYEFnTNK4sZIiaV6L+Dz33HNPepU0PqykSJrX6LyNHma3bdvWSZE0LqykSJrXjh49Wpx22mmdd5LGiZUUSZLUSlZSJM1re/fuLVatWtV5J2mcGLunIWOKSKM3ivOMqMcXXnhh552kcUF5YCWlISsp0uh5nkkKlAfe7pEkSa1kJUWSJLWSlRRJktRKVlIkzRtEO7700ktT522Sxp+VFEnzxtVXX51eDx48mF4ljTcrKZIkqZWspEiaVxYtWtQZkzTurKRImlc2b95cXH/99cXHH3/cSZE0rqykSJpX6AZ/586dxTnnnNNJkTSurKRImlc+++yzYuHChZ13ksaZlRRJktRKVlIkzRsEE6SPlOXLl3dSJI0zAww2ZOAzafRmep5xqwdLly5Nr5LGF+WBlZSGrKRIo+d5JilQHni7R5IktZKVFEmS1EpWUsZcPCgoabQ816TZZyVlhii40sM9neHMM89MkVjDa6+9Vpx33nndz2+66aZuQccr7+MzpqOXzN/+9rfdtHwoY9qLLrqo806a3zzXpMljJWVINm3aVLz99tvF6tWri3/+539O/zKgUP35z39eLFu2LH327LPPdkPJ46233ir+8Ic/pHQ+x8UXX1xceeWV6T3LBOPxee7JJ58s1q9fX5x22mmdFGn+81yTJgj/7lF/dbtqqkBLn23fvv2E97xOFXxp/Msvv0yfYaqQTGkfffTR8VdffTWNTxV+abyMZfJ5ncWLF3fnW7NmzfGpAjq9Mg/rDlu2bElpefrKlSu745HPw4cPp4Fx8kdeWQfvmZ7PpFHiWKvjuSZNFs4HW1KG5PPPP09Xc8QNwQ9+8IN0hTdVkJ1w9bVkyZL0euzYsWLt2rXpym6qQEpXgaeeempqfm6Cpm2wjNzWrVuLqQI3XTXSRM3V5IMPPlhMFYTFVAGe3nNVeMMNNxRvvvlmmoc0rkC52mRgnLgnjzzySLpaZV6mP3r0aJpemkuea9LksJIyJBRU3LOmEKIwpDMphjfeeOOEh+2++OKL9LpgwYJUsFKQvvfee6nwpJC68847U3o/e/bsKa6++urOu+9wj/7CCy8sfvrTn6b3FM5HjhxJ4z/+8Y+Lv//7vy++/vrr4ttvvy0uueSStE4KUQrsG2+8sfjzn/+cBpq1cd9996VpmPfhhx9OadJc81yTJoeVlCHhiorWqa+++qpboF1zzTXp9eabb05XfhSqPLy3cuXKdPXElVQUtlw5UYA1QUH83HPPFRs3buyk1Dv99NPTa1zdPfHEE6lgpVAnH3fffXcqKLkKZZlc8V111VVpnk8++aR49NFH03x47LHH0qs0lzzXpMlhJWWEuNJ69dVX0xUSBSQP+VGo/ulPf0qf89Depk2bUmHK5xRacWXYS95M3A/r27JlS3pIkKu7Xbt2pStL0KzM1d4//uM/pmWxTArvWO4pp5xSXH755Wk+UMhKbeS5Js1PdovfEH9LbOuuWrbhPzpjo3f46X/ojEnD1+bzDJ5r0uxJXQJYSWmm7YWnNB94nkkKVlIG0ObC06s7zRdtr6R4rkmzx0rKALzCk0bP80xSoDzwwVlJktRKVlJGhL8uNumDQZIkVfN2T0N1zdD0yXDgwIE0Tp8I/BUS99xzT/GjH/2o24/DKNXloYxeMfkrJH+NbPKXSmm2zfR2T9NzYdx4jmsSebtnhOiHYTYqKHUo1MrokXPdunUWXtI84DmuSWAlZYaIG8KVDQPjoPAgFDyID0JlhWispOXxQmhtIY3P6AmTW0R0tx3o7Il00KU2A1dKTM/AcpmnKg90DMW00iSpOhe4GuNcY+B8ifOHIc4RzrNIYzrEeUwHcPEZ84Pp49zN0xmP6fk84v5ULR/lMgCe41KG2z3qb5BdRaRTIrOC6KpEXg2xHCKq5unLli1LEVxJ++ijj9LAeEzD6+HDh9PyGMA6mK4p5nv22Wc776T2GUWRxDLjPCFK8RNPPJHGOZ+IOAwiGsc5yznCucj7OC8R8/I+T2f6iHLMcmL5zM97VC2/rgzwHJe+w7lrS8oIEMQsv2e8YsWKztj3iNXx/vvvd6+YiENy8ODB4oorriief/75NNA1Nt188wAur3ThvWHDhtSFNldfxPeIbrf74SrtqaeeSsHOpEkTtz8++OCD9LwG5xwtHpyDePzxx4vXX389nVf79+/vRlOmZTPGL7vsshQwkPM0TydwYf6Q/FlnndUZ+17V8uvKAM9x6XtWUoaMgoIIq/3QbDt1FZViizBQiNGMSwHD8ywUphSsPARHPBBesWPHjuKCCy5IFSFihLz44ospvax8v5pmY9ZHLBJpUq1atSpFHI7zbvv27SmdCsu2bdvSeUVlIc6fQ4cOpVdQyaDysHz58pQet3iIttwvBlDV8uvKAM9x6XtWUobslVdeSVdC/URLS1xFcXVFQccVFsHHotCj0kLE1Lg6ImoqIeaZ5+WXX04RVatU3a+mgI1w8tIk4tzcs2dP97zjnMD111/fTQMVESxevLj7jAkXDgQq5Bx94IEHutPv3r27uP/++9P0daqWX1cGeI5L3/MvyA3N9K+RbRAP7d5xxx3pVWqbNp1ntFRQGaGVY1x4jms+8S/IE+bss88u9u3bZydz0jzlOa75xpaUhuZDSwpoHuZBv3joT2qT+XKezSXPcc0XlAdWUhqy8JRGz/NMUqA88HaPJElqJSspkiSplaykSJKkVrKSMkP8TZG//TGUO1eaCTqKyvtAiP4V4rUOfTrksUGkSVc+dzi3GGegV9eIr4NIY8jPP+bh3Mpjb5WXW4cOHlmepMFZSWkpusemQ6c6/MWw6m+Gf/jDH1LPlpKqPf3008Uvf/nL1P8JHSXee++9KZ0AnnSmRk+vjz76aLeXZyorVETo2K2X8oVFoLM3lidpcFZSZqgqOilPJHPFFVdlUXDxyvtyOldapDFEK8itt95avPvuuykN9FiZv9L1Nd3lS+qtfO7Q0dnGjRvTeO7Pf/5zcc0116RxeoONuD6Ep6DiQuyeXHm5dI9PN/aShoi/IKu/QXYV00bk0jzSaR4JlQisRD1FVYTUPILqIGKZ0jia7SKJc5NzFPl5iPL5x2cRnXgQLIfzXdJgKA9sSRmRiLq6du3a4ptvvknjb7zxRjdeB83KRDZGXQTWQTH/jTfe2HknqQ63ZgjIR9RxzlEsWrQovQbO15mKltGIxSVpMFZSRiSeF+GhvCj8Vq5c2b3Fw+cEEkRdBNZeqp5J4R47odol1aOCcu211xbXXXddqqgEbtXs3bs3jXMOcr4OouqZFM5r0queH5PUn5WUESG8Os+T8FDe3XffndJ27dqVHsYjnZDqL730UkrnnnY8k4KIkErhFmllVc+k0AITrTOSqt18883FoUOHip07d55w3vGcCpUJWiR5JozzdRB1z6RwXh49erTzTtIg7Ba/oUG6657Lrr3tVlzjbD4ev1SCtm7d2r3VK6kZygNbUuYZmqj5t5Ckdjj33HO7t5EkDcaWlIbG5QqPW0Q0O8eDu9I4ma8tgTzjYkuKNBjKAyspDc3XwlNqE88zSYHywNs9kiSplaykSJKkVrKSMguqghDSnwLPjwxD1fKr8Dl/r+TB2qbzaHjy/Rz7Pf7+SqdfZ555pt+FJGWspMwRggcSRLApKjV5x1P91FWCCHQ2yHLmIyoIc/EPqIsuuqgzdjI6/bK34NnRr4I+yoo7/bDU9X2Uy9fPsUqepiPW1W+dfB77Jd6Xo6k3yfdsyMu2Jvsztm3YWOZM9kn+vbIdeYd/08lvW76fYbOSMgvKQQg5OAkeSIdRjHPCUXHgIKOlI0LHczKSRo+0dAL34IMPnjAtA9NUBTl86KGHUodydcrzcFKw7nzZgTzyGWlRcPE+TirmIY+IylRVPnOcnHzOQAsCy2VgWpYdhRDrjmUwBB6oyqePvNRNz7Sxvm+//Ta9kqfYLt7HOnnP9kTeyCvvmTa2Eywz5me9iO0ijc+iEGJakM56Y79HcDpNBrrHp2fofvIKLccTQRGHgWO8fC7WefPNN0fy4z5T+QVe0/3ZRvn3Slmdl9e9LmgmDv/uUX/D3lV5MDMCnBFYEAQii8BmBDOLaRhnGt4TFI0ghEwbwdGayJdXRjrBCVkuIn+8z9M3bdqU1vnEE0+kAUy7cuXKNE5ak3ySlwi8yDTs33wdkc+YBnk600cQR5bFgLrpY58igjCS51gGed6yZUsaZ9rYNvId24aYl/R8XbGP8u1Cftz0O4Z6fT+TYtjnWRWOR/YzA+Pgu+d75rtjiO+B44J0jok4PsA4aQxx7nIsxbQsI5bNe45FXlkur4hjhYH5Yvm8sh+YjmXmx3eeH4Y4ZxiPdfB5nG+RtzyPixcvTuM5Po/9glh3uUwIeT4i37yPbWabyA9YDu9ZDq/ME8vP5Z/n2xD7ifTf/OY3Kf98Th7y/cn8sWyGfFv6fZ+Bz2P++Dzf/4hjlGWyrNjvDLGvmIZ5SGMfUp6wDYyzDsRyYz8zsM7y988QeY79iDw91jXfsB9sSWmBH/7wh8Urr7ySatZ5bZqrba60uXr/8MMPi0suuST1tUBQNLr2njpgi4ULF3amnjlaDcrBDbliIZ4QsU5oBeDq6pNPPkl5odtwWn1++ctfFqtXr07jpDXN54oVK9JrrDNezzjjjPSKqRM37RdaIvLmUFT1BdNrevYj2/DAAw+k94Ti56qMtEceeaT44IMPUjrOOuus9Eq+833CPgL7gPmZl4F9FFd3sV1qJ66+OT4ZGOe45bsndla0iIFWB3qK5Uqd4euvv+62cj733HMpMCjptMyB1k5up5JGXKDf/e53KR0cq3VX/KyTdXNu0crBrT8wfX6Ml/ND2fDrX/+68+n36yAPdPkPzoX8lWk4Vsv4PPZLYNrbb789ncO5uv3C9hOuAwRVZZvwb//2b6ksiPPjmWeeSfvu//yf/5Peh7/85S9pOpbJ/o1tCKRzvp5//vmVt6137NhRrFq1Kk3HOsqtlL2+z7B79+7uND/60Y/SPL2wjPvvvz9NT6d9efk9VWlI6ZR/R44cSd8z3zHryLGfudXLwHdf/v7Zr5SrvGf/sJ3IjzfWNV9ZSWkBbs1s3rw5HcT5wUZkZOL7cELzGT+WUYjyyoEbP7hlFHb9TrAmiCNEocCJwMAJRuWJAg179uxJlZKrrroqjVNJGCSfvbAN/HiwDE7ccpTasrrp2Q+Mx49KFG7sawoz0igUB7n1wj6g8In9wrLjVtswtLGZfb6iwsmPW4hKZl0FHZwHVEK4pReotMaPPJGVOSZCVHrL8grtunXrimPHjnXenYz85BcSS5YsOaEiXreOmSCeEeJ8xqguXOou1tCk4s+5z3kJ9hHxmXK9vs/AdzZIRPr8+7jsssu6FVZQwcApp5ySBkS5OYi6i6n8eIt1zUdWUubILbfckn4UOfm56uL5FE7OPDw8NXlqyxycDDzfwMnOicx7Dty6H9Z+z6Q0xQnIOiIPjz32WPfHmLxxonDicZIwTiGEpvnsJU48lpE/C1Knbnq24fDhw91tYKBw3759e7fAYnoK/aaicIjlUaD1K4C2bNmSCj8qU/1cfvnlVlRmydlnn51aKkOM11XQ+f74IeMHjdaCCCC6cuXK7nfGj3OTY/bzzz/vjBXFCy+8UCxYsKDz7mTkhx/euPigZ+lBf/SYt8nxl/v973+fWhfiR39UFy51F2tN0ZJx4MCBNM52RqtnqMt3ju+MC5w8Ij0VjKh8lC/88u+DYyIqI8NUdzHF8Rbf5aDf6Vjp3PpRH3Oxq6YOzs7Yd6ruJQ+C+5Zxb3aSsM1se2A8njlpk/h+4t583HueJHNVJPEcQH7fP3+GgbRIz59hiXTGkT8jwMB7MB7L45X34PtmmQzMF8tB5IdlMF0cv/kzFQxxjNSto4zlNSlHyvOzzPy7qdsvnFc8WxEYj2cw4riO+SI9xPNfTMP2Rh7y7QfTxXLzbWX5sex8+TE9216X71D+nGUyDfOTFt8LWDfjdc+khHL+mQ55eqwjjoH8+2eI5TPE90x6HAtMH8udT9iPdovf0Fx0180VBbV9cLuCVoryfdhB0BLDlds111xzwr3n+Y4rHZqYuU8Orvi4j9yvKXc2xXfNFWu0VA16lTwfTFK3+PHPr2H9c0eabygPrKQ0NB8KT25xHD16NP0ITuIPYJvRXMvzCDRJt6nyNNuspEgKVlIGMEmFpzRXPM8kBcoDH5yVJEmtZCVFkiS1kpUUSZLUSlZSZgH/techOYZx7vuC/kDy1ypV2/rkk0+m/kGYr0k/ITH/dNHXQaybdZX7NtDJ8uMy339V+KzXMYAmx8p8xPb222bus6PpfmS6mZwP0jizkqJp48e/SSdCDz/8cOocic6I7rvvvtS52yjRyVb8xZp10dOkessDmuX7T81FxY7jXNJwWEmZBfzll54NGRjnx53+TuKqK37o4woLeWsC03B1yzz0okg672mV4BUUkPE+Wi2YLuaJdfAa62W66FY71sErcW+id0gwP3mOng7jlR4vL7744jQeytsKem5keSyD7sKjEGddUbCXryrp9ZO8k8eIINx0G2O5rDOPNp1jmUzHcmI/5/gu8mliP7GOWDfrZZvy/UWrUd7TZT4O5ov9zHIidgjLIS0G1pP3Wsp78hT5YN2ksd6YJ/ZTLv+cIcT2xQA+Z5m8xvfC/LG9kZdcVb5RPlaGgXWx3eV11Z03fJ5/V3XfYaTn2xr7pG6dfB5p8d1znHG8kVY+niOtDuuNfPDKe7D/4pySJhJ/QVZ/w9xV9BiY92YY0T7zdeS9EdKTYL+ovCyT8ejxkGliufSiGMvilZ4Kkafn6yBPsQ6mjWim08XyogfFPF9574m8Ro+J5In9E5iHfDTdxny5+XiI/ITYhzm+i9hPLDeWHXkB62Q5vI/88spAGkN53+X7Od9mllO1/yNvfMZyY5r4PN8+8hP7JuT7kbzEtPn2IT/2Ypksi95JY5nkkXU0yfd09TrPWC/bQ35YV7/zhrzE9jJtfBdV6SwzP7ZI47O6dTIt71H1febjyL+nyG8+TRxLYHm8lyYd54otKXOApvRegbaq9IvKC8bjM15juXlMmtNPPz3FyOCqmHgzuVgHHb1NFcLpqpGWAXqonS6uROmkLOJhELPj5z//eefTenWB15psYz/E15j6gUlXyFWtKKEqaFdVsK+IWxRXwsRiev7559Pwi1/8IqXlqgLBsRz2Dcvlu2F5iCBtL7/8coqhEgHcSEe/gGh8j2wnV/6Rv1C1fTlukxHrJJbJd8iycnX5HoVBzxvyEret8oB/Vel1wefq1knvwOUAgzPBfiUuC9ifxL6R5O2eORHNw7xSIEWgramr1vSjjjya5jDxQ8J6KZh7/UjxQ0sFhYpFFOhl5DWav+twS4hAhCGvTNDV/9/+9rc0Hq8hD/jWL/DaoAi8SCWI/bBhw4ZOajNTV76Vwb74AZu6Ek4/aPzw8ePNDx3jTRCFl+d1WC7D9u3bUzqVHIK0UXGkskClg/cEbwPfZzkgWuC7IR9sZx4Vuil6v+X2RRyTVHTi2A11+c6Rj1jGTMS6eW1y3qysCfhXlV4XfK5qnWxPVYDBHMdrvs1Ntp9jiH1Mxadc2ZQmlZWUOVAXIfiuu+4qfvKTn5x0tTpMrINCkHUcOXKkk3oyflz5kaUVo07VMyllVIRYBi0gbC/Dq6++mj6jIkQ0aPJSDpkO0skrrQb9rvrr5NGmA/ufig952bFjR/qRa4of4arIyVQaqLTwQwcqFYNcZVNZovIR+yiiqcb38LOf/Sy9pxJES0DsD7Yt5gE/tiGmibz2QgWL/OaVTn4o+SGO5dP6xL6j0sqPLj+odfnO0XL39NNPd95N36DnDZUKnhNh+p07dxYbN26sTWdb830Z0b6r1pnvV4ZNmzal9zmmYZnsU/Y9lcsQ+zrfj2BfPvjggzNquZTmG7vFb4iH8yZtV1Gx4AfSOD+aCX6EL7vsstoWuVyv82zZhv/ojE2Gw0//Q2dMmkyUB1ZSGpqkSgpX09yioQXE4GeaKW6tNKmgYBIvBkBLH884ceus6S1Cab6zkjKASS08pdnU6zyzJUWaLFZSBmAlRRo9zzNJgfLAB2clSVIrWUmRJEmtZCVFkiS1kpWUWcC/GyKmSN7Z1lwrd7LF/b/o+6HcZ0YTzNcLn8e+qEN+mC7v10SaCY5ljydpPFlJmWBVEYKjx03+gkyPs6NUriQh8jPKDu00WR599NHUg6yk8WMlZRZURQam1YJOrhii9SCGaMHI0+m1kitC0BpBWmA8Wmi4YmQ60qInS5bDj34si+UzXV2E4HDGGWekV6aPZeYtLOX8RYWDaZpEdKUnUrqolySpEn9BVn/D3lUsL6LQ1kWSzdMjSivqIqwOGsk1j8wK8kQaA9FvI3/5dMwf+SB/EXE2z99MIrqynohWq8kziiKJ45hjWNJ4oTywJWUORQyQukiypEfEXOKA5BGPqwwaybVK3O4hD//0T/+U0t54441uj6F0kU8MF5C/aBXJ80erzXQiutJCQ2uLsUs0THGeRcuipPFhJaUF6iLJnnvuuSmIH7iVcujQoTReF2F1kEiu/USgOG7XEDU2bvHwPoKlkb9PP/00jef5Q5OIriwz3w5+TAj4tnfv3k6KNHMcsxxnRIKWNF7scbahYfeEmS+PApRWjm+++Sa9/+Uvf5kis5JOqwgIs08LBqHhQUsJn1MJoPVk8+bNqbWDikg8JMg8RFWlwpEvn9YKWjsIU0+UYCotvCdPa9asSdNQ4bj99ttTPqhM8CAtlQ3WSUWHCkWv/EVl5u23366N28I6iaIc0WnBszXkh0qWJs+wzzN4TEnjifLASkpDoyg8B0XFZFwKWiopq1evPqF1pQl/UCablRRJgfLA2z0aOlpzuN3DrZtB8e8fWmji30rSTHH7kFuqksaPLSkNtaElZVLQCgMe0tVkGVVLSt0tR0ntRXlgJaUhKynS6HmeSQqUB97ukSRJrWQlRZIktZKVlDnCP3Xy17K69GGgw7h+D6byXEg8G8LrdPPDepoEV4zPYz2Mn3rqqd08IJY1W5qsr9zXSz+99kFZvj9Godf2Dbre/HtjmfF9zjYe2iYvg3wnktrLSsoEevzxx/s+SEhMnYirwwOsw/z7ZtMfdvpZoULVZlVBGnu56KKLOmMaBfrewSDfiaT2spIyR+hQLX/lh5uO2bgKzK9u+TEnLQamA6+RRsEcP/rRyyvpEcWY5TFNzM9rXOXyYBKfk8Z8fM7w1FNPpYHl5Vf0eX6YPnqzZRrex3pi+qrgilWBBePz2B9Yt25dqiDl+yNU7Rc6p4tKDe/ZtmiJIV+kxZU2Q1U36Xwe25H3fMu8MR+fs1ymzYM0kqfYfqYhP7lYH5+zPAami+l5X8Yy2aZYd3zPkU/S6rYj5mEIvbYvltfk+MvTyV/kq+r7lqRp49896m/Uu4qgghHELw+IVhd8kMB+EdyP+ZiHwIF5IDWmZR6mI8BgyAMGsl0RSJD5Y7ry8mO5eToIKsg6mIbxCG6Yr2M6mJf1ROBC8hhpqNsvTAs+Y1timvg8zxeBDyO/YJzAipHGvLE+XmM/MV+k58tj/0UwRfIU+yyXH0f5vEwfeQ98lu/T2ObYJ5EegSRz+ffN5yyr1/YNevyRHvNGfoZhGOcZ2x7bIml8UR7YktISBPSLWzAREA11wQc3bNiQurvn6vexxx5L8XwIJph3WkUX9dHXyIoVK9JrlVjf2rVru13n19m3b1+6Sg4EFTx69Gh3vC5Oz3SxvJdeeil1y/+3v/2tk1q/X+jllhaMl19+ufj973+fpuE96eBW1+uvv5722/79+0/IL7cIiH0UaRHcEaeffnpqAWJdzFflhz/8YfHKK6+kVopyS1GVusCNuXyfXnbZZcW3335bG0gyN1VpSPmglSVak3pt36DHX11wyTYgRAQtclUtU5LGi5WUlpi6Qu0WqnnhWhd8cMeOHcUFF1yQKiLEv+FH8eyzz06ViMAPcf7gaZ2Yhh9zYvD0kgcVBN3eD9qsz/bF7YEm+NHk1s+9997bSanfL7/4xS+KPXv2pB99fjz5seb9VVddlT7nh5ZAc+w3fujzhzsJ0Mj2RN7y7WQ+bpVQycl/xHNUYviBZLo1nRhIveTfOd8BeS3L80PlioppXSDJwDKpRJAPtjW+017bN+jx1yu4ZCA9X9Zs4TYWvR3XfU+SxoeVlJbgapXWAq5Yn3/++U7qdy0m/MiSzhDRifnR5aFN0mg14EeRlhB+POLZAloPoiWlFyo4TE8l4O67705pV155ZfeZlNxtt92W1sf0rIeYKE3Wkat6JqWfO+64o9sCgLr9wj6gZeFnP/tZen/FFVekq//4weIKO+YBP9yB5bM98Xn+A3vXXXel7aV14siRI53UIgVoZJlUCK677rr0fArT0EpSZcuWLWk5LDv/ztevX59ajMoWL15c/PrXv07TUPHgeyGf+XbQkpZXFGNb+YzKVei1fYMef/lxQPBK8llGBO8f//jHnXezhwrfwoULO+8kjTN7nG1ovvaEaQ+fGhUqC1TKqMA1NYzjkYrT1q1b7QpfGnOUB7akSBqJY8eOpeeCZhO377jNlLeQSRpftqQ0ZIuDNHozPc/i+apBb0FKah/KAyspDVlJkUbP80xSoDzwdo8kSWolKymSJKmVrKRIkqRWspIyR/ibZP46Kvz9syr2TVORP/41wXIY8g7QynhwMR5elCRpJqykzHN0LEZHaKNAZ2DRe2mgk7ZBO2qTJKmKlZQ5EtF+45UWCioUtFzw408LSPQcm/f6GulMS2+i0UrCdNHCwWu0gETrB3hSmmXF8niNdUSHW1Q6eM/A8qMSUhXdttxzLPnOoycjX2eeLzAeea7bXknS5LKSMkeoZOSvgfgoS5YsST1mRryUr7/+OsXVocIQ6fyoTyc2Cd3pE8+F5RHQjhg2LI/lsnxiAhGvhbT7778/rRv0O0EPngzRBwV52LhxYxoH+bnxxhvTwDpCrLNOvl359kqSJpuVlBaJSMV1UW5Jz6Pi5lFsm4qKDcsjpg3LZ2B9LH8U0W37VaaaRPWVJE0eKyktVBflNqLYhjyKLZFu//a3v6XxeO2F5RHULtZBdF9u4zSJbhuqnknpZcGCBSdMH+N128vneRA8SdJksZLSQnVRbiOKbTy7kf+AE4GXiLzcPmrSChHB12Id+/fvT7dxmkS3DVXRjOuiJ4MWFbaB/PO8y7Jly1J63fbOVRRdSVI72C1+Q23srpuHTg8cODCyf+/MtelE0dV4s1t8ScFu8dVqcxFFV5LUHrakNOQVnjR6nmeSgi0pkiSptaykSJKkVrKSIkmSWslKiiRJaiUrKXOE/kDy12GZaQdoeQdt/MU5Yv9EjJ0qzEPfJ3a8JkkaJisp8wxdzN95552dd4NjXpZRp6qy8sYbbxTr1q2bViwhSZLqWEmZI+UoyNEaQcsKvcbSkVk5PW+t4D29tkZ6BOS79dZbi3fffbfbQlMXXZi/dvE+5md9TMu8LIPxqsjHl19+uS0mkqTZQT8p6m/Uu2rlypXH33777TT+6quvHt+0aVMaX7NmTTf98OHDx5ctW5bGSX/iiSfSOJ/zvjz+5Zdfpul5Bctk2WB7PvroozS+ffv2NCBfX1PM++yzz3beSdNnkSQpUB7YktISRCSOeDpr165NAf/ArZRIJ7bOVEUljaNfFOR+0YWHcXuGFhdi9VxyySWdFEmShsNKSkusXLmy+7wHt264lQPS4/YKt2QiKF8TddGFZ6L8TAq3poim/NZbb3VSJEkaDispLbFr1670LAgtHjt37iw2btzYTb/hhhtSOpWBl156KaXXodWFf+cwfV104V6IpMw8dUH9qp5JOeWUU4ojR4503kmSNBzG7mnImCL1+Isy5ms0Zs0ezzNJwdg9Goqzzz672LdvX/cfSZIkDYMtKQ15hdcbt4CWLFmSbjFJ0+V5JilQHlhJacjCUxo9zzNJgfLA2z2SJKmVrKRozthzrSSpFyspLdE0mN90xHJB/yvTWX45cOF0lxNY3j/90z+l8TPPPDO9Dgt/t85f67ANeagASVK7WEmZMPRkGz3YDqIcuHC6ywl0/nb77ben8UOHDqXXUamLDP2HP/yh2LZtW+edJKltrKS0RFUwPzpUi47Y8lYBHiaiZYS0qqCD9AJLelWHbEwTLSB8HsEHo4db5IEHowWmHLiwbjkMVApAPstBDAO930ZX+kwH5iPvsZzYrrrlM06+eeXzCLJYDt74xRdfFBdffHEalySNEf7do/7mYletX7++M/ZdcMAI/EdeIjggAQNjujzoIEEFFy9enMarAgjG5xF8cMuWLSlIIEEMGQ8R0DAPXIh8OXkQQ5YRwRHzfOZ5YB35smLfsjy2hWUxDdvWa/n59pbz10Rsm9rDIklSoDywJaXFiNNDywKtEeWO0iI4IMEIv/nmmzSOCDpIfyXE7anD7Rs+j35NuO3BuujiniCGjEcrSi8sh2dKYjn0lZLntSqIIbd6opUjx+2jK664orj55ptTCICFCxf2XX6/IIt1aHm58cYbO+8kSW1kJaWluNXxwQcfpFsdVCAWLVrU+eQ78UPNLY78M25tgFsi3J6pQ/BBPo9bJ1SEWNeLL75YrFixIo1v2LAhfdYLy+GZklgO6ydacy8PP/xwZdRk1hmvxCx64IEHprX8MuYtP5NCwEWiN0uS2stKSktFC0Q8d1FGZYLP7r333uLuu+/upBbF/v37u8918HArrrzyyvSDHJUA0DLB50zHQOsJFQeGF154IaXt2LGjWLx4cZo+D1yYYzlUJmI5PGty//33dz49GZWF1atXd1tGcqz7lVdeScvhIV1aWwZdfpWqZ1JYLtssSWove5xtqE09YdblhR/xrVu3zuhfN3NhrvZtm75TfcfvRFKgPLAlRXOKZ0M2bdrUeTe7Vq5ceULrkiSpXWxJacgrvPmH21fcCqp6uFdzw/NMUqA8sJLSkIWnNHqeZ5IC5YG3eyRJUitZSZEkSa1kJUWSJLWSlZQWo8dX4uPw1+JBMW+THmOHhTyS117rjH5W/EeNJKkJKykaCTpti15iA13cg87mJEnqx0pKi0VE5IhzQwsELREMdGMfGI8owU8++WQntSg+/PDDlMZneQtHPn20avA5lQcGYuUwDUPMHxWOPA8MgTxGJGc89NBDqVdcSZKmjb8gq7827KqIPAyiARMZmEjBefTflStXpgjCRBzOoyhH/vOoyYgIw/n0vGf6iDycR2DO583Tm2DaiGAsVbFIkhQoD2xJGSPE2nn99ddTywYxeog/88knnxSrVq3qTFEU7733XjcAH4ECy5j+/fff77aEfPXVV93bMDF9xNWJ1zPOOCO9oldk5l64/UNryzXXXNNJkSSpNyspY4RAg0REpiJC5YIHVc8+++xi3759nSm+62a+V+WB2zHr169PUYAZqPhwm6aJfpGZc+VnUujVdefOncXevXs7KZIk9WYlZYzQEpE/C7J8+fJi7dq1xbnnntt9xoQIw9GSUiWCD8ZyaJHpNX2uX2TmXNUzKQsXLhyo9UWSNNnsFr8hu+ueOVp+HnjggdSCI1XxPJMU7BZfs4rbStwCorIiSVI/tqQ05BXecMTtnqa3mDRZPM8kBcoDKykNWXhKo+d5JilQHni7R5IktZKVlHnC5zwkSfONlZR54sCBA50xSZLmByspY4Y+SvJow8TqIe03v/lN6rukHNSvn+gvJcbzV0mS5pKVlDG3a9eu1O/IXXfdVSxevLh46623Op/0F7eI6vot4Z84dr4mSZorVlLGTDna8Ndff92tbNBVPXF1wFPREcmY1pVoMWGgy3rceuutxbvvvtttOYloy/FKhWfLli1pXJKk2eZfkBtq618jqXDQBf2bb76ZKij3339/CgxIfj/66KPUlT0VldNPP73YuHFjahkhdg/xf6jc2AOs2sS/IEsKlAdWUhpqe+EZz6h8/vnnKWhgnl9aSmhNiajGb7zxRvrMSoraxkqKpEB54O2eMUYlI27VgIjIREcuW7VqVXHfffelygjD9u3bO5/05jMpkqS5ZCVljBHROCIgP/XUU8XOnTuLu+++u/Pp9zZs2FDs2bOn+0zKKaec0vmkN59JkSTNJW/3NDQOt3vuuOOOzjtpPHm7R1Lwds88Ev/2kSRpvrAlpSGv8KTR8zyTFGxJkSRJrWUlRZIktZKVlFlGfyWT/rfe6PF2HPHdDRofSZI0PVZSZoi+SvhnDUN0T4/onp7eXnM7duxIXdHPN1Q8mvx4v/baayko4iBi/7YBvfV+++23KT/89TtXPgaGJfrCyfvEkaRJYCVlBPjBXrFiRRr/4IMP0muI7uvnmzvvvLM4ePBg5129f/3Xf03d848jWlGWLVtWLF26tJPyfU+/kqThs5IyQxHsj4FxrqRpKdi3b1/3B+yPf/xjeuWzuPomjXGujm+66aaUBlpeSGfIW2F4ypnlMf2ZZ56Z1kFlh/FYPp+TxlCev9dyec9y+SxuReX56zc909I6RMBCxmlRIQ9MwxC3d0gnZhDxhJguPs+Xz3isN29x+fDDD1Man+UVg3z6qv3A/mGaPM/R4pPngSHEtAyxTLz44ovFFVdc0XlXpF58X3jhhcrWE+aLfLE88BrLY9vIW4jxqnWXAz9K0sTgL8jqb5Bd9cQTTxx/++230/Dss892Uo8f37RpU0r78ssvjy9evDi9YsuWLWk6PluzZk1KA9PH/Kz/o48+SuNMz4DDhw9359m+ffvx9evXp3GsXLkyzdN0uczPQL6WLVvWzR/Tv/rqq2m8anqwfNYDXskH85O/mJd1Vk1POtMyXZ5P8s/8zJNvV3wXTJ+nR57z6XnP9Pm2xHrzefN0lsN6wXcZyE8sh3UwPfsiXy9pjFftP6aNdfLKQBoD06Bu3ZMivltJojywJWXIuPp9+OGHiwMHDqTgffv37++2TtCKQFf23BY5//zzuwH/tm3blq76mYc4O+GMM84ojhw50nlXpBYI0K19dG2f33pA3GbCunXrimPHjjVebiB/xAC69tpr0xU9t6g++eSTzqcnT1/GNtLicPPNN6dnOBYuXJjSX3nlleLKK69M4wRBfP3111NrA/uIfcE68nyyv2L78u0KTP/+++93Wx7Ic9xyiuljH8cr2x6mKgRpv9N6Ed8Rdu/eXfzud79LeQu0BvE+lhPYF7fffnvx61//upNSv/+YlvzGuq677rri+eefT8MvfvGLlFa1bkmaVFZShowfvakr7tRFPT+4999/f/qhpfKyevXqNM3y5cvT7ZG47RC3AQgQyG2NQETj008/vfOuGeYJ3IpYsGDBwMslf1SiIiAhP5yD9Ggbtyl43bVrV6qs8cN8+PDhbqWDW1xUzqiI8IPOLRPyyW2ywA91XnkoI09UgiKfVHy45dYElQ6eFyKP5GPRokXddCpPLIu8RSwkbs9ERaKMZ2zIJ/sbvfYf+SUeEpW4tWvXpjxQiWG8bt2SNKmspIzAqaeeml75wY0rb1oRCPQH0vghihYAfrwvueSS9EPF1T0/zgyLFy9OlZ5B8IPPPMxPpYir90GXS/54/iHy99hjj/X98b/lllvSPPzosy1sL/PyQC3pBCv81a9+1Zn6u+crYvngh518RsBE0sl/uaUoR4sNYjm0yPSaPhetQcyXPxOUpzNs2rQpvafSQP7qPPPMM+l7RK/9d9VVVxXPPfdcqsSA/LK9qFu3JE2movj/A7w+W1h0cfW/AAAAAElFTkSuQmCC;clipPath=inset(0% 0% 50.67% 0.21%);" vertex="1" parent="1">
          <mxGeometry x="500" y="420" width="808.15" height="510.0477611940299" as="geometry" />
        </mxCell>
        <mxCell id="fEcaFnHh4Itc8m6EwF7S-5" value="" style="endArrow=classic;html=1;rounded=0;exitX=0.5;exitY=0;exitDx=0;exitDy=0;entryX=-0.004;entryY=0.583;entryDx=0;entryDy=0;entryPerimeter=0;" edge="1" parent="1" source="fEcaFnHh4Itc8m6EwF7S-1" target="fEcaFnHh4Itc8m6EwF7S-3">
          <mxGeometry width="50" height="50" relative="1" as="geometry">
            <mxPoint x="790" y="580" as="sourcePoint" />
            <mxPoint x="840" y="530" as="targetPoint" />
            <Array as="points">
              <mxPoint x="200" y="80" />
            </Array>
          </mxGeometry>
        </mxCell>
        <mxCell id="fEcaFnHh4Itc8m6EwF7S-6" value="isAuthenticated" style="text;html=1;align=center;verticalAlign=middle;whiteSpace=wrap;rounded=0;" vertex="1" parent="1">
          <mxGeometry x="110" y="60" width="60" height="30" as="geometry" />
        </mxCell>
      </root>
    </mxGraphModel>
  </diagram>
</mxfile>
